<svg xmlns="http://www.w3.org/2000/svg" viewBox="0 0 552.76 340.16"><defs><style>.a,.c{opacity:0.25;}.b,.c,.d{fill:#fff;}.d{fill-rule:evenodd;}</style></defs><title>cc</title><g class="a"><path class="b" d="M21.39,14.17a13.83,13.83,0,0,1,10.12,4.15,13.63,13.63,0,0,1,3,4.57,14.94,14.94,0,0,1,0,10.91,13,13,0,0,1-3,4.49,14.56,14.56,0,0,1-4.71,3.14,14.11,14.11,0,0,1-5.44,1.09A13.78,13.78,0,0,1,16,41.44,14.59,14.59,0,0,1,8.3,33.74a14.15,14.15,0,0,1,0-10.79,14.22,14.22,0,0,1,3.13-4.64A13.4,13.4,0,0,1,21.39,14.17Zm.05,2.56a11,11,0,0,0-8.17,3.39,12.19,12.19,0,0,0-2.57,3.81,11.24,11.24,0,0,0,0,8.81A12,12,0,0,0,17,39a11.5,11.5,0,0,0,8.82,0,12.23,12.23,0,0,0,3.86-2.56A10.89,10.89,0,0,0,33,28.35a11.64,11.64,0,0,0-.86-4.45,11.34,11.34,0,0,0-2.51-3.75A11.21,11.21,0,0,0,21.44,16.73ZM21.26,26l-1.9,1a1.94,1.94,0,0,0-.75-.89,1.68,1.68,0,0,0-.82-.25q-1.9,0-1.9,2.51a3.11,3.11,0,0,0,.48,1.82,1.62,1.62,0,0,0,1.42.68,1.77,1.77,0,0,0,1.75-1.22l1.75.89a4.17,4.17,0,0,1-3.72,2.23,4.14,4.14,0,0,1-3.06-1.16,4.38,4.38,0,0,1-1.16-3.24,4.37,4.37,0,0,1,1.18-3.21,4,4,0,0,1,3-1.19A4,4,0,0,1,21.26,26Zm8.17,0-1.87,1a1.94,1.94,0,0,0-.75-.89,1.72,1.72,0,0,0-.85-.25q-1.9,0-1.9,2.51a3.11,3.11,0,0,0,.48,1.82,1.62,1.62,0,0,0,1.42.68,1.77,1.77,0,0,0,1.75-1.22l1.77.89a4.35,4.35,0,0,1-1.57,1.63,4.45,4.45,0,0,1-5.23-.57,4.41,4.41,0,0,1-1.15-3.24,4.37,4.37,0,0,1,1.18-3.21,4,4,0,0,1,3-1.19A3.92,3.92,0,0,1,29.43,26Z"/></g><g class="a"><path class="b" d="M63.9,14.17A14,14,0,0,1,78.1,28.35a13.36,13.36,0,0,1-4,9.95A14,14,0,0,1,63.9,42.52,14.26,14.26,0,0,1,49.76,28.35a13.89,13.89,0,0,1,4.18-10.07A13.57,13.57,0,0,1,63.9,14.17ZM64,16.73a11,11,0,0,0-8.17,3.39,11.4,11.4,0,0,0-3.47,8.23,11.14,11.14,0,0,0,3.44,8.15A11.2,11.2,0,0,0,64,39.94a11.38,11.38,0,0,0,8.25-3.47,10.79,10.79,0,0,0,3.34-8.12A11.58,11.58,0,0,0,64,16.73Zm3.8,8.1v5.8H66.13v6.88h-4.4V30.62H60.11v-5.8a.91.91,0,0,1,.91-.91h5.82a.89.89,0,0,1,.63.27A.86.86,0,0,1,67.75,24.83ZM62,21.18a2,2,0,1,1,3.95,0,2,2,0,1,1-3.95,0Z"/></g><path class="c" d="M116.51,18.28a13.71,13.71,0,0,0-10.08-4.11,13.51,13.51,0,0,0-10,4.11,13.86,13.86,0,0,0-4.19,10.06,13.63,13.63,0,0,0,4.19,10,13.62,13.62,0,0,0,10,4.18,14,14,0,0,0,10.15-4.22,13.45,13.45,0,0,0,4-10A13.68,13.68,0,0,0,116.51,18.28ZM98.27,36.5a11.13,11.13,0,0,1-3.44-8.15,11.42,11.42,0,0,1,.52-3.44l7.26,3.23H101v2.21h3.32l.32.67v1.07H101v2.21h3.64v3.2h3.53v-3.2h3.67v-2l4.63,2.06a11,11,0,0,1-1.74,2.15,11.37,11.37,0,0,1-8.27,3.47A11.2,11.2,0,0,1,98.27,36.5Zm8.2-19.77a11.1,11.1,0,0,1,8.19,3.4,11.12,11.12,0,0,1,3.41,8.22,12.15,12.15,0,0,1-.45,3.37l-5.77-2.57v-1h-2.21l3.6-6.63h-3.76L107,27l-1.32-.59-2.26-4.9H99.66l1.56,2.91-4.68-2.08a13,13,0,0,1,1.77-2.21A11,11,0,0,1,106.47,16.72Z"/><path class="c" d="M159,18.28A13.71,13.71,0,0,0,149,14.17a13.51,13.51,0,0,0-10,4.11,13.86,13.86,0,0,0-4.19,10.06,13.62,13.62,0,0,0,4.19,10,13.62,13.62,0,0,0,10,4.18A14,14,0,0,0,159.1,38.3a13.45,13.45,0,0,0,4-10A13.67,13.67,0,0,0,159,18.28Zm-1.77,18.18A11.37,11.37,0,0,1,149,39.93a11.2,11.2,0,0,1-8.2-3.44,11.13,11.13,0,0,1-3.44-8.15,11.32,11.32,0,0,1,.62-3.77l3.76,1.66h-.27v1.68h1.33c0,.24,0,.48,0,.71V29h-1.31v1.68H143a6.69,6.69,0,0,0,1.33,3.08,7.14,7.14,0,0,0,5.79,2.7,8,8,0,0,0,3.7-.9L153.25,33a6.58,6.58,0,0,1-2.7.62,4,4,0,0,1-3.06-1.21,3.73,3.73,0,0,1-.78-1.66h5.16L159.19,34A11,11,0,0,1,157.25,36.46ZM148,29l0,0,.05,0Zm4.41-1.12h.21V26.24h-4L147,25.52a3.26,3.26,0,0,1,.5-.82,3.61,3.61,0,0,1,2.92-1.28,7,7,0,0,1,2.63.57l.66-2.71a9,9,0,0,0-3.56-.71,6.93,6.93,0,0,0-6.28,3.57l-4.66-2.06a13,13,0,0,1,1.6-1.95,11,11,0,0,1,8.16-3.4,11.11,11.11,0,0,1,8.2,3.4,11.12,11.12,0,0,1,3.4,8.22,12.34,12.34,0,0,1-.36,3Z"/><g class="a"><path class="b" d="M191.46,14.17a14,14,0,0,1,14.2,14.17,13.36,13.36,0,0,1-4,9.95,14,14,0,0,1-10.15,4.23,13.62,13.62,0,0,1-10-4.2,13.61,13.61,0,0,1-4.18-10,13.89,13.89,0,0,1,4.18-10.07A13.57,13.57,0,0,1,191.46,14.17Zm-11,10.35a11.51,11.51,0,0,0,2.81,12,11.55,11.55,0,0,0,16.45-.05A10.4,10.4,0,0,0,201.71,34l-5.34-2.38A3.65,3.65,0,0,1,195,33.78a4.66,4.66,0,0,1-2.54,1v2.18h-1.65V34.75a6.57,6.57,0,0,1-4.3-1.7l1.95-2a4.53,4.53,0,0,0,3.16,1.29,2.29,2.29,0,0,0,1.25-.33,1.19,1.19,0,0,0,.52-1.09,1.08,1.08,0,0,0-.38-.86l-1.37-.58L190,28.75l-2.25-1Zm11-7.82a11,11,0,0,0-8.17,3.42,13.59,13.59,0,0,0-1.57,1.9l5.42,2.43a3.33,3.33,0,0,1,1.34-1.78,4.48,4.48,0,0,1,2.3-.75V19.74h1.65v2.18A6.27,6.27,0,0,1,196,23.23l-1.85,1.9a4.19,4.19,0,0,0-2.43-.84,2.65,2.65,0,0,0-1.18.25.88.88,0,0,0-.52.86.6.6,0,0,0,.13.35l1.8.81,1.24.56,2.28,1,7.26,3.24a13.12,13.12,0,0,0,.35-3,11.09,11.09,0,0,0-3.39-8.23A11.08,11.08,0,0,0,191.51,16.7Z"/></g><g class="a"><path class="b" d="M234,14.17a14.09,14.09,0,0,1,14.2,14.17,13.5,13.5,0,0,1-4,10A14,14,0,0,1,234,42.52a14.26,14.26,0,0,1-14.15-14.17,13.86,13.86,0,0,1,4.18-10A13.58,13.58,0,0,1,234,14.17Zm.05,2.56a11,11,0,0,0-8.17,3.42,11.32,11.32,0,0,0-3.47,8.2,11.08,11.08,0,0,0,3.44,8.15,11.2,11.2,0,0,0,8.2,3.44,11.38,11.38,0,0,0,8.25-3.47,10.85,10.85,0,0,0,3.34-8.12,11.06,11.06,0,0,0-3.39-8.2A11.08,11.08,0,0,0,234,16.73ZM239.37,25v2.43h-10.3V25Zm0,4.56V32h-10.3V29.56Z"/></g><g class="a"><path class="b" d="M276.5,14.17a14,14,0,0,1,14.2,14.17,13.41,13.41,0,0,1-4,9.95,14,14,0,0,1-10.15,4.23,13.62,13.62,0,0,1-10-4.18,13.62,13.62,0,0,1-4.19-10,13.89,13.89,0,0,1,4.18-10.07A13.57,13.57,0,0,1,276.5,14.17Zm0,2.56a11,11,0,0,0-8.16,3.39,11.35,11.35,0,0,0-3.47,8.23,11.14,11.14,0,0,0,3.44,8.15,11.2,11.2,0,0,0,8.2,3.44,11.32,11.32,0,0,0,8.25-3.47,10.85,10.85,0,0,0,3.34-8.12,11.58,11.58,0,0,0-11.6-11.62Zm-6.67,15.46V24.35h3.9q2.88,0,2.89,2.66a2.75,2.75,0,0,1-.14.87,2.67,2.67,0,0,1-.48.84,2.43,2.43,0,0,1-1,.68,4.47,4.47,0,0,1-1.62.27h-1.54v2.53Zm1.95-6.38v2.38h1.67a1.16,1.16,0,0,0,.91-.34,1.23,1.23,0,0,0,.3-.85q0-1.19-1.27-1.19Zm5.37,6.38V24.35h3a4.22,4.22,0,0,1,2.94,1,3.8,3.8,0,0,1,1.06,3,3.8,3.8,0,0,1-1.06,3,4.22,4.22,0,0,1-2.94,1Zm1.95-6.2v4.56h1.14a1.76,1.76,0,0,0,1.51-.62,3.17,3.17,0,0,0,0-3.32,1.8,1.8,0,0,0-1.53-.62Z"/></g><g class="a"><path class="b" d="M319,14.17a14.09,14.09,0,0,1,14.2,14.17,13.5,13.5,0,0,1-4,10A14,14,0,0,1,319,42.52a14.26,14.26,0,0,1-14.15-14.17,13.86,13.86,0,0,1,4.18-10A13.58,13.58,0,0,1,319,14.17Zm.05,2.56a11,11,0,0,0-8.17,3.42,11.32,11.32,0,0,0-3.47,8.2,11.08,11.08,0,0,0,3.44,8.15,11.2,11.2,0,0,0,8.2,3.44,11.38,11.38,0,0,0,8.25-3.47,10.85,10.85,0,0,0,3.34-8.12,11.06,11.06,0,0,0-3.39-8.2A11.08,11.08,0,0,0,319.07,16.73Zm9.24,11.87.28.13v4l-.25.13-3.44,1.47-.15.05-.18-.05-7.42-3.06-.25-.1-3.67,1.52-3.62-1.57V27.46L313,26l0,0V22l3.85-1.7,8.68,3.59v3.52Zm-4,4.66V30.75h0v-.1L317.76,28v2.58l6.5,2.68v0Zm.43-3.29L327,29l-2.1-.89-2.23.94Zm3,2.18V29.69l-2.53,1.06v2.48Z"/></g><g class="a"><path class="b" d="M361.54,14.17a14.09,14.09,0,0,1,14.2,14.17,13.5,13.5,0,0,1-4,10,14,14,0,0,1-10.15,4.2,14.26,14.26,0,0,1-14.15-14.17,13.86,13.86,0,0,1,4.18-10A13.58,13.58,0,0,1,361.54,14.17Zm.05,2.56a11,11,0,0,0-8.17,3.42,11.32,11.32,0,0,0-3.47,8.2,11.08,11.08,0,0,0,3.44,8.15,11.2,11.2,0,0,0,8.2,3.44,11.38,11.38,0,0,0,8.25-3.47,10.85,10.85,0,0,0,3.34-8.12,11.06,11.06,0,0,0-3.39-8.2A11.08,11.08,0,0,0,361.59,16.73Zm-6.33,9.62a6.33,6.33,0,0,1,2.1-4,6.19,6.19,0,0,1,4.13-1.43A6.86,6.86,0,0,1,366.81,23a7.84,7.84,0,0,1,2,5.52A7.58,7.58,0,0,1,366.73,34a7,7,0,0,1-5.32,2.16,6.31,6.31,0,0,1-4.15-1.44,6.13,6.13,0,0,1-2.1-4.1h3.57q.13,2.58,3.11,2.58a2.81,2.81,0,0,0,2.4-1.29,5.86,5.86,0,0,0,.91-3.44,5.9,5.9,0,0,0-.84-3.43,2.77,2.77,0,0,0-2.4-1.18q-2.83,0-3.19,2.51h1L357,29.16l-2.81-2.81Z"/></g><g class="a"><path class="b" d="M404.06,14.17a14,14,0,0,1,14.2,14.17,13.41,13.41,0,0,1-4,9.95,14,14,0,0,1-10.15,4.23,13.62,13.62,0,0,1-10-4.18,13.62,13.62,0,0,1-4.19-10,13.89,13.89,0,0,1,4.18-10.07A13.57,13.57,0,0,1,404.06,14.17Zm0,2.56a11,11,0,0,0-8.16,3.39,11.35,11.35,0,0,0-3.47,8.23,11.14,11.14,0,0,0,3.44,8.15,11.2,11.2,0,0,0,8.2,3.44,11.32,11.32,0,0,0,8.25-3.47,10.85,10.85,0,0,0,3.34-8.12,11.58,11.58,0,0,0-11.6-11.62Zm.22,3a.57.57,0,0,1,.44.14.61.61,0,0,1,.22.42v.1l.38,6.12.28-3.39a.61.61,0,1,1,1.21,0v.1l.33,4.56.33-3.67a.59.59,0,0,1,.19-.38.56.56,0,0,1,.39-.15.64.64,0,0,1,.4.14.52.52,0,0,1,.2.37l.66,5.52.3-.73a.57.57,0,0,1,.58-.38h3.32v1.21h-2.91l-1,2.53a.55.55,0,0,1-.66.38.56.56,0,0,1-.37-.18.65.65,0,0,1-.16-.38l-.23-1.82-.43,5.29a.59.59,0,0,1-.19.38.56.56,0,0,1-.39.15.6.6,0,0,1-.4-.15.56.56,0,0,1-.2-.38v-.08l-.35-4.38-.3,4.13a.72.72,0,0,1-.22.38.56.56,0,0,1-.39.15.6.6,0,0,1-.4-.15.56.56,0,0,1-.2-.38v-.08l-.33-4.94L404,35.64v.08a.63.63,0,0,1-.18.44.58.58,0,0,1-.86,0,.63.63,0,0,1-.18-.44v-.05l-.33-5-.3,4.83v.08a.72.72,0,0,1-.22.38.56.56,0,0,1-.39.15.6.6,0,0,1-.41-.15.56.56,0,0,1-.2-.38v-.08h0v-.08l-.35-5.06-.28,3.24a.57.57,0,0,1-.2.38.61.61,0,0,1-.41.15.59.59,0,0,1-.39-.14.65.65,0,0,1-.22-.37l-.63-4.35-.08.15a.56.56,0,0,1-.56.33H394.9V28.52h2.56l.78-1.59a.53.53,0,0,1,.62-.34.56.56,0,0,1,.52.49l.18,1.16.48-5.59a.61.61,0,1,1,1.21,0v.1l.28,3.95.38-5.29v-.08a.59.59,0,0,1,.19-.38.56.56,0,0,1,.39-.15.61.61,0,0,1,.4.15.57.57,0,0,1,.2.38v.08l.3,4.61.35-5.59v-.1a.5.5,0,0,1,.16-.38A.68.68,0,0,1,404.32,19.77Z"/></g><g class="a"><path class="d" d="M446.59,14.17a13.51,13.51,0,0,0-10,4.11,13.86,13.86,0,0,0-4.19,10.06,13.62,13.62,0,0,0,4.19,10,13.62,13.62,0,0,0,10,4.18,14,14,0,0,0,10.15-4.22,13.45,13.45,0,0,0,4-10,14,14,0,0,0-14.19-14.17Zm0,2.55a11.11,11.11,0,0,1,8.2,3.4,11.12,11.12,0,0,1,3.4,8.22,10.81,10.81,0,0,1-3.33,8.11,11.38,11.38,0,0,1-8.27,3.47,11.2,11.2,0,0,1-8.19-3.44A11.13,11.13,0,0,1,435,28.35a11.3,11.3,0,0,1,3.48-8.22A11,11,0,0,1,446.62,16.72Z"/><path class="b" d="M452.75,28.48a.66.66,0,0,0-.61.41l-.23.54-.63-5.31a.66.66,0,0,0-1.32,0l-.24,2.94-.3-3.93a.66.66,0,0,0-1.32,0l-.2,2.57-.34-5.39a.66.66,0,0,0-1.33,0l-.29,4.78-.25-3.79a.66.66,0,0,0-1.33,0l-.3,4.58-.24-3.26a.66.66,0,0,0-1.32,0l-.44,5.13-.1-.7a.66.66,0,0,0-1.26-.19l-.75,1.58h-2.51V29.8h2.93a.67.67,0,0,0,.59-.36l.61,4.18a.66.66,0,0,0,1.32,0l.21-2.49.32,4.48a.66.66,0,0,0,1.33,0l.27-4,.27,4.19a.66.66,0,0,0,1.33,0l.28-4.6.26,4.1a.66.66,0,0,0,1.32,0l.26-3.35.28,3.68a.66.66,0,0,0,1.32,0l.39-4.74.15,1.28a.66.66,0,0,0,1.27.18l1-2.48h2.89V28.48Zm-4.46.3H447V30a.43.43,0,1,1-.86,0V28.77h-1.25a.43.43,0,1,1,0-.85h1.25V26.66a.43.43,0,0,1,.86,0v1.25h1.25a.43.43,0,1,1,0,.85Z"/></g><g class="a"><path class="b" d="M489.1,14.17a14.09,14.09,0,0,1,14.2,14.17,13.5,13.5,0,0,1-4,10,14,14,0,0,1-10.15,4.2A14.26,14.26,0,0,1,475,28.35a13.86,13.86,0,0,1,4.18-10A13.58,13.58,0,0,1,489.1,14.17Zm.05,2.56A11,11,0,0,0,481,20.15a11.32,11.32,0,0,0-3.47,8.2A11.08,11.08,0,0,0,481,36.5a11.2,11.2,0,0,0,8.2,3.44,11.38,11.38,0,0,0,8.25-3.47,10.85,10.85,0,0,0,3.34-8.12,11.06,11.06,0,0,0-3.39-8.2A11.08,11.08,0,0,0,489.15,16.73Zm5.77,7.57a.78.78,0,0,1,.78.78V35.51a.78.78,0,0,1-.78.78H487.2a.78.78,0,0,1-.78-.78V32.42h-3.09a.78.78,0,0,1-.78-.78V21.21a.73.73,0,0,1,.2-.52.87.87,0,0,1,.51-.27h7.8a.78.78,0,0,1,.78.78V24.3Zm-10.83,6.58h2.33v-5.8a.73.73,0,0,1,.2-.52.86.86,0,0,1,.48-.27h3.19V22h-6.2Zm10.07-5H488v8.88h6.2Z"/></g><g class="a"><path class="b" d="M531.65,20.19c-4.68,0-5.86,4.42-5.86,8.16s1.18,8.16,5.86,8.16,5.86-4.41,5.86-8.16S536.33,20.19,531.65,20.19Zm-2.52,8.16c0-1.65.11-5.08,2.52-5.08a2.16,2.16,0,0,1,.53.07.89.89,0,0,1,.18,1.25l-3.12,5.73A15.18,15.18,0,0,1,529.13,28.35Zm2.52,5.08a2.17,2.17,0,0,1-.53-.06l-.09,0-.15,0c-.54-.23-.87-.64-.39-1.37l3.48-6a13.58,13.58,0,0,1,.19,2.44C534.17,30,534.05,33.43,531.65,33.43Z"/><path class="b" d="M544.79,22.9a13.58,13.58,0,0,0-3-4.58,13.85,13.85,0,0,0-10.13-4.15,13.38,13.38,0,0,0-9.95,4.12A14.38,14.38,0,0,0,518.54,23a14.21,14.21,0,0,0,0,10.78,14.34,14.34,0,0,0,3.09,4.61,14.72,14.72,0,0,0,4.61,3.12,14.18,14.18,0,0,0,10.84,0,14.54,14.54,0,0,0,4.7-3.14,12.88,12.88,0,0,0,3-4.48,15,15,0,0,0,0-10.92ZM536.07,39a11.31,11.31,0,0,1-4.4.88,11.52,11.52,0,0,1-4.41-.86,12,12,0,0,1-3.77-2.53,12.1,12.1,0,0,1-2.58-3.77,11.29,11.29,0,0,1,0-8.8,12.33,12.33,0,0,1,2.58-3.82,11,11,0,0,1,8.18-3.39,11.2,11.2,0,0,1,8.22,3.41,11.37,11.37,0,0,1,2.51,3.75,11.64,11.64,0,0,1,.86,4.46,10.88,10.88,0,0,1-3.32,8.12A12.19,12.19,0,0,1,536.07,39Z"/></g><g class="a"><path class="b" d="M.13,56.69a13.71,13.71,0,0,1,10.09,4.11,13.68,13.68,0,0,1,4.11,10.06,13.41,13.41,0,0,1-4,9.95A14,14,0,0,1,.13,85a13.62,13.62,0,0,1-10-4.18,13.62,13.62,0,0,1-4.19-10A13.89,13.89,0,0,1-9.85,60.79,13.57,13.57,0,0,1,.13,56.69Zm0,2.56A11,11,0,0,0-8,62.64a11.35,11.35,0,0,0-3.47,8.23A11.14,11.14,0,0,0-8,79a11.2,11.2,0,0,0,8.2,3.44A11.32,11.32,0,0,0,8.43,79a10.85,10.85,0,0,0,3.34-8.12,11.15,11.15,0,0,0-3.39-8.23A11.19,11.19,0,0,0,.16,59.25ZM-6.51,74.71V66.87h3.9q2.88,0,2.89,2.66a2.75,2.75,0,0,1-.14.87,2.67,2.67,0,0,1-.48.84,2.43,2.43,0,0,1-1,.68A4.47,4.47,0,0,1-3,72.18H-4.53v2.53Zm1.95-6.38v2.38h1.67A1.16,1.16,0,0,0-2,70.37a1.23,1.23,0,0,0,.3-.85q0-1.19-1.27-1.19ZM.81,74.71V66.87h3a4.22,4.22,0,0,1,2.94,1,4.66,4.66,0,0,1,0,5.92,4.22,4.22,0,0,1-2.94,1Zm1.95-6.2v4.56H3.9a1.76,1.76,0,0,0,1.51-.62,3.17,3.17,0,0,0,0-3.32,1.8,1.8,0,0,0-1.53-.62Z"/><path class="b" d="M42.64,56.69a14.09,14.09,0,0,1,14.2,14.17,13.5,13.5,0,0,1-4,10A14,14,0,0,1,42.64,85,14.26,14.26,0,0,1,28.5,70.87a13.86,13.86,0,0,1,4.18-10A13.58,13.58,0,0,1,42.64,56.69Zm.05,2.56a11,11,0,0,0-8.17,3.42,11.32,11.32,0,0,0-3.47,8.2A11.08,11.08,0,0,0,34.5,79a11.2,11.2,0,0,0,8.2,3.44A11.38,11.38,0,0,0,50.95,79a10.85,10.85,0,0,0,3.34-8.12A11.62,11.62,0,0,0,42.7,59.25Zm9.24,11.87.28.13v4l-.25.13-3.44,1.47-.15.05-.18-.05-7.42-3.06-.25-.1-3.67,1.52-3.62-1.57V70l3.39-1.42,0,0v-4l3.85-1.7,8.68,3.59V70Zm-4,4.66V73.27h0v-.1l-6.5-2.66v2.58l6.5,2.68v0Zm.43-3.29,2.28-.94-2.1-.89-2.23.94Zm3,2.18V72.21l-2.53,1.06v2.48Z"/><path class="b" d="M85.16,56.69a14.09,14.09,0,0,1,14.2,14.17,13.5,13.5,0,0,1-4,10A14,14,0,0,1,85.16,85,14.26,14.26,0,0,1,71,70.87a13.86,13.86,0,0,1,4.18-10A13.58,13.58,0,0,1,85.16,56.69Zm.05,2.56A11,11,0,0,0,77,62.67a11.32,11.32,0,0,0-3.47,8.2A11.08,11.08,0,0,0,77,79a11.2,11.2,0,0,0,8.2,3.44A11.38,11.38,0,0,0,93.47,79a10.85,10.85,0,0,0,3.34-8.12A11.62,11.62,0,0,0,85.22,59.25Zm-6.33,9.62a6.33,6.33,0,0,1,2.1-4,6.19,6.19,0,0,1,4.13-1.43,6.86,6.86,0,0,1,5.31,2.15,7.84,7.84,0,0,1,2,5.52,7.58,7.58,0,0,1-2.05,5.43A7,7,0,0,1,85,78.66a6.31,6.31,0,0,1-4.15-1.44,6.13,6.13,0,0,1-2.1-4.1h3.57q.13,2.58,3.11,2.58a2.81,2.81,0,0,0,2.4-1.29,7.2,7.2,0,0,0,.08-6.87,2.77,2.77,0,0,0-2.4-1.18q-2.83,0-3.19,2.51h1l-2.81,2.81-2.81-2.81Z"/><path class="b" d="M127.68,56.69a14,14,0,0,1,14.2,14.17,13.41,13.41,0,0,1-4,9.95A14,14,0,0,1,127.68,85a14.28,14.28,0,0,1-14.15-14.17,13.89,13.89,0,0,1,4.18-10.07A13.57,13.57,0,0,1,127.68,56.69Zm0,2.56a11,11,0,0,0-8.16,3.39,11.35,11.35,0,0,0-3.47,8.23,11.75,11.75,0,0,0,11.64,11.59A11.32,11.32,0,0,0,136,79a10.85,10.85,0,0,0,3.34-8.12,11.58,11.58,0,0,0-11.6-11.62Zm.22,3a.57.57,0,0,1,.44.14.61.61,0,0,1,.22.42v.1l.38,6.12.28-3.39a.61.61,0,1,1,1.21,0v.1l.33,4.56.33-3.67a.59.59,0,0,1,.19-.38.56.56,0,0,1,.39-.15.64.64,0,0,1,.4.14.52.52,0,0,1,.2.37l.66,5.52.3-.73a.57.57,0,0,1,.58-.38h3.32v1.21h-2.91l-1,2.53a.55.55,0,0,1-.66.38.56.56,0,0,1-.37-.18.65.65,0,0,1-.16-.38l-.23-1.82-.43,5.29a.59.59,0,0,1-.19.38.56.56,0,0,1-.39.15.6.6,0,0,1-.4-.15.56.56,0,0,1-.2-.38V78l-.35-4.38-.3,4.13a.72.72,0,0,1-.22.38.56.56,0,0,1-.39.15.6.6,0,0,1-.4-.15.56.56,0,0,1-.2-.38v-.08L128,72.74l-.33,5.42v.08a.63.63,0,0,1-.18.44.58.58,0,0,1-.86,0,.63.63,0,0,1-.18-.44v-.05l-.33-5-.3,4.83v.08a.72.72,0,0,1-.22.38.56.56,0,0,1-.39.15.6.6,0,0,1-.41-.15.56.56,0,0,1-.2-.38V78h0v-.08l-.35-5.06-.28,3.24a.57.57,0,0,1-.2.38.61.61,0,0,1-.41.15.59.59,0,0,1-.39-.14.65.65,0,0,1-.22-.37l-.63-4.35-.08.15a.56.56,0,0,1-.56.33h-2.94V71h2.56l.78-1.59a.53.53,0,0,1,.62-.34.56.56,0,0,1,.52.49l.18,1.16.48-5.59a.61.61,0,1,1,1.21,0v.1l.28,3.95.38-5.29v-.08a.59.59,0,0,1,.19-.38.56.56,0,0,1,.39-.15.61.61,0,0,1,.4.15.57.57,0,0,1,.2.38v.08l.3,4.61.35-5.59v-.1a.5.5,0,0,1,.16-.38A.68.68,0,0,1,127.94,62.29Z"/><path class="d" d="M170.21,56.69a13.51,13.51,0,0,0-10,4.11,13.86,13.86,0,0,0-4.19,10.06A14.29,14.29,0,0,0,170.21,85a14,14,0,0,0,10.15-4.22,13.45,13.45,0,0,0,4-10,14,14,0,0,0-14.19-14.17Zm0,2.55a11.62,11.62,0,0,1,11.6,11.62A10.81,10.81,0,0,1,178.51,79a11.38,11.38,0,0,1-8.27,3.47,11.55,11.55,0,0,1-8.16-19.81A11,11,0,0,1,170.25,59.24Z"/><path class="b" d="M176.37,71a.66.66,0,0,0-.61.41l-.23.54-.63-5.31a.66.66,0,0,0-1.32,0l-.24,2.94-.3-3.93a.66.66,0,0,0-1.32,0l-.2,2.57-.34-5.39a.66.66,0,0,0-1.33,0l-.29,4.78-.25-3.79a.66.66,0,0,0-1.33,0l-.3,4.58-.24-3.26a.66.66,0,0,0-1.32,0l-.44,5.13-.1-.7a.66.66,0,0,0-1.26-.19L163.57,71h-2.51v1.33H164a.67.67,0,0,0,.59-.36l.61,4.18a.66.66,0,0,0,1.32,0l.21-2.49.32,4.48a.66.66,0,0,0,1.33,0l.27-4,.27,4.19a.66.66,0,0,0,1.33,0l.28-4.6.26,4.1a.66.66,0,0,0,1.32,0l.26-3.35.28,3.68a.66.66,0,0,0,1.32,0l.39-4.74.15,1.28a.66.66,0,0,0,1.27.18l1-2.48h2.89V71Zm-4.46.3h-1.25v1.25a.43.43,0,1,1-.86,0V71.29h-1.25a.43.43,0,1,1,0-.85h1.25V69.18a.43.43,0,0,1,.86,0v1.25h1.25a.43.43,0,1,1,0,.85Z"/><path class="b" d="M212.72,56.69a14.09,14.09,0,0,1,14.2,14.17,13.5,13.5,0,0,1-4,10A14,14,0,0,1,212.72,85a14.26,14.26,0,0,1-14.15-14.17,13.86,13.86,0,0,1,4.18-10A13.58,13.58,0,0,1,212.72,56.69Zm.05,2.56a11,11,0,0,0-8.17,3.42,11.32,11.32,0,0,0-3.47,8.2A11.08,11.08,0,0,0,204.57,79a11.2,11.2,0,0,0,8.2,3.44A11.38,11.38,0,0,0,221,79a10.85,10.85,0,0,0,3.34-8.12,11.62,11.62,0,0,0-11.59-11.62Zm5.77,7.57a.78.78,0,0,1,.78.78V78a.78.78,0,0,1-.78.78h-7.72A.78.78,0,0,1,210,78V74.94H207a.78.78,0,0,1-.78-.78V63.73a.73.73,0,0,1,.2-.52.87.87,0,0,1,.51-.27h7.8a.78.78,0,0,1,.78.78v3.09ZM207.71,73.4H210V67.6a.73.73,0,0,1,.2-.52.86.86,0,0,1,.48-.27h3.19v-2.3h-6.2Zm10.07-5h-6.2v8.88h6.2Z"/><path class="b" d="M255.27,62.71c-4.68,0-5.86,4.42-5.86,8.16S250.59,79,255.27,79s5.86-4.41,5.86-8.16S259.95,62.71,255.27,62.71Zm-2.52,8.16c0-1.65.11-5.08,2.52-5.08a2.16,2.16,0,0,1,.53.07A.89.89,0,0,1,256,67.1l-3.12,5.73A15.18,15.18,0,0,1,252.75,70.87Zm2.52,5.08a2.17,2.17,0,0,1-.53-.06l-.09,0-.15,0c-.54-.23-.87-.64-.39-1.37l3.48-6a13.58,13.58,0,0,1,.19,2.44C257.79,72.51,257.67,75.95,255.27,75.95Z"/><path class="b" d="M268.41,65.42a13.58,13.58,0,0,0-3-4.58,13.85,13.85,0,0,0-10.13-4.15,13.38,13.38,0,0,0-9.95,4.12,14.38,14.38,0,0,0-3.14,4.66,14.21,14.21,0,0,0,0,10.78,14.34,14.34,0,0,0,3.09,4.61A14.72,14.72,0,0,0,249.85,84a14.18,14.18,0,0,0,10.84,0,14.54,14.54,0,0,0,4.7-3.14,12.88,12.88,0,0,0,3-4.48,15,15,0,0,0,0-10.92ZM259.7,81.55a11.31,11.31,0,0,1-4.4.88,11.52,11.52,0,0,1-4.41-.86A12,12,0,0,1,247.12,79a12.1,12.1,0,0,1-2.58-3.77,11.29,11.29,0,0,1,0-8.8,12.33,12.33,0,0,1,2.58-3.82,11,11,0,0,1,8.18-3.39,11.2,11.2,0,0,1,8.22,3.41A11.37,11.37,0,0,1,266,66.41a11.64,11.64,0,0,1,.86,4.46A10.88,10.88,0,0,1,263.57,79,12.19,12.19,0,0,1,259.7,81.55Z"/><path class="b" d="M297.76,56.69a13.83,13.83,0,0,1,10.12,4.15,13.63,13.63,0,0,1,3,4.57,14.94,14.94,0,0,1,0,10.91,13,13,0,0,1-3,4.49A14.56,14.56,0,0,1,303.2,84,14.11,14.11,0,0,1,297.76,85,13.78,13.78,0,0,1,292.38,84a14.59,14.59,0,0,1-7.71-7.71,14.15,14.15,0,0,1,0-10.79,14.22,14.22,0,0,1,3.13-4.64A13.4,13.4,0,0,1,297.76,56.69Zm.05,2.56a11,11,0,0,0-8.17,3.39,12.19,12.19,0,0,0-2.57,3.81,11.24,11.24,0,0,0,0,8.81,12,12,0,0,0,6.34,6.3,11.5,11.5,0,0,0,8.82,0A12.23,12.23,0,0,0,306.09,79a10.89,10.89,0,0,0,3.32-8.12,11.64,11.64,0,0,0-.86-4.45A11.34,11.34,0,0,0,306,62.67,11.21,11.21,0,0,0,297.81,59.25Zm-.18,9.26-1.9,1a1.94,1.94,0,0,0-.75-.89,1.68,1.68,0,0,0-.82-.25q-1.9,0-1.9,2.51a3.11,3.11,0,0,0,.48,1.82,1.62,1.62,0,0,0,1.42.68,1.77,1.77,0,0,0,1.75-1.22l1.75.89a4.37,4.37,0,0,1-6.78,1.06,5,5,0,0,1,0-6.45,4.42,4.42,0,0,1,6.74.86Zm8.17,0-1.87,1a1.94,1.94,0,0,0-.75-.89,1.72,1.72,0,0,0-.85-.25q-1.9,0-1.9,2.51a3.11,3.11,0,0,0,.48,1.82,1.62,1.62,0,0,0,1.42.68,1.77,1.77,0,0,0,1.75-1.22l1.77.89a4.35,4.35,0,0,1-1.57,1.63,4.45,4.45,0,0,1-5.23-.57,5.05,5.05,0,0,1,0-6.45,4,4,0,0,1,3-1.19A3.92,3.92,0,0,1,305.81,68.51Z"/><path class="b" d="M340.28,56.69a14,14,0,0,1,14.2,14.17,13.36,13.36,0,0,1-4,9.95A14,14,0,0,1,340.28,85a14.26,14.26,0,0,1-14.15-14.17,13.89,13.89,0,0,1,4.18-10.07A13.57,13.57,0,0,1,340.28,56.69Zm.05,2.56a11,11,0,0,0-8.17,3.39,11.4,11.4,0,0,0-3.47,8.23,11.75,11.75,0,0,0,11.64,11.59A11.38,11.38,0,0,0,348.58,79a10.79,10.79,0,0,0,3.34-8.12,11.58,11.58,0,0,0-11.59-11.62Zm3.8,8.1v5.8h-1.62V80h-4.4V73.14h-1.62v-5.8a.91.91,0,0,1,.91-.91h5.82a.89.89,0,0,1,.63.27A.86.86,0,0,1,344.13,67.35Zm-5.8-3.64a2,2,0,1,1,2,2A1.76,1.76,0,0,1,338.33,63.7Z"/><path class="b" d="M392.89,60.8a13.71,13.71,0,0,0-10.08-4.11,13.51,13.51,0,0,0-10,4.11,13.86,13.86,0,0,0-4.19,10.06A14.29,14.29,0,0,0,382.81,85,14,14,0,0,0,393,80.82a13.45,13.45,0,0,0,4-10A13.68,13.68,0,0,0,392.89,60.8ZM374.65,79a11.13,11.13,0,0,1-3.44-8.15,11.42,11.42,0,0,1,.52-3.44L379,70.65h-1.6v2.21h3.32l.32.67V74.6h-3.64v2.21H381V80h3.53v-3.2h3.67v-2l4.63,2.06A11,11,0,0,1,391.11,79a11.37,11.37,0,0,1-8.27,3.47A11.2,11.2,0,0,1,374.65,79Zm8.2-19.77a11.62,11.62,0,0,1,11.6,11.62,12.15,12.15,0,0,1-.45,3.37l-5.77-2.57v-1H386l3.6-6.63h-3.76l-2.48,5.49-1.32-.59L379.8,64H376l1.56,2.91-4.68-2.08a13,13,0,0,1,1.77-2.21A11,11,0,0,1,382.85,59.24Z"/><path class="b" d="M435.4,60.8a13.71,13.71,0,0,0-10.08-4.11,13.51,13.51,0,0,0-10,4.11,13.86,13.86,0,0,0-4.19,10.06A14.29,14.29,0,0,0,425.33,85a14,14,0,0,0,10.15-4.22,13.45,13.45,0,0,0,4-10A13.67,13.67,0,0,0,435.4,60.8ZM433.63,79a11.37,11.37,0,0,1-8.27,3.47,11.74,11.74,0,0,1-11.64-11.59,11.32,11.32,0,0,1,.62-3.77l3.76,1.66h-.27v1.68h1.33c0,.24,0,.48,0,.71v.4h-1.31v1.68h1.54a6.69,6.69,0,0,0,1.33,3.08A7.14,7.14,0,0,0,426.5,79a8,8,0,0,0,3.7-.9l-.57-2.63a6.58,6.58,0,0,1-2.7.62,4,4,0,0,1-3.06-1.21,3.73,3.73,0,0,1-.78-1.66h5.16l7.33,3.24A11,11,0,0,1,433.63,79Zm-9.22-7.42,0,0,.05,0Zm4.41-1.12H429V68.76h-4L423.39,68a3.26,3.26,0,0,1,.5-.82,3.61,3.61,0,0,1,2.92-1.28,7,7,0,0,1,2.63.57l.66-2.71a9,9,0,0,0-3.56-.71,6.93,6.93,0,0,0-6.28,3.57l-4.66-2.06a13,13,0,0,1,1.6-1.95,11,11,0,0,1,8.16-3.4A11.62,11.62,0,0,1,437,70.87a12.34,12.34,0,0,1-.36,3Z"/><path class="b" d="M467.84,56.69A14,14,0,0,1,482,70.87a13.36,13.36,0,0,1-4,9.95A14,14,0,0,1,467.84,85a14.3,14.3,0,0,1-14.15-14.17,13.89,13.89,0,0,1,4.18-10.07A13.57,13.57,0,0,1,467.84,56.69ZM456.88,67a11.51,11.51,0,0,0,2.81,12A11.55,11.55,0,0,0,476.14,79a10.4,10.4,0,0,0,1.95-2.48l-5.34-2.38a3.65,3.65,0,0,1-1.35,2.19,4.66,4.66,0,0,1-2.54,1v2.18h-1.65V77.27a6.57,6.57,0,0,1-4.3-1.7l1.95-2A4.53,4.53,0,0,0,468,74.89a2.29,2.29,0,0,0,1.25-.33,1.19,1.19,0,0,0,.52-1.09,1.08,1.08,0,0,0-.38-.86L468,72l-1.67-.76-2.25-1Zm11-7.82a11,11,0,0,0-8.17,3.42,13.59,13.59,0,0,0-1.57,1.9L463.56,67a3.33,3.33,0,0,1,1.34-1.78,4.48,4.48,0,0,1,2.3-.75V62.26h1.65v2.18a6.27,6.27,0,0,1,3.54,1.32l-1.85,1.9a4.19,4.19,0,0,0-2.43-.84,2.65,2.65,0,0,0-1.18.25.88.88,0,0,0-.52.86.6.6,0,0,0,.13.35l1.8.81,1.24.56,2.28,1,7.26,3.24a13.12,13.12,0,0,0,.35-3,11.62,11.62,0,0,0-11.59-11.64Z"/><path class="b" d="M510.36,56.69a14.09,14.09,0,0,1,14.2,14.17,13.5,13.5,0,0,1-4,10A14,14,0,0,1,510.36,85a14.26,14.26,0,0,1-14.15-14.17,13.86,13.86,0,0,1,4.18-10A13.58,13.58,0,0,1,510.36,56.69Zm.05,2.56a11,11,0,0,0-8.17,3.42,11.32,11.32,0,0,0-3.47,8.2A11.08,11.08,0,0,0,502.21,79a11.2,11.2,0,0,0,8.2,3.44A11.38,11.38,0,0,0,518.66,79,10.85,10.85,0,0,0,522,70.87a11.62,11.62,0,0,0-11.59-11.62Zm5.34,8.28V70h-10.3V67.53Zm0,4.56v2.43h-10.3V72.08Z"/><path class="b" d="M552.88,56.69a14,14,0,0,1,14.2,14.17,13.41,13.41,0,0,1-4,9.95A14,14,0,0,1,552.88,85a14.28,14.28,0,0,1-14.15-14.17,13.89,13.89,0,0,1,4.18-10.07A13.57,13.57,0,0,1,552.88,56.69Zm0,2.56a11,11,0,0,0-8.16,3.39,11.35,11.35,0,0,0-3.47,8.23,11.75,11.75,0,0,0,11.64,11.59A11.32,11.32,0,0,0,561.18,79a10.85,10.85,0,0,0,3.34-8.12,11.58,11.58,0,0,0-11.6-11.62Zm-6.67,15.46V66.87h3.9q2.88,0,2.89,2.66a2.75,2.75,0,0,1-.14.87,2.67,2.67,0,0,1-.48.84,2.43,2.43,0,0,1-1,.68,4.47,4.47,0,0,1-1.62.27h-1.54v2.53Zm1.95-6.38v2.38h1.67a1.16,1.16,0,0,0,.91-.34,1.23,1.23,0,0,0,.3-.85q0-1.19-1.27-1.19Zm5.37,6.38V66.87h3a4.22,4.22,0,0,1,2.94,1,4.66,4.66,0,0,1,0,5.92,4.22,4.22,0,0,1-2.94,1Zm1.95-6.2v4.56h1.14a1.76,1.76,0,0,0,1.51-.62,3.17,3.17,0,0,0,0-3.32,1.8,1.8,0,0,0-1.53-.62Z"/></g><g class="a"><path class="d" d="M21.39,99.21a13.51,13.51,0,0,0-10,4.11,13.86,13.86,0,0,0-4.19,10.06,13.62,13.62,0,0,0,4.19,10,13.62,13.62,0,0,0,10,4.18,14,14,0,0,0,10.15-4.22,13.45,13.45,0,0,0,4-10,13.68,13.68,0,0,0-4.12-10.06A13.71,13.71,0,0,0,21.39,99.21Zm0,2.55a11.11,11.11,0,0,1,8.2,3.4,11.12,11.12,0,0,1,3.4,8.22,10.81,10.81,0,0,1-3.33,8.11A11.38,11.38,0,0,1,21.43,125a11.2,11.2,0,0,1-8.19-3.44,11.13,11.13,0,0,1-3.44-8.15,11.3,11.3,0,0,1,3.48-8.22A11,11,0,0,1,21.43,101.76Z"/><path class="b" d="M27.55,113.51a.66.66,0,0,0-.61.41l-.23.54-.63-5.31a.66.66,0,0,0-1.32,0l-.24,2.94-.3-3.93a.66.66,0,0,0-1.32,0l-.2,2.57-.34-5.39a.66.66,0,0,0-1.33,0l-.29,4.78-.25-3.79a.66.66,0,0,0-1.33,0l-.3,4.58-.24-3.26a.66.66,0,0,0-1.32,0l-.44,5.13-.1-.7a.66.66,0,0,0-1.26-.19l-.75,1.58H12.24v1.33h2.93a.67.67,0,0,0,.59-.36l.61,4.18a.66.66,0,0,0,1.32,0l.21-2.49.32,4.48a.66.66,0,0,0,1.33,0l.27-4,.27,4.19a.66.66,0,0,0,1.33,0l.28-4.6.26,4.1a.66.66,0,0,0,1.32,0l.26-3.35.28,3.68a.66.66,0,0,0,1.32,0l.39-4.74.15,1.28a.66.66,0,0,0,1.27.18l1-2.48h2.89v-1.33Zm-4.46.3H21.84v1.25a.43.43,0,1,1-.86,0v-1.25H19.73a.43.43,0,1,1,0-.85H21V111.7a.43.43,0,0,1,.86,0V113h1.25a.43.43,0,1,1,0,.85Z"/><path class="b" d="M63.9,99.21a14.09,14.09,0,0,1,14.2,14.17,13.5,13.5,0,0,1-4,10,14,14,0,0,1-10.15,4.2,14.26,14.26,0,0,1-14.15-14.17,13.86,13.86,0,0,1,4.18-10A13.58,13.58,0,0,1,63.9,99.21Zm.05,2.56a11,11,0,0,0-8.17,3.42,11.32,11.32,0,0,0-3.47,8.2,11.08,11.08,0,0,0,3.44,8.15A11.2,11.2,0,0,0,64,125a11.38,11.38,0,0,0,8.25-3.47,10.85,10.85,0,0,0,3.34-8.12A11.62,11.62,0,0,0,64,101.77Zm5.77,7.57a.78.78,0,0,1,.78.78v10.43a.78.78,0,0,1-.78.78H62a.78.78,0,0,1-.78-.78v-3.09H58.13a.78.78,0,0,1-.78-.78V106.25a.73.73,0,0,1,.2-.52.87.87,0,0,1,.51-.27h7.8a.78.78,0,0,1,.78.78v3.09Zm-10.83,6.58h2.33v-5.8a.73.73,0,0,1,.2-.52.86.86,0,0,1,.48-.27h3.19V107h-6.2Zm10.07-5h-6.2v8.88H69Z"/><path class="b" d="M106.45,105.23c-4.68,0-5.86,4.42-5.86,8.16s1.18,8.16,5.86,8.16,5.86-4.41,5.86-8.16S111.13,105.23,106.45,105.23Zm-2.52,8.16c0-1.65.11-5.08,2.52-5.08a2.16,2.16,0,0,1,.53.07.89.89,0,0,1,.18,1.25L104,115.35A15.18,15.18,0,0,1,103.93,113.39Zm2.52,5.08a2.17,2.17,0,0,1-.53-.06l-.09,0-.15,0c-.54-.23-.87-.64-.39-1.37l3.48-6a13.58,13.58,0,0,1,.19,2.44C109,115,108.86,118.47,106.45,118.47Z"/><path class="b" d="M119.59,107.94a13.58,13.58,0,0,0-3-4.58,13.85,13.85,0,0,0-10.13-4.15,13.38,13.38,0,0,0-9.95,4.12A14.38,14.38,0,0,0,93.34,108a14.21,14.21,0,0,0,0,10.78,14.34,14.34,0,0,0,3.09,4.61A14.72,14.72,0,0,0,101,126.5a14.18,14.18,0,0,0,10.84,0,14.54,14.54,0,0,0,4.7-3.14,12.88,12.88,0,0,0,3-4.48,15,15,0,0,0,0-10.92Zm-8.71,16.13a11.31,11.31,0,0,1-4.4.88,11.52,11.52,0,0,1-4.41-.86,12,12,0,0,1-3.77-2.53,12.1,12.1,0,0,1-2.58-3.77,11.29,11.29,0,0,1,0-8.8,12.33,12.33,0,0,1,2.58-3.82,11,11,0,0,1,8.18-3.39,11.2,11.2,0,0,1,8.22,3.41,11.37,11.37,0,0,1,2.51,3.75,11.64,11.64,0,0,1,.86,4.46,10.88,10.88,0,0,1-3.32,8.12A12.19,12.19,0,0,1,110.88,124.07Z"/><path class="b" d="M148.94,99.21a13.83,13.83,0,0,1,10.12,4.15,13.63,13.63,0,0,1,3,4.57,14.94,14.94,0,0,1,0,10.91,13,13,0,0,1-3,4.49,14.56,14.56,0,0,1-4.71,3.14,14.11,14.11,0,0,1-5.44,1.09,13.78,13.78,0,0,1-5.38-1.08,14.59,14.59,0,0,1-7.71-7.71,14.15,14.15,0,0,1,0-10.79,14.22,14.22,0,0,1,3.13-4.64A13.4,13.4,0,0,1,148.94,99.21Zm.05,2.56a11,11,0,0,0-8.17,3.39,12.19,12.19,0,0,0-2.57,3.81,11.24,11.24,0,0,0,0,8.81,12,12,0,0,0,6.34,6.3,11.5,11.5,0,0,0,8.82,0,12.23,12.23,0,0,0,3.86-2.56,10.89,10.89,0,0,0,3.32-8.12,11.64,11.64,0,0,0-.86-4.45,11.34,11.34,0,0,0-2.51-3.75A11.21,11.21,0,0,0,149,101.77Zm-.18,9.26-1.9,1a1.94,1.94,0,0,0-.75-.89,1.68,1.68,0,0,0-.82-.25q-1.9,0-1.9,2.51a3.11,3.11,0,0,0,.48,1.82,1.62,1.62,0,0,0,1.42.68,1.77,1.77,0,0,0,1.75-1.22l1.75.89a4.37,4.37,0,0,1-6.78,1.06,5,5,0,0,1,0-6.45,4.42,4.42,0,0,1,6.74.86Zm8.17,0-1.87,1a1.94,1.94,0,0,0-.75-.89,1.72,1.72,0,0,0-.85-.25q-1.9,0-1.9,2.51a3.11,3.11,0,0,0,.48,1.82,1.62,1.62,0,0,0,1.42.68,1.77,1.77,0,0,0,1.75-1.22l1.77.89a4.35,4.35,0,0,1-1.57,1.63,4.45,4.45,0,0,1-5.23-.57,5.05,5.05,0,0,1,0-6.45,4,4,0,0,1,3-1.19A3.92,3.92,0,0,1,157,111Z"/><path class="b" d="M191.46,99.21a14,14,0,0,1,14.2,14.17,13.36,13.36,0,0,1-4,9.95,14,14,0,0,1-10.15,4.23,14.26,14.26,0,0,1-14.15-14.17,13.89,13.89,0,0,1,4.18-10.07A13.57,13.57,0,0,1,191.46,99.21Zm.05,2.56a11,11,0,0,0-8.17,3.39,11.4,11.4,0,0,0-3.47,8.23A11.75,11.75,0,0,0,191.51,125a11.38,11.38,0,0,0,8.25-3.47,10.79,10.79,0,0,0,3.34-8.12,11.58,11.58,0,0,0-11.59-11.62Zm3.8,8.1v5.8h-1.62v6.88h-4.4v-6.88h-1.62v-5.8a.91.91,0,0,1,.91-.91h5.82a.89.89,0,0,1,.63.27A.86.86,0,0,1,195.31,109.87Zm-5.8-3.64a2,2,0,1,1,2,2A1.76,1.76,0,0,1,189.51,106.22Z"/><path class="b" d="M244.07,103.32A13.71,13.71,0,0,0,234,99.21a13.51,13.51,0,0,0-10,4.11,13.86,13.86,0,0,0-4.19,10.06A14.29,14.29,0,0,0,234,127.56a14,14,0,0,0,10.15-4.22,13.45,13.45,0,0,0,4-10A13.68,13.68,0,0,0,244.07,103.32Zm-18.24,18.21a11.13,11.13,0,0,1-3.44-8.15,11.42,11.42,0,0,1,.52-3.44l7.26,3.23h-1.6v2.21h3.32l.32.67v1.07h-3.64v2.21h3.64v3.2h3.53v-3.2h3.67v-2l4.63,2.06a11,11,0,0,1-1.74,2.15A11.37,11.37,0,0,1,234,125,11.2,11.2,0,0,1,225.83,121.53Zm8.2-19.77a11.62,11.62,0,0,1,11.6,11.62,12.15,12.15,0,0,1-.45,3.37l-5.77-2.57v-1H237.2l3.6-6.63H237L234.56,112l-1.32-.59-2.26-4.9h-3.76l1.56,2.91-4.68-2.08a13,13,0,0,1,1.77-2.21A11,11,0,0,1,234,101.76Z"/><path class="b" d="M286.59,103.32a13.71,13.71,0,0,0-10.08-4.11,13.51,13.51,0,0,0-10,4.11,13.86,13.86,0,0,0-4.19,10.06,14.29,14.29,0,0,0,14.15,14.17,14,14,0,0,0,10.15-4.22,13.45,13.45,0,0,0,4-10A13.67,13.67,0,0,0,286.59,103.32Zm-1.77,18.18a11.37,11.37,0,0,1-8.27,3.47,11.74,11.74,0,0,1-11.64-11.59,11.32,11.32,0,0,1,.62-3.77l3.76,1.66H269V113h1.33c0,.24,0,.48,0,.71v.4H269v1.68h1.54a6.69,6.69,0,0,0,1.33,3.08,7.14,7.14,0,0,0,5.79,2.7,8,8,0,0,0,3.7-.9l-.57-2.63a6.58,6.58,0,0,1-2.7.62,4,4,0,0,1-3.06-1.21,3.73,3.73,0,0,1-.78-1.66h5.16l7.33,3.24A11,11,0,0,1,284.81,121.5Zm-9.22-7.42,0,0,.05,0ZM280,113h.21v-1.68h-4l-1.63-.72a3.26,3.26,0,0,1,.5-.82,3.61,3.61,0,0,1,2.92-1.28,7,7,0,0,1,2.63.57l.66-2.71a9,9,0,0,0-3.56-.71,6.93,6.93,0,0,0-6.28,3.57l-4.66-2.06a13,13,0,0,1,1.6-1.95,11,11,0,0,1,8.16-3.4,11.62,11.62,0,0,1,11.6,11.62,12.34,12.34,0,0,1-.36,3Z"/><path class="b" d="M319,99.21a14,14,0,0,1,14.2,14.17,13.36,13.36,0,0,1-4,9.95A14,14,0,0,1,319,127.56a14.3,14.3,0,0,1-14.15-14.17,13.89,13.89,0,0,1,4.18-10.07A13.57,13.57,0,0,1,319,99.21Zm-11,10.35a11.51,11.51,0,0,0,2.81,12,11.55,11.55,0,0,0,16.45-.05,10.4,10.4,0,0,0,1.95-2.48l-5.34-2.38a3.65,3.65,0,0,1-1.35,2.19,4.66,4.66,0,0,1-2.54,1V122h-1.65v-2.18a6.57,6.57,0,0,1-4.3-1.7l1.95-2a4.53,4.53,0,0,0,3.16,1.29,2.29,2.29,0,0,0,1.25-.33A1.19,1.19,0,0,0,321,116a1.08,1.08,0,0,0-.38-.86l-1.37-.58-1.67-.76-2.25-1Zm11-7.82a11,11,0,0,0-8.17,3.42,13.59,13.59,0,0,0-1.57,1.9l5.42,2.43a3.33,3.33,0,0,1,1.34-1.78,4.48,4.48,0,0,1,2.3-.75v-2.18H320V107a6.27,6.27,0,0,1,3.54,1.32l-1.85,1.9a4.19,4.19,0,0,0-2.43-.84,2.65,2.65,0,0,0-1.18.25.88.88,0,0,0-.52.86.6.6,0,0,0,.13.35l1.8.81,1.24.56,2.28,1,7.26,3.24a13.12,13.12,0,0,0,.35-3,11.62,11.62,0,0,0-11.59-11.64Z"/><path class="b" d="M361.54,99.21a14.09,14.09,0,0,1,14.2,14.17,13.5,13.5,0,0,1-4,10,14,14,0,0,1-10.15,4.2,14.26,14.26,0,0,1-14.15-14.17,13.86,13.86,0,0,1,4.18-10A13.58,13.58,0,0,1,361.54,99.21Zm.05,2.56a11,11,0,0,0-8.17,3.42,11.32,11.32,0,0,0-3.47,8.2,11.08,11.08,0,0,0,3.44,8.15,11.2,11.2,0,0,0,8.2,3.44,11.38,11.38,0,0,0,8.25-3.47,10.85,10.85,0,0,0,3.34-8.12,11.62,11.62,0,0,0-11.59-11.62Zm5.34,8.28v2.43h-10.3V110Zm0,4.56V117h-10.3V114.6Z"/><path class="b" d="M404.06,99.21a14,14,0,0,1,14.2,14.17,13.41,13.41,0,0,1-4,9.95,14,14,0,0,1-10.15,4.23,14.28,14.28,0,0,1-14.15-14.17,13.89,13.89,0,0,1,4.18-10.07A13.57,13.57,0,0,1,404.06,99.21Zm0,2.56a11,11,0,0,0-8.16,3.39,11.35,11.35,0,0,0-3.47,8.23A11.75,11.75,0,0,0,404.11,125a11.32,11.32,0,0,0,8.25-3.47,10.85,10.85,0,0,0,3.34-8.12,11.58,11.58,0,0,0-11.6-11.62Zm-6.67,15.46v-7.85h3.9q2.88,0,2.89,2.66a2.75,2.75,0,0,1-.14.87,2.67,2.67,0,0,1-.48.84,2.43,2.43,0,0,1-1,.68,4.47,4.47,0,0,1-1.62.27h-1.54v2.53Zm1.95-6.38v2.38h1.67a1.16,1.16,0,0,0,.91-.34,1.23,1.23,0,0,0,.3-.85q0-1.19-1.27-1.19Zm5.37,6.38v-7.85h3a4.22,4.22,0,0,1,2.94,1,4.66,4.66,0,0,1,0,5.92,4.22,4.22,0,0,1-2.94,1Zm1.95-6.2v4.56h1.14a1.76,1.76,0,0,0,1.51-.62,3.17,3.17,0,0,0,0-3.32,1.8,1.8,0,0,0-1.53-.62Z"/><path class="b" d="M446.58,99.21a14.09,14.09,0,0,1,14.2,14.17,13.5,13.5,0,0,1-4,10,14,14,0,0,1-10.15,4.2,14.26,14.26,0,0,1-14.15-14.17,13.86,13.86,0,0,1,4.18-10A13.58,13.58,0,0,1,446.58,99.21Zm.05,2.56a11,11,0,0,0-8.17,3.42,11.32,11.32,0,0,0-3.47,8.2,11.08,11.08,0,0,0,3.44,8.15,11.2,11.2,0,0,0,8.2,3.44,11.38,11.38,0,0,0,8.25-3.47,10.85,10.85,0,0,0,3.34-8.12,11.62,11.62,0,0,0-11.59-11.62Zm9.24,11.87.28.13v4l-.25.13-3.44,1.47-.15.05-.18-.05-7.42-3.06-.25-.1-3.67,1.52-3.62-1.57V112.5l3.39-1.42,0,0v-4l3.85-1.7,8.68,3.59v3.52Zm-4,4.66v-2.51h0v-.1l-6.5-2.66v2.58l6.5,2.68v0Zm.43-3.29,2.28-.94-2.1-.89-2.23.94Zm3,2.18v-2.46l-2.53,1.06v2.48Z"/><path class="b" d="M489.1,99.21a14.09,14.09,0,0,1,14.2,14.17,13.5,13.5,0,0,1-4,10,14,14,0,0,1-10.15,4.2A14.26,14.26,0,0,1,475,113.39a13.86,13.86,0,0,1,4.18-10A13.58,13.58,0,0,1,489.1,99.21Zm.05,2.56a11,11,0,0,0-8.17,3.42,11.32,11.32,0,0,0-3.47,8.2,11.08,11.08,0,0,0,3.44,8.15,11.2,11.2,0,0,0,8.2,3.44,11.38,11.38,0,0,0,8.25-3.47,10.85,10.85,0,0,0,3.34-8.12,11.62,11.62,0,0,0-11.59-11.62Zm-6.33,9.62a6.33,6.33,0,0,1,2.1-4,6.19,6.19,0,0,1,4.13-1.43,6.86,6.86,0,0,1,5.31,2.15,7.84,7.84,0,0,1,2,5.52,7.58,7.58,0,0,1-2.05,5.43,7,7,0,0,1-5.32,2.16,6.31,6.31,0,0,1-4.15-1.44,6.13,6.13,0,0,1-2.1-4.1h3.57q.13,2.58,3.11,2.58a2.81,2.81,0,0,0,2.4-1.29,7.2,7.2,0,0,0,.08-6.87,2.77,2.77,0,0,0-2.4-1.18q-2.83,0-3.19,2.51h1l-2.81,2.81-2.81-2.81Z"/><path class="b" d="M531.62,99.21a14,14,0,0,1,14.2,14.17,13.41,13.41,0,0,1-4,9.95,14,14,0,0,1-10.15,4.23,14.28,14.28,0,0,1-14.15-14.17,13.89,13.89,0,0,1,4.18-10.07A13.57,13.57,0,0,1,531.62,99.21Zm0,2.56a11,11,0,0,0-8.16,3.39,11.35,11.35,0,0,0-3.47,8.23A11.75,11.75,0,0,0,531.67,125a11.32,11.32,0,0,0,8.25-3.47,10.85,10.85,0,0,0,3.34-8.12,11.58,11.58,0,0,0-11.6-11.62Zm.22,3a.57.57,0,0,1,.44.14.61.61,0,0,1,.22.42v.1l.38,6.12.28-3.39a.61.61,0,1,1,1.21,0v.1l.33,4.56.33-3.67a.59.59,0,0,1,.19-.38.56.56,0,0,1,.39-.15.64.64,0,0,1,.4.14.52.52,0,0,1,.2.37l.66,5.52.3-.73a.57.57,0,0,1,.58-.38h3.32v1.21H538.2l-1,2.53a.55.55,0,0,1-.66.38.56.56,0,0,1-.37-.18.65.65,0,0,1-.16-.38l-.23-1.82-.43,5.29a.59.59,0,0,1-.19.38.56.56,0,0,1-.39.15.6.6,0,0,1-.4-.15.56.56,0,0,1-.2-.38v-.08l-.35-4.38-.3,4.13a.72.72,0,0,1-.22.38.56.56,0,0,1-.39.15.6.6,0,0,1-.4-.15.56.56,0,0,1-.2-.38v-.08l-.33-4.94-.33,5.42v.08a.63.63,0,0,1-.18.44.58.58,0,0,1-.86,0,.63.63,0,0,1-.18-.44v-.05l-.33-5-.3,4.83v.08a.72.72,0,0,1-.22.38.56.56,0,0,1-.39.15.6.6,0,0,1-.41-.15.56.56,0,0,1-.2-.38v-.08h0v-.08l-.35-5.06-.28,3.24a.57.57,0,0,1-.2.38.61.61,0,0,1-.41.15.59.59,0,0,1-.39-.14.65.65,0,0,1-.22-.37L526,114.3l-.08.15a.56.56,0,0,1-.56.33h-2.94v-1.21H525l.78-1.59a.53.53,0,0,1,.62-.34.56.56,0,0,1,.52.49l.18,1.16.48-5.59a.61.61,0,1,1,1.21,0v.1l.28,3.95.38-5.29v-.08a.59.59,0,0,1,.19-.38.56.56,0,0,1,.39-.15.61.61,0,0,1,.4.15.57.57,0,0,1,.2.38v.08l.3,4.61.35-5.59v-.1a.5.5,0,0,1,.16-.38A.68.68,0,0,1,531.87,104.81Z"/></g><g class="a"><path class="b" d="M.13,141.73a13.71,13.71,0,0,1,10.07,4.13,13.62,13.62,0,0,1,4.13,10,13.5,13.5,0,0,1-4,10,14,14,0,0,1-10.15,4.2,13.72,13.72,0,0,1-10-4.18,13.64,13.64,0,0,1-4.18-10,13.86,13.86,0,0,1,4.18-10A13.58,13.58,0,0,1,.13,141.73Zm.05,2.56A11,11,0,0,0-8,147.71a11.32,11.32,0,0,0-3.47,8.2A11.08,11.08,0,0,0-8,164.06a11.2,11.2,0,0,0,8.2,3.44A11.38,11.38,0,0,0,8.43,164a10.85,10.85,0,0,0,3.34-8.12,11.06,11.06,0,0,0-3.39-8.2A11.08,11.08,0,0,0,.18,144.29Zm-6.33,9.62a6.33,6.33,0,0,1,2.1-4,6.19,6.19,0,0,1,4.13-1.43,6.86,6.86,0,0,1,5.31,2.15,7.84,7.84,0,0,1,2,5.52,7.58,7.58,0,0,1-2.05,5.43A7,7,0,0,1,0,163.7a6.31,6.31,0,0,1-4.15-1.44,6.13,6.13,0,0,1-2.1-4.1h3.57q.13,2.58,3.11,2.58a2.81,2.81,0,0,0,2.4-1.29A5.86,5.86,0,0,0,3.74,156a5.9,5.9,0,0,0-.84-3.43A2.77,2.77,0,0,0,.5,151.4q-2.83,0-3.19,2.51h1l-2.81,2.81-2.81-2.81Z"/><path class="b" d="M42.64,141.73a14,14,0,0,1,14.2,14.17,13.41,13.41,0,0,1-4,9.95,14,14,0,0,1-10.15,4.23A14.28,14.28,0,0,1,28.5,155.91a13.89,13.89,0,0,1,4.18-10.07A13.57,13.57,0,0,1,42.64,141.73Zm0,2.56a11,11,0,0,0-8.16,3.39,11.35,11.35,0,0,0-3.47,8.23A11.75,11.75,0,0,0,42.7,167.5,11.32,11.32,0,0,0,50.95,164a10.85,10.85,0,0,0,3.34-8.12,11.58,11.58,0,0,0-11.6-11.62Zm.22,3a.57.57,0,0,1,.44.14.61.61,0,0,1,.22.42v.1l.38,6.12.28-3.39a.61.61,0,1,1,1.21,0v.1l.33,4.56.33-3.67a.59.59,0,0,1,.19-.38.56.56,0,0,1,.39-.15.64.64,0,0,1,.4.14.52.52,0,0,1,.2.37l.66,5.52.3-.73a.57.57,0,0,1,.58-.38h3.32v1.21H49.23l-1,2.53a.55.55,0,0,1-.66.38.56.56,0,0,1-.37-.18.65.65,0,0,1-.16-.38l-.23-1.82-.43,5.29a.59.59,0,0,1-.19.38.56.56,0,0,1-.39.15.6.6,0,0,1-.4-.15.56.56,0,0,1-.2-.38V163l-.35-4.38-.3,4.13a.72.72,0,0,1-.22.38.56.56,0,0,1-.39.15.6.6,0,0,1-.4-.15.56.56,0,0,1-.2-.38v-.08l-.33-4.94-.33,5.42v.08a.63.63,0,0,1-.18.44.58.58,0,0,1-.86,0,.63.63,0,0,1-.18-.44v-.05l-.33-5-.3,4.83v.08a.72.72,0,0,1-.22.38.56.56,0,0,1-.39.15.6.6,0,0,1-.41-.15.56.56,0,0,1-.2-.38V163h0V163l-.35-5.06-.28,3.24a.57.57,0,0,1-.2.38.61.61,0,0,1-.41.15.59.59,0,0,1-.39-.14.65.65,0,0,1-.22-.37l-.63-4.35L37,157a.56.56,0,0,1-.56.33H33.48v-1.21H36l.78-1.59a.53.53,0,0,1,.62-.34.56.56,0,0,1,.52.49l.18,1.16.48-5.59a.61.61,0,1,1,1.21,0v.1l.28,3.95.38-5.29v-.08a.59.59,0,0,1,.19-.38.56.56,0,0,1,.39-.15.61.61,0,0,1,.4.15.57.57,0,0,1,.2.38V149l.3,4.61.35-5.59v-.1a.5.5,0,0,1,.16-.38A.68.68,0,0,1,42.9,147.33Z"/><path class="d" d="M85.17,141.73a13.51,13.51,0,0,0-10,4.11A13.86,13.86,0,0,0,71,155.91a14.29,14.29,0,0,0,14.16,14.17,14,14,0,0,0,10.15-4.22,13.45,13.45,0,0,0,4-10,14,14,0,0,0-14.19-14.17Zm0,2.55a11.62,11.62,0,0,1,11.6,11.62A10.81,10.81,0,0,1,93.47,164a11.38,11.38,0,0,1-8.27,3.47A11.55,11.55,0,0,1,77,147.68,11,11,0,0,1,85.21,144.28Z"/><path class="b" d="M91.33,156a.66.66,0,0,0-.61.41l-.23.54-.63-5.31a.66.66,0,0,0-1.32,0l-.24,2.94-.3-3.93a.66.66,0,0,0-1.32,0l-.2,2.57-.34-5.39a.66.66,0,0,0-1.33,0l-.29,4.78-.25-3.79a.66.66,0,0,0-1.33,0l-.3,4.58-.24-3.26a.66.66,0,0,0-1.32,0l-.44,5.13-.1-.7a.66.66,0,0,0-1.26-.19L78.53,156H76v1.33h2.93a.67.67,0,0,0,.59-.36l.61,4.18a.66.66,0,0,0,1.32,0l.21-2.49.32,4.48a.66.66,0,0,0,1.33,0l.27-4,.27,4.19a.66.66,0,0,0,1.33,0l.28-4.6.26,4.1a.66.66,0,0,0,1.32,0l.26-3.35.28,3.68a.66.66,0,0,0,1.32,0l.39-4.74.15,1.28a.66.66,0,0,0,1.27.18l1-2.48h2.89V156Zm-4.46.3H85.62v1.25a.43.43,0,1,1-.86,0v-1.25H83.51a.43.43,0,1,1,0-.85h1.25v-1.25a.43.43,0,0,1,.86,0v1.25h1.25a.43.43,0,1,1,0,.85Z"/><path class="b" d="M127.68,141.73a14.09,14.09,0,0,1,14.2,14.17,13.5,13.5,0,0,1-4,10,14,14,0,0,1-10.15,4.2,14.26,14.26,0,0,1-14.15-14.17,13.86,13.86,0,0,1,4.18-10A13.58,13.58,0,0,1,127.68,141.73Zm.05,2.56a11,11,0,0,0-8.17,3.42,11.32,11.32,0,0,0-3.47,8.2,11.08,11.08,0,0,0,3.44,8.15,11.2,11.2,0,0,0,8.2,3.44A11.38,11.38,0,0,0,136,164a10.85,10.85,0,0,0,3.34-8.12,11.62,11.62,0,0,0-11.59-11.62Zm5.77,7.57a.78.78,0,0,1,.78.78v10.43a.78.78,0,0,1-.78.78h-7.72a.78.78,0,0,1-.78-.78V160h-3.09a.78.78,0,0,1-.78-.78V148.77a.73.73,0,0,1,.2-.52.87.87,0,0,1,.51-.27h7.8a.78.78,0,0,1,.78.78v3.09Zm-10.83,6.58H125v-5.8a.73.73,0,0,1,.2-.52.86.86,0,0,1,.48-.27h3.19v-2.3h-6.2Zm10.07-5h-6.2v8.88h6.2Z"/><path class="b" d="M170.23,147.75c-4.68,0-5.86,4.42-5.86,8.16s1.18,8.16,5.86,8.16,5.86-4.41,5.86-8.16S174.91,147.75,170.23,147.75Zm-2.52,8.16c0-1.65.11-5.08,2.52-5.08a2.16,2.16,0,0,1,.53.07.89.89,0,0,1,.18,1.25l-3.12,5.73A15.18,15.18,0,0,1,167.71,155.91Zm2.52,5.08a2.17,2.17,0,0,1-.53-.06l-.09,0-.15,0c-.54-.23-.87-.64-.39-1.37l3.48-6a13.58,13.58,0,0,1,.19,2.44C172.75,157.55,172.64,161,170.23,161Z"/><path class="b" d="M183.37,150.46a13.58,13.58,0,0,0-3-4.58,13.85,13.85,0,0,0-10.13-4.15,13.38,13.38,0,0,0-9.95,4.12,14.38,14.38,0,0,0-3.14,4.66,14.21,14.21,0,0,0,0,10.78,14.34,14.34,0,0,0,3.09,4.61,14.72,14.72,0,0,0,4.61,3.12,14.18,14.18,0,0,0,10.84,0,14.54,14.54,0,0,0,4.7-3.14,12.88,12.88,0,0,0,3-4.48,15,15,0,0,0,0-10.92Zm-8.71,16.13a11.31,11.31,0,0,1-4.4.88,11.52,11.52,0,0,1-4.41-.86,12,12,0,0,1-3.77-2.53,12.1,12.1,0,0,1-2.58-3.77,11.29,11.29,0,0,1,0-8.8,12.33,12.33,0,0,1,2.58-3.82,11,11,0,0,1,8.18-3.39,11.2,11.2,0,0,1,8.22,3.41,11.37,11.37,0,0,1,2.51,3.75,11.64,11.64,0,0,1,.86,4.46,10.88,10.88,0,0,1-3.32,8.12A12.19,12.19,0,0,1,174.66,166.59Z"/><path class="b" d="M212.72,141.73a13.83,13.83,0,0,1,10.12,4.15,13.63,13.63,0,0,1,3,4.57,14.94,14.94,0,0,1,0,10.91,13,13,0,0,1-3,4.49,14.56,14.56,0,0,1-4.71,3.14,14.11,14.11,0,0,1-5.44,1.09,13.78,13.78,0,0,1-5.38-1.08,14.59,14.59,0,0,1-7.71-7.71,14.15,14.15,0,0,1,0-10.79,14.22,14.22,0,0,1,3.13-4.64A13.4,13.4,0,0,1,212.72,141.73Zm.05,2.56a11,11,0,0,0-8.17,3.39,12.19,12.19,0,0,0-2.57,3.81,11.24,11.24,0,0,0,0,8.81,12,12,0,0,0,6.34,6.3,11.5,11.5,0,0,0,8.82,0,12.23,12.23,0,0,0,3.86-2.56,10.89,10.89,0,0,0,3.32-8.12,11.64,11.64,0,0,0-.86-4.45,11.34,11.34,0,0,0-2.51-3.75A11.21,11.21,0,0,0,212.77,144.29Zm-.18,9.26-1.9,1a1.94,1.94,0,0,0-.75-.89,1.68,1.68,0,0,0-.82-.25q-1.9,0-1.9,2.51a3.11,3.11,0,0,0,.48,1.82,1.62,1.62,0,0,0,1.42.68,1.77,1.77,0,0,0,1.75-1.22l1.75.89a4.37,4.37,0,0,1-6.78,1.06,5,5,0,0,1,0-6.45,4.42,4.42,0,0,1,6.74.86Zm8.17,0-1.87,1a1.94,1.94,0,0,0-.75-.89,1.72,1.72,0,0,0-.85-.25q-1.9,0-1.9,2.51a3.11,3.11,0,0,0,.48,1.82,1.62,1.62,0,0,0,1.42.68,1.77,1.77,0,0,0,1.75-1.22l1.77.89a4.35,4.35,0,0,1-1.57,1.63,4.45,4.45,0,0,1-5.23-.57,5.05,5.05,0,0,1,0-6.45,4,4,0,0,1,3-1.19A3.92,3.92,0,0,1,220.77,153.55Z"/><path class="b" d="M255.24,141.73a14,14,0,0,1,14.2,14.17,13.36,13.36,0,0,1-4,9.95,14,14,0,0,1-10.15,4.23,14.26,14.26,0,0,1-14.15-14.17,13.89,13.89,0,0,1,4.18-10.07A13.57,13.57,0,0,1,255.24,141.73Zm.05,2.56a11,11,0,0,0-8.17,3.39,11.4,11.4,0,0,0-3.47,8.23,11.75,11.75,0,0,0,11.64,11.59,11.38,11.38,0,0,0,8.25-3.47,10.79,10.79,0,0,0,3.34-8.12,11.58,11.58,0,0,0-11.59-11.62Zm3.8,8.1v5.8h-1.62v6.88h-4.4v-6.88h-1.62v-5.8a.91.91,0,0,1,.91-.91h5.82a.89.89,0,0,1,.63.27A.86.86,0,0,1,259.09,152.39Zm-5.8-3.64a2,2,0,1,1,2,2A1.76,1.76,0,0,1,253.29,148.74Z"/><path class="b" d="M307.85,145.84a13.71,13.71,0,0,0-10.08-4.11,13.51,13.51,0,0,0-10,4.11,13.86,13.86,0,0,0-4.19,10.06,14.29,14.29,0,0,0,14.15,14.17,14,14,0,0,0,10.15-4.22,13.45,13.45,0,0,0,4-10A13.68,13.68,0,0,0,307.85,145.84Zm-18.24,18.21a11.13,11.13,0,0,1-3.44-8.15,11.42,11.42,0,0,1,.52-3.44l7.26,3.23h-1.6v2.21h3.32l.32.67v1.07h-3.64v2.21H296v3.2h3.53v-3.2h3.67v-2l4.63,2.06a11,11,0,0,1-1.74,2.15,11.37,11.37,0,0,1-8.27,3.47A11.2,11.2,0,0,1,289.61,164.05Zm8.2-19.77a11.62,11.62,0,0,1,11.6,11.62,12.15,12.15,0,0,1-.45,3.37l-5.77-2.57v-1H301l3.6-6.63h-3.76l-2.48,5.49L297,154l-2.26-4.9H291l1.56,2.91-4.68-2.08a13,13,0,0,1,1.77-2.21A11,11,0,0,1,297.81,144.28Z"/><path class="b" d="M350.36,145.84a13.71,13.71,0,0,0-10.08-4.11,13.51,13.51,0,0,0-10,4.11,13.86,13.86,0,0,0-4.19,10.06,14.29,14.29,0,0,0,14.15,14.17,14,14,0,0,0,10.15-4.22,13.45,13.45,0,0,0,4-10A13.67,13.67,0,0,0,350.36,145.84ZM348.59,164a11.37,11.37,0,0,1-8.27,3.47,11.74,11.74,0,0,1-11.64-11.59,11.32,11.32,0,0,1,.62-3.77l3.76,1.66h-.27v1.68h1.33c0,.24,0,.48,0,.71v.4H332.8v1.68h1.54a6.69,6.69,0,0,0,1.33,3.08,7.14,7.14,0,0,0,5.79,2.7,8,8,0,0,0,3.7-.9l-.57-2.63a6.58,6.58,0,0,1-2.7.62,4,4,0,0,1-3.06-1.21,3.73,3.73,0,0,1-.78-1.66h5.16l7.33,3.24A11,11,0,0,1,348.59,164Zm-9.22-7.42,0,0,.05,0Zm4.41-1.12H344V153.8h-4l-1.63-.72a3.26,3.26,0,0,1,.5-.82,3.61,3.61,0,0,1,2.92-1.28,7,7,0,0,1,2.63.57l.66-2.71a9,9,0,0,0-3.56-.71,6.93,6.93,0,0,0-6.28,3.57l-4.66-2.06a13,13,0,0,1,1.6-1.95,11,11,0,0,1,8.16-3.4,11.62,11.62,0,0,1,11.6,11.62,12.34,12.34,0,0,1-.36,3Z"/><path class="b" d="M382.8,141.73A14,14,0,0,1,397,155.91a13.36,13.36,0,0,1-4,9.95,14,14,0,0,1-10.15,4.23,14.3,14.3,0,0,1-14.15-14.17,13.89,13.89,0,0,1,4.18-10.07A13.57,13.57,0,0,1,382.8,141.73Zm-11,10.35a11.51,11.51,0,0,0,2.81,12A11.55,11.55,0,0,0,391.1,164a10.4,10.4,0,0,0,1.95-2.48l-5.34-2.38a3.65,3.65,0,0,1-1.35,2.19,4.66,4.66,0,0,1-2.54,1v2.18h-1.65v-2.18a6.57,6.57,0,0,1-4.3-1.7l1.95-2a4.53,4.53,0,0,0,3.16,1.29,2.29,2.29,0,0,0,1.25-.33,1.19,1.19,0,0,0,.52-1.09,1.08,1.08,0,0,0-.38-.86l-1.37-.58-1.67-.76-2.25-1Zm11-7.82a11,11,0,0,0-8.17,3.42,13.59,13.59,0,0,0-1.57,1.9l5.42,2.43a3.33,3.33,0,0,1,1.34-1.78,4.48,4.48,0,0,1,2.3-.75V147.3h1.65v2.18a6.27,6.27,0,0,1,3.54,1.32l-1.85,1.9a4.19,4.19,0,0,0-2.43-.84,2.65,2.65,0,0,0-1.18.25.88.88,0,0,0-.52.86.6.6,0,0,0,.13.35l1.8.81,1.24.56,2.28,1,7.26,3.24a13.12,13.12,0,0,0,.35-3,11.62,11.62,0,0,0-11.59-11.64Z"/><path class="b" d="M425.32,141.73a14.09,14.09,0,0,1,14.2,14.17,13.5,13.5,0,0,1-4,10,14,14,0,0,1-10.15,4.2,14.26,14.26,0,0,1-14.15-14.17,13.86,13.86,0,0,1,4.18-10A13.58,13.58,0,0,1,425.32,141.73Zm.05,2.56a11,11,0,0,0-8.17,3.42,11.32,11.32,0,0,0-3.47,8.2,11.08,11.08,0,0,0,3.44,8.15,11.2,11.2,0,0,0,8.2,3.44,11.38,11.38,0,0,0,8.25-3.47,10.85,10.85,0,0,0,3.34-8.12,11.62,11.62,0,0,0-11.59-11.62Zm5.34,8.28V155h-10.3v-2.43Zm0,4.56v2.43h-10.3v-2.43Z"/><path class="b" d="M467.84,141.73A14,14,0,0,1,482,155.91a13.41,13.41,0,0,1-4,9.95,14,14,0,0,1-10.15,4.23,14.28,14.28,0,0,1-14.15-14.17,13.89,13.89,0,0,1,4.18-10.07A13.57,13.57,0,0,1,467.84,141.73Zm0,2.56a11,11,0,0,0-8.16,3.39,11.35,11.35,0,0,0-3.47,8.23,11.75,11.75,0,0,0,11.64,11.59,11.32,11.32,0,0,0,8.25-3.47,10.85,10.85,0,0,0,3.34-8.12,11.58,11.58,0,0,0-11.6-11.62Zm-6.67,15.46v-7.85h3.9q2.88,0,2.89,2.66a2.75,2.75,0,0,1-.14.87,2.67,2.67,0,0,1-.48.84,2.43,2.43,0,0,1-1,.68,4.47,4.47,0,0,1-1.62.27h-1.54v2.53Zm1.95-6.38v2.38h1.67a1.16,1.16,0,0,0,.91-.34,1.23,1.23,0,0,0,.3-.85q0-1.19-1.27-1.19Zm5.37,6.38v-7.85h3a4.22,4.22,0,0,1,2.94,1,4.66,4.66,0,0,1,0,5.92,4.22,4.22,0,0,1-2.94,1Zm1.95-6.2v4.56h1.14a1.76,1.76,0,0,0,1.51-.62,3.17,3.17,0,0,0,0-3.32,1.8,1.8,0,0,0-1.53-.62Z"/><path class="b" d="M510.36,141.73a14.09,14.09,0,0,1,14.2,14.17,13.5,13.5,0,0,1-4,10,14,14,0,0,1-10.15,4.2,14.26,14.26,0,0,1-14.15-14.17,13.86,13.86,0,0,1,4.18-10A13.58,13.58,0,0,1,510.36,141.73Zm.05,2.56a11,11,0,0,0-8.17,3.42,11.32,11.32,0,0,0-3.47,8.2,11.08,11.08,0,0,0,3.44,8.15,11.2,11.2,0,0,0,8.2,3.44,11.38,11.38,0,0,0,8.25-3.47,10.85,10.85,0,0,0,3.34-8.12,11.62,11.62,0,0,0-11.59-11.62Zm9.24,11.87.28.13v4l-.25.13-3.44,1.47-.15.05-.18-.05-7.42-3.06-.25-.1-3.67,1.52-3.62-1.57V155l3.39-1.42,0,0v-4l3.85-1.7,8.68,3.59V155Zm-4,4.66v-2.51h0v-.1l-6.5-2.66v2.58l6.5,2.68v0Zm.43-3.29,2.28-.94-2.1-.89-2.23.94Zm3,2.18v-2.46l-2.53,1.06v2.48Z"/><path class="b" d="M552.88,141.73a14.09,14.09,0,0,1,14.2,14.17,13.5,13.5,0,0,1-4,10,14,14,0,0,1-10.15,4.2,14.26,14.26,0,0,1-14.15-14.17,13.86,13.86,0,0,1,4.18-10A13.58,13.58,0,0,1,552.88,141.73Zm.05,2.56a11,11,0,0,0-8.17,3.42,11.32,11.32,0,0,0-3.47,8.2,11.08,11.08,0,0,0,3.44,8.15,11.2,11.2,0,0,0,8.2,3.44,11.38,11.38,0,0,0,8.25-3.47,10.85,10.85,0,0,0,3.34-8.12,11.62,11.62,0,0,0-11.59-11.62Zm-6.33,9.62a6.33,6.33,0,0,1,2.1-4,6.19,6.19,0,0,1,4.13-1.43,6.86,6.86,0,0,1,5.31,2.15,7.84,7.84,0,0,1,2,5.52,7.58,7.58,0,0,1-2.05,5.43,7,7,0,0,1-5.32,2.16,6.31,6.31,0,0,1-4.15-1.44,6.13,6.13,0,0,1-2.1-4.1h3.57q.13,2.58,3.11,2.58a2.81,2.81,0,0,0,2.4-1.29,7.2,7.2,0,0,0,.08-6.87,2.77,2.77,0,0,0-2.4-1.18q-2.83,0-3.19,2.51h1l-2.81,2.81-2.81-2.81Z"/></g><g class="a"><path class="b" d="M21.39,184.25a13.69,13.69,0,0,1,10.07,4.1,13.65,13.65,0,0,1,4.13,10.07,13.36,13.36,0,0,1-4,9.95,14,14,0,0,1-10.15,4.23,13.62,13.62,0,0,1-10-4.2,13.61,13.61,0,0,1-4.18-10,13.89,13.89,0,0,1,4.18-10.07A13.57,13.57,0,0,1,21.39,184.25Zm-11,10.35a11.51,11.51,0,0,0,2.81,12,11.29,11.29,0,0,0,8.2,3.42,11.27,11.27,0,0,0,8.25-3.47A10.4,10.4,0,0,0,31.64,204l-5.34-2.38a3.65,3.65,0,0,1-1.35,2.19,4.66,4.66,0,0,1-2.54,1V207H20.75v-2.18a6.57,6.57,0,0,1-4.3-1.7l1.95-2a4.53,4.53,0,0,0,3.16,1.29,2.29,2.29,0,0,0,1.25-.33,1.19,1.19,0,0,0,.52-1.09,1.08,1.08,0,0,0-.38-.86l-1.37-.58-1.67-.76-2.25-1Zm11-7.82a11,11,0,0,0-8.17,3.42,13.59,13.59,0,0,0-1.57,1.9l5.42,2.43a3.33,3.33,0,0,1,1.34-1.78,4.48,4.48,0,0,1,2.3-.75v-2.18H22.4V192a6.27,6.27,0,0,1,3.54,1.32l-1.85,1.9a4.19,4.19,0,0,0-2.43-.84,2.65,2.65,0,0,0-1.18.25.88.88,0,0,0-.52.86.6.6,0,0,0,.13.35l1.8.81,1.24.56,2.28,1,7.26,3.24a13.12,13.12,0,0,0,.35-3,11.09,11.09,0,0,0-3.39-8.23A11.08,11.08,0,0,0,21.44,186.78Z"/><path class="b" d="M63.9,184.25a14.09,14.09,0,0,1,14.2,14.17,13.5,13.5,0,0,1-4,10,14,14,0,0,1-10.15,4.2,14.26,14.26,0,0,1-14.15-14.17,13.86,13.86,0,0,1,4.18-10A13.58,13.58,0,0,1,63.9,184.25Zm.05,2.56a11,11,0,0,0-8.17,3.42,11.32,11.32,0,0,0-3.47,8.2,11.08,11.08,0,0,0,3.44,8.15A11.2,11.2,0,0,0,64,210a11.38,11.38,0,0,0,8.25-3.47,10.85,10.85,0,0,0,3.34-8.12A11.62,11.62,0,0,0,64,186.81Zm5.34,8.28v2.43H59v-2.43Zm0,4.56v2.43H59v-2.43Z"/><path class="b" d="M106.42,184.25a14,14,0,0,1,14.2,14.17,13.41,13.41,0,0,1-4,9.95,14,14,0,0,1-10.15,4.23,14.28,14.28,0,0,1-14.15-14.17,13.89,13.89,0,0,1,4.18-10.07A13.57,13.57,0,0,1,106.42,184.25Zm0,2.56a11,11,0,0,0-8.16,3.39,11.35,11.35,0,0,0-3.47,8.23A11.75,11.75,0,0,0,106.47,210a11.32,11.32,0,0,0,8.25-3.47,10.85,10.85,0,0,0,3.34-8.12,11.58,11.58,0,0,0-11.6-11.62Zm-6.67,15.46v-7.85h3.9q2.88,0,2.89,2.66a2.75,2.75,0,0,1-.14.87,2.67,2.67,0,0,1-.48.84,2.43,2.43,0,0,1-1,.68,4.47,4.47,0,0,1-1.62.27h-1.54v2.53Zm1.95-6.38v2.38h1.67a1.16,1.16,0,0,0,.91-.34,1.23,1.23,0,0,0,.3-.85q0-1.19-1.27-1.19Zm5.37,6.38v-7.85h3a4.22,4.22,0,0,1,2.94,1,4.66,4.66,0,0,1,0,5.92,4.22,4.22,0,0,1-2.94,1Zm1.95-6.2v4.56h1.14a1.76,1.76,0,0,0,1.51-.62,3.17,3.17,0,0,0,0-3.32,1.8,1.8,0,0,0-1.53-.62Z"/><path class="b" d="M148.94,184.25a14.09,14.09,0,0,1,14.2,14.17,13.5,13.5,0,0,1-4,10,14,14,0,0,1-10.15,4.2,14.26,14.26,0,0,1-14.15-14.17,13.86,13.86,0,0,1,4.18-10A13.58,13.58,0,0,1,148.94,184.25Zm.05,2.56a11,11,0,0,0-8.17,3.42,11.32,11.32,0,0,0-3.47,8.2,11.08,11.08,0,0,0,3.44,8.15A11.2,11.2,0,0,0,149,210a11.38,11.38,0,0,0,8.25-3.47,10.85,10.85,0,0,0,3.34-8.12A11.62,11.62,0,0,0,149,186.81Zm9.24,11.87.28.13v4l-.25.13-3.44,1.47-.15.05-.18-.05-7.42-3.06-.25-.1-3.67,1.52-3.62-1.57v-3.64l3.39-1.42,0,0v-4l3.85-1.7,8.68,3.59v3.52Zm-4,4.66v-2.51h0v-.1l-6.5-2.66v2.58l6.5,2.68v0Zm.43-3.29,2.28-.94-2.1-.89-2.23.94Zm3,2.18v-2.46l-2.53,1.06v2.48Z"/><path class="b" d="M191.46,184.25a14.09,14.09,0,0,1,14.2,14.17,13.5,13.5,0,0,1-4,10,14,14,0,0,1-10.15,4.2,14.26,14.26,0,0,1-14.15-14.17,13.86,13.86,0,0,1,4.18-10A13.58,13.58,0,0,1,191.46,184.25Zm.05,2.56a11,11,0,0,0-8.17,3.42,11.32,11.32,0,0,0-3.47,8.2,11.08,11.08,0,0,0,3.44,8.15,11.2,11.2,0,0,0,8.2,3.44,11.38,11.38,0,0,0,8.25-3.47,10.85,10.85,0,0,0,3.34-8.12,11.62,11.62,0,0,0-11.59-11.62Zm-6.33,9.62a6.33,6.33,0,0,1,2.1-4,6.19,6.19,0,0,1,4.13-1.43,6.86,6.86,0,0,1,5.31,2.15,7.84,7.84,0,0,1,2,5.52,7.58,7.58,0,0,1-2.05,5.43,7,7,0,0,1-5.32,2.16,6.31,6.31,0,0,1-4.15-1.44,6.13,6.13,0,0,1-2.1-4.1h3.57q.13,2.58,3.11,2.58a2.81,2.81,0,0,0,2.4-1.29,7.2,7.2,0,0,0,.08-6.87,2.77,2.77,0,0,0-2.4-1.18q-2.83,0-3.19,2.51h1l-2.81,2.81-2.81-2.81Z"/><path class="b" d="M234,184.25a14,14,0,0,1,14.2,14.17,13.41,13.41,0,0,1-4,9.95A14,14,0,0,1,234,212.6a14.28,14.28,0,0,1-14.15-14.17A13.89,13.89,0,0,1,224,188.35,13.57,13.57,0,0,1,234,184.25Zm0,2.56a11,11,0,0,0-8.16,3.39,11.35,11.35,0,0,0-3.47,8.23A11.75,11.75,0,0,0,234,210a11.32,11.32,0,0,0,8.25-3.47,10.85,10.85,0,0,0,3.34-8.12A11.58,11.58,0,0,0,234,186.81Zm.22,3a.57.57,0,0,1,.44.14.61.61,0,0,1,.22.42v.1l.38,6.12.28-3.39a.61.61,0,1,1,1.21,0v.1l.33,4.56.33-3.67a.59.59,0,0,1,.19-.38.56.56,0,0,1,.39-.15.64.64,0,0,1,.4.14.52.52,0,0,1,.2.37l.66,5.52.3-.73a.57.57,0,0,1,.58-.38h3.32v1.21h-2.91l-1,2.53a.55.55,0,0,1-.66.38.56.56,0,0,1-.37-.18.65.65,0,0,1-.16-.38l-.23-1.82-.43,5.29a.59.59,0,0,1-.19.38.56.56,0,0,1-.39.15.6.6,0,0,1-.4-.15.56.56,0,0,1-.2-.38v-.08l-.35-4.38-.3,4.13a.72.72,0,0,1-.22.38.56.56,0,0,1-.39.15.6.6,0,0,1-.4-.15.56.56,0,0,1-.2-.38v-.08l-.33-4.94-.33,5.42v.08a.63.63,0,0,1-.18.44.58.58,0,0,1-.86,0,.63.63,0,0,1-.18-.44v-.05l-.33-5-.3,4.83v.08a.72.72,0,0,1-.22.38.56.56,0,0,1-.39.15.6.6,0,0,1-.41-.15.56.56,0,0,1-.2-.38v-.08h0v-.08l-.35-5.06-.28,3.24a.57.57,0,0,1-.2.38.61.61,0,0,1-.41.15.59.59,0,0,1-.39-.14.65.65,0,0,1-.22-.37l-.63-4.35-.08.15a.56.56,0,0,1-.56.33h-2.94V198.6h2.56l.78-1.59a.53.53,0,0,1,.62-.34.56.56,0,0,1,.52.49l.18,1.16.48-5.59a.61.61,0,1,1,1.21,0v.1l.28,3.95.38-5.29v-.08A.59.59,0,0,1,232,191a.56.56,0,0,1,.39-.15.61.61,0,0,1,.4.15.57.57,0,0,1,.2.38v.08l.3,4.61.35-5.59v-.1a.5.5,0,0,1,.16-.38A.68.68,0,0,1,234.24,189.85Z"/><path class="d" d="M276.51,184.25a13.51,13.51,0,0,0-10,4.11,13.86,13.86,0,0,0-4.19,10.06,14.29,14.29,0,0,0,14.16,14.17,14,14,0,0,0,10.15-4.22,13.45,13.45,0,0,0,4-10,14,14,0,0,0-14.19-14.17Zm0,2.55a11.62,11.62,0,0,1,11.6,11.62,10.81,10.81,0,0,1-3.33,8.11,11.38,11.38,0,0,1-8.27,3.47,11.55,11.55,0,0,1-8.16-19.81A11,11,0,0,1,276.55,186.8Z"/><path class="b" d="M282.67,198.55a.66.66,0,0,0-.61.41l-.23.54-.63-5.31a.66.66,0,0,0-1.32,0l-.24,2.94-.3-3.93a.66.66,0,0,0-1.32,0l-.2,2.57-.34-5.39a.66.66,0,0,0-1.33,0l-.29,4.78-.25-3.79a.66.66,0,0,0-1.33,0L274,196l-.24-3.26a.66.66,0,0,0-1.32,0l-.44,5.13-.1-.7a.66.66,0,0,0-1.26-.19l-.75,1.58h-2.51v1.33h2.93a.67.67,0,0,0,.59-.36l.61,4.18a.66.66,0,0,0,1.32,0l.21-2.49.32,4.48a.66.66,0,0,0,1.33,0l.27-4,.27,4.19a.66.66,0,0,0,1.33,0l.28-4.6.26,4.1a.66.66,0,0,0,1.32,0l.26-3.35.28,3.68a.66.66,0,0,0,1.32,0l.39-4.74.15,1.28a.66.66,0,0,0,1.27.18l1-2.48H286v-1.33Zm-4.46.3H277v1.25a.43.43,0,1,1-.86,0v-1.25h-1.25a.43.43,0,1,1,0-.85h1.25v-1.25a.43.43,0,0,1,.86,0V198h1.25a.43.43,0,1,1,0,.85Z"/><path class="b" d="M319,184.25a14.09,14.09,0,0,1,14.2,14.17,13.5,13.5,0,0,1-4,10A14,14,0,0,1,319,212.6a14.26,14.26,0,0,1-14.15-14.17,13.86,13.86,0,0,1,4.18-10A13.58,13.58,0,0,1,319,184.25Zm.05,2.56a11,11,0,0,0-8.17,3.42,11.32,11.32,0,0,0-3.47,8.2,11.08,11.08,0,0,0,3.44,8.15,11.2,11.2,0,0,0,8.2,3.44,11.38,11.38,0,0,0,8.25-3.47,10.85,10.85,0,0,0,3.34-8.12,11.62,11.62,0,0,0-11.59-11.62Zm5.77,7.57a.78.78,0,0,1,.78.78v10.43a.78.78,0,0,1-.78.78h-7.72a.78.78,0,0,1-.78-.78V202.5h-3.09a.78.78,0,0,1-.78-.78V191.29a.73.73,0,0,1,.2-.52.87.87,0,0,1,.51-.27H321a.78.78,0,0,1,.78.78v3.09ZM314,201h2.33v-5.8a.73.73,0,0,1,.2-.52.86.86,0,0,1,.48-.27h3.19v-2.3H314Zm10.07-5h-6.2v8.88h6.2Z"/><path class="b" d="M361.57,190.27c-4.68,0-5.86,4.42-5.86,8.16s1.18,8.16,5.86,8.16,5.86-4.41,5.86-8.16S366.25,190.27,361.57,190.27ZM359,198.43c0-1.65.11-5.08,2.52-5.08a2.16,2.16,0,0,1,.53.07.89.89,0,0,1,.18,1.25l-3.12,5.73A15.18,15.18,0,0,1,359,198.43Zm2.52,5.08a2.17,2.17,0,0,1-.53-.06l-.09,0-.15,0c-.54-.23-.87-.64-.39-1.37l3.48-6a13.58,13.58,0,0,1,.19,2.44C364.09,200.07,364,203.51,361.57,203.51Z"/><path class="b" d="M374.71,193a13.58,13.58,0,0,0-3-4.58,13.85,13.85,0,0,0-10.13-4.15,13.38,13.38,0,0,0-9.95,4.12,14.38,14.38,0,0,0-3.14,4.66,14.21,14.21,0,0,0,0,10.78,14.34,14.34,0,0,0,3.09,4.61,14.72,14.72,0,0,0,4.61,3.12,14.18,14.18,0,0,0,10.84,0,14.54,14.54,0,0,0,4.7-3.14,12.88,12.88,0,0,0,3-4.48,15,15,0,0,0,0-10.92ZM366,209.1a11.31,11.31,0,0,1-4.4.88,11.52,11.52,0,0,1-4.41-.86,12,12,0,0,1-3.77-2.53,12.1,12.1,0,0,1-2.58-3.77,11.29,11.29,0,0,1,0-8.8,12.33,12.33,0,0,1,2.58-3.82,11,11,0,0,1,8.18-3.39,11.2,11.2,0,0,1,8.22,3.41,11.37,11.37,0,0,1,2.51,3.75,11.64,11.64,0,0,1,.86,4.46,10.88,10.88,0,0,1-3.32,8.12A12.19,12.19,0,0,1,366,209.1Z"/><path class="b" d="M404.06,184.25a13.83,13.83,0,0,1,10.12,4.15,13.63,13.63,0,0,1,3,4.57,14.94,14.94,0,0,1,0,10.91,13,13,0,0,1-3,4.49,14.56,14.56,0,0,1-4.71,3.14,14.11,14.11,0,0,1-5.44,1.09,13.78,13.78,0,0,1-5.38-1.08,14.59,14.59,0,0,1-7.71-7.71A14.15,14.15,0,0,1,391,193a14.22,14.22,0,0,1,3.13-4.64A13.4,13.4,0,0,1,404.06,184.25Zm.05,2.56a11,11,0,0,0-8.17,3.39,12.19,12.19,0,0,0-2.57,3.81,11.24,11.24,0,0,0,0,8.81,12,12,0,0,0,6.34,6.3,11.5,11.5,0,0,0,8.82,0,12.23,12.23,0,0,0,3.86-2.56,10.89,10.89,0,0,0,3.32-8.12,11.64,11.64,0,0,0-.86-4.45,11.34,11.34,0,0,0-2.51-3.75A11.21,11.21,0,0,0,404.11,186.81Zm-.18,9.26-1.9,1a1.94,1.94,0,0,0-.75-.89,1.68,1.68,0,0,0-.82-.25q-1.9,0-1.9,2.51a3.11,3.11,0,0,0,.48,1.82,1.62,1.62,0,0,0,1.42.68,1.77,1.77,0,0,0,1.75-1.22l1.75.89a4.37,4.37,0,0,1-6.78,1.06,5,5,0,0,1,0-6.45,4.42,4.42,0,0,1,6.74.86Zm8.17,0-1.87,1a1.94,1.94,0,0,0-.75-.89,1.72,1.72,0,0,0-.85-.25q-1.9,0-1.9,2.51a3.11,3.11,0,0,0,.48,1.82,1.62,1.62,0,0,0,1.42.68,1.77,1.77,0,0,0,1.75-1.22l1.77.89a4.35,4.35,0,0,1-1.57,1.63,4.45,4.45,0,0,1-5.23-.57,5.05,5.05,0,0,1,0-6.45,4,4,0,0,1,3-1.19A3.92,3.92,0,0,1,412.11,196.07Z"/><path class="b" d="M446.58,184.25a14,14,0,0,1,14.2,14.17,13.36,13.36,0,0,1-4,9.95,14,14,0,0,1-10.15,4.23,14.26,14.26,0,0,1-14.15-14.17,13.89,13.89,0,0,1,4.18-10.07A13.57,13.57,0,0,1,446.58,184.25Zm.05,2.56a11,11,0,0,0-8.17,3.39,11.4,11.4,0,0,0-3.47,8.23A11.75,11.75,0,0,0,446.63,210a11.38,11.38,0,0,0,8.25-3.47,10.79,10.79,0,0,0,3.34-8.12,11.58,11.58,0,0,0-11.59-11.62Zm3.8,8.1v5.8h-1.62v6.88h-4.4V200.7h-1.62v-5.8a.91.91,0,0,1,.91-.91h5.82a.89.89,0,0,1,.63.27A.86.86,0,0,1,450.43,194.91Zm-5.8-3.64a2,2,0,1,1,2,2A1.76,1.76,0,0,1,444.63,191.26Z"/><path class="b" d="M499.18,188.36a13.71,13.71,0,0,0-10.08-4.11,13.51,13.51,0,0,0-10,4.11A13.86,13.86,0,0,0,475,198.43a14.29,14.29,0,0,0,14.15,14.17,14,14,0,0,0,10.15-4.22,13.45,13.45,0,0,0,4-10A13.68,13.68,0,0,0,499.18,188.36Zm-18.24,18.21a11.13,11.13,0,0,1-3.44-8.15A11.42,11.42,0,0,1,478,195l7.26,3.23h-1.6v2.21H487l.32.67v1.07h-3.64v2.21h3.64v3.2h3.53v-3.2h3.67v-2l4.63,2.06a11,11,0,0,1-1.74,2.15,11.37,11.37,0,0,1-8.27,3.47A11.2,11.2,0,0,1,480.95,206.57Zm8.2-19.77a11.62,11.62,0,0,1,11.6,11.62,12.15,12.15,0,0,1-.45,3.37l-5.77-2.57v-1h-2.21l3.6-6.63h-3.76l-2.48,5.49-1.32-.59-2.26-4.9h-3.76l1.56,2.91-4.68-2.08A13,13,0,0,1,481,190.2,11,11,0,0,1,489.14,186.8Z"/><path class="b" d="M541.7,188.36a13.71,13.71,0,0,0-10.08-4.11,13.51,13.51,0,0,0-10,4.11,13.86,13.86,0,0,0-4.19,10.06,14.29,14.29,0,0,0,14.15,14.17,14,14,0,0,0,10.15-4.22,13.45,13.45,0,0,0,4-10A13.67,13.67,0,0,0,541.7,188.36Zm-1.77,18.18a11.37,11.37,0,0,1-8.27,3.47A11.74,11.74,0,0,1,520,198.42a11.32,11.32,0,0,1,.62-3.77l3.76,1.66h-.27V198h1.33c0,.24,0,.48,0,.71v.4h-1.31v1.68h1.54a6.69,6.69,0,0,0,1.33,3.08,7.14,7.14,0,0,0,5.79,2.7,8,8,0,0,0,3.7-.9l-.57-2.63a6.58,6.58,0,0,1-2.7.62,4,4,0,0,1-3.06-1.21,3.73,3.73,0,0,1-.78-1.66h5.16l7.33,3.24A11,11,0,0,1,539.93,206.54Zm-9.22-7.42,0,0,.05,0Zm4.41-1.12h.21v-1.68h-4l-1.63-.72a3.26,3.26,0,0,1,.5-.82,3.61,3.61,0,0,1,2.92-1.28,7,7,0,0,1,2.63.57l.66-2.71a9,9,0,0,0-3.56-.71,6.93,6.93,0,0,0-6.28,3.57l-4.66-2.06a13,13,0,0,1,1.6-1.95,11,11,0,0,1,8.16-3.4,11.62,11.62,0,0,1,11.6,11.62,12.34,12.34,0,0,1-.36,3Z"/></g><g class="a"><path class="b" d="M.13,226.77a13.83,13.83,0,0,1,10.12,4.15,13.63,13.63,0,0,1,3,4.57,14.43,14.43,0,0,1,1,5.45,14.45,14.45,0,0,1-1,5.45,13,13,0,0,1-3,4.49A14.56,14.56,0,0,1,5.57,254a14.11,14.11,0,0,1-5.44,1.09A13.78,13.78,0,0,1-5.25,254a14.25,14.25,0,0,1-4.61-3.11,14.12,14.12,0,0,1-3.1-4.59A13.9,13.9,0,0,1-14,240.94a14,14,0,0,1,1.08-5.4,14.22,14.22,0,0,1,3.13-4.64A13.4,13.4,0,0,1,.13,226.77Zm.05,2.56A11,11,0,0,0-8,232.72a12.19,12.19,0,0,0-2.57,3.81,11.17,11.17,0,0,0-.9,4.42,11.11,11.11,0,0,0,.9,4.39A11.74,11.74,0,0,0-8,249.11a11.67,11.67,0,0,0,3.77,2.53,11.36,11.36,0,0,0,4.4.87,11.43,11.43,0,0,0,4.42-.89,12.23,12.23,0,0,0,3.86-2.56,10.89,10.89,0,0,0,3.32-8.12,11.64,11.64,0,0,0-.86-4.45,11.34,11.34,0,0,0-2.51-3.75A11.21,11.21,0,0,0,.18,229.33ZM0,238.59l-1.9,1a1.94,1.94,0,0,0-.75-.89,1.68,1.68,0,0,0-.82-.25q-1.9,0-1.9,2.51a3.11,3.11,0,0,0,.48,1.82,1.62,1.62,0,0,0,1.42.68,1.77,1.77,0,0,0,1.75-1.22l1.75.89a4.16,4.16,0,0,1-1.54,1.63,4.14,4.14,0,0,1-2.18.59,4.14,4.14,0,0,1-3.06-1.16,4.38,4.38,0,0,1-1.16-3.24,4.37,4.37,0,0,1,1.18-3.21,4,4,0,0,1,3-1.19A4,4,0,0,1,0,238.59Zm8.17,0-1.87,1a1.94,1.94,0,0,0-.75-.89,1.72,1.72,0,0,0-.85-.25q-1.9,0-1.9,2.51a3.11,3.11,0,0,0,.48,1.82,1.62,1.62,0,0,0,1.42.68,1.77,1.77,0,0,0,1.75-1.22l1.77.89a4.35,4.35,0,0,1-1.57,1.63,4.09,4.09,0,0,1-2.15.59,4.13,4.13,0,0,1-3.07-1.16,5.05,5.05,0,0,1,0-6.45,4,4,0,0,1,3-1.19A3.92,3.92,0,0,1,8.17,238.59Z"/><path class="b" d="M42.64,226.77a14,14,0,0,1,14.2,14.17,13.36,13.36,0,0,1-4,9.95,14,14,0,0,1-10.15,4.23A14.26,14.26,0,0,1,28.5,240.94a13.89,13.89,0,0,1,4.18-10.07A13.57,13.57,0,0,1,42.64,226.77Zm.05,2.56a11,11,0,0,0-8.17,3.39,11.4,11.4,0,0,0-3.47,8.23A11.75,11.75,0,0,0,42.7,252.54a11.38,11.38,0,0,0,8.25-3.47,10.79,10.79,0,0,0,3.34-8.12A11.58,11.58,0,0,0,42.7,229.33Zm3.8,8.1v5.8H44.87v6.88h-4.4v-6.88H38.85v-5.8a.91.91,0,0,1,.91-.91h5.82a.89.89,0,0,1,.63.27A.86.86,0,0,1,46.49,237.43Zm-5.8-3.64a1.76,1.76,0,0,1,2-2,2,2,0,0,1,0,4A1.74,1.74,0,0,1,40.7,233.78Z"/><path class="b" d="M95.25,230.88a13.71,13.71,0,0,0-10.08-4.11,13.51,13.51,0,0,0-10,4.11A13.86,13.86,0,0,0,71,240.94a14.29,14.29,0,0,0,14.15,14.17,14,14,0,0,0,10.15-4.22,13.45,13.45,0,0,0,4-10A13.68,13.68,0,0,0,95.25,230.88ZM77,249.09a11.13,11.13,0,0,1-3.44-8.15,11.42,11.42,0,0,1,.52-3.44l7.26,3.23h-1.6v2.21h3.32l.32.67v1.07H79.75v2.21h3.64v3.2h3.53v-3.2h3.67v-2l4.63,2.06a11,11,0,0,1-1.74,2.15,11.37,11.37,0,0,1-8.27,3.47A11.2,11.2,0,0,1,77,249.09Zm8.2-19.77a11.62,11.62,0,0,1,11.6,11.62,12.15,12.15,0,0,1-.45,3.37l-5.77-2.57v-1H88.38L92,234.1H88.22l-2.48,5.49L84.43,239l-2.26-4.9H78.4L80,237l-4.68-2.08A13,13,0,0,1,77,232.72,11,11,0,0,1,85.21,229.32Z"/><path class="b" d="M137.77,230.88a13.71,13.71,0,0,0-10.08-4.11,13.51,13.51,0,0,0-10,4.11,13.86,13.86,0,0,0-4.19,10.06,14.29,14.29,0,0,0,14.15,14.17,14,14,0,0,0,10.15-4.22,13.45,13.45,0,0,0,4-10A13.67,13.67,0,0,0,137.77,230.88ZM136,249.06a11.37,11.37,0,0,1-8.27,3.47,11.74,11.74,0,0,1-11.64-11.59,11.32,11.32,0,0,1,.62-3.77l3.76,1.66h-.27v1.68h1.33c0,.24,0,.48,0,.71v.4H120.2v1.68h1.54a6.69,6.69,0,0,0,1.33,3.08,7.14,7.14,0,0,0,5.79,2.7,8,8,0,0,0,3.7-.9l-.57-2.63a6.58,6.58,0,0,1-2.7.62,4,4,0,0,1-3.06-1.21,3.73,3.73,0,0,1-.78-1.66h5.16l7.33,3.24A11,11,0,0,1,136,249.06Zm-9.22-7.42,0,0,.05,0Zm4.41-1.12h.21v-1.68h-4l-1.63-.72a3.26,3.26,0,0,1,.5-.82,3.61,3.61,0,0,1,2.92-1.28,7,7,0,0,1,2.63.57l.66-2.71a9,9,0,0,0-3.56-.71,6.93,6.93,0,0,0-6.28,3.57L118,234.67a13,13,0,0,1,1.6-1.95,11,11,0,0,1,8.16-3.4,11.62,11.62,0,0,1,11.6,11.62,12.34,12.34,0,0,1-.36,3Z"/><path class="b" d="M170.2,226.77a14,14,0,0,1,14.2,14.17,13.36,13.36,0,0,1-4,9.95,14,14,0,0,1-10.15,4.23,14.3,14.3,0,0,1-14.15-14.17,13.89,13.89,0,0,1,4.18-10.07A13.57,13.57,0,0,1,170.2,226.77Zm-11,10.35a11.51,11.51,0,0,0,2.81,12,11.55,11.55,0,0,0,16.45-.05,10.4,10.4,0,0,0,1.95-2.48l-5.34-2.38a3.65,3.65,0,0,1-1.35,2.19,4.66,4.66,0,0,1-2.54,1v2.18h-1.65v-2.18a6.57,6.57,0,0,1-4.3-1.7l1.95-2a4.53,4.53,0,0,0,3.16,1.29,2.29,2.29,0,0,0,1.25-.33,1.19,1.19,0,0,0,.52-1.09,1.08,1.08,0,0,0-.38-.86l-1.37-.58-1.67-.76-2.25-1Zm11-7.82a11,11,0,0,0-8.17,3.42,13.59,13.59,0,0,0-1.57,1.9l5.42,2.43a3.33,3.33,0,0,1,1.34-1.78,4.48,4.48,0,0,1,2.3-.75v-2.18h1.65v2.18a6.27,6.27,0,0,1,3.54,1.32l-1.85,1.9a4.19,4.19,0,0,0-2.43-.84,2.65,2.65,0,0,0-1.18.25.88.88,0,0,0-.52.86.6.6,0,0,0,.13.35l1.8.81,1.24.56,2.28,1,7.26,3.24a13.12,13.12,0,0,0,.35-3,11.62,11.62,0,0,0-11.59-11.64Z"/><path class="b" d="M212.72,226.77a14.09,14.09,0,0,1,14.2,14.17,13.5,13.5,0,0,1-4,10,14,14,0,0,1-10.15,4.2,14.26,14.26,0,0,1-14.15-14.17,13.86,13.86,0,0,1,4.18-10A13.58,13.58,0,0,1,212.72,226.77Zm.05,2.56a11,11,0,0,0-8.17,3.42,11.32,11.32,0,0,0-3.47,8.2,11.08,11.08,0,0,0,3.44,8.15,11.2,11.2,0,0,0,8.2,3.44,11.38,11.38,0,0,0,8.25-3.47,10.85,10.85,0,0,0,3.34-8.12,11.62,11.62,0,0,0-11.59-11.62Zm5.34,8.28V240h-10.3V237.6Zm0,4.56v2.43h-10.3v-2.43Z"/><path class="b" d="M255.24,226.77a14,14,0,0,1,14.2,14.17,13.41,13.41,0,0,1-4,9.95,14,14,0,0,1-10.15,4.23,14.28,14.28,0,0,1-14.15-14.17,13.89,13.89,0,0,1,4.18-10.07A13.57,13.57,0,0,1,255.24,226.77Zm0,2.56a11,11,0,0,0-8.16,3.39,11.35,11.35,0,0,0-3.47,8.23,11.75,11.75,0,0,0,11.64,11.59,11.32,11.32,0,0,0,8.25-3.47,10.85,10.85,0,0,0,3.34-8.12,11.58,11.58,0,0,0-11.6-11.62Zm-6.67,15.46v-7.85h3.9q2.88,0,2.89,2.66a2.75,2.75,0,0,1-.14.87,2.67,2.67,0,0,1-.48.84,2.43,2.43,0,0,1-1,.68,4.47,4.47,0,0,1-1.62.27h-1.54v2.53Zm1.95-6.38v2.38h1.67a1.16,1.16,0,0,0,.91-.34,1.23,1.23,0,0,0,.3-.85q0-1.19-1.27-1.19Zm5.37,6.38v-7.85h3a4.22,4.22,0,0,1,2.94,1,4.66,4.66,0,0,1,0,5.92,4.22,4.22,0,0,1-2.94,1Zm1.95-6.2v4.56H259a1.76,1.76,0,0,0,1.51-.62,3.17,3.17,0,0,0,0-3.32,1.8,1.8,0,0,0-1.53-.62Z"/><path class="b" d="M297.76,226.77A14.09,14.09,0,0,1,312,240.94a13.5,13.5,0,0,1-4,10,14,14,0,0,1-10.15,4.2,14.26,14.26,0,0,1-14.15-14.17,13.86,13.86,0,0,1,4.18-10A13.58,13.58,0,0,1,297.76,226.77Zm.05,2.56a11,11,0,0,0-8.17,3.42,11.32,11.32,0,0,0-3.47,8.2,11.08,11.08,0,0,0,3.44,8.15,11.2,11.2,0,0,0,8.2,3.44,11.38,11.38,0,0,0,8.25-3.47,10.85,10.85,0,0,0,3.34-8.12,11.62,11.62,0,0,0-11.59-11.62Zm9.24,11.87.28.13v4l-.25.13-3.44,1.47-.15.05-.18-.05-7.42-3.06-.25-.1L292,245.27l-3.62-1.57v-3.64l3.39-1.42,0,0v-4l3.85-1.7,8.68,3.59V240Zm-4,4.66v-2.51h0v-.1l-6.5-2.66v2.58l6.5,2.68v0Zm.43-3.29,2.28-.94-2.1-.89-2.23.94Zm3,2.18v-2.46l-2.53,1.06v2.48Z"/><path class="b" d="M340.28,226.77a14.09,14.09,0,0,1,14.2,14.17,13.5,13.5,0,0,1-4,10,14,14,0,0,1-10.15,4.2,14.26,14.26,0,0,1-14.15-14.17,13.86,13.86,0,0,1,4.18-10A13.58,13.58,0,0,1,340.28,226.77Zm.05,2.56a11,11,0,0,0-8.17,3.42,11.32,11.32,0,0,0-3.47,8.2,11.08,11.08,0,0,0,3.44,8.15,11.2,11.2,0,0,0,8.2,3.44,11.38,11.38,0,0,0,8.25-3.47,10.85,10.85,0,0,0,3.34-8.12,11.62,11.62,0,0,0-11.59-11.62ZM334,238.95a6.33,6.33,0,0,1,2.1-4,6.19,6.19,0,0,1,4.13-1.43,6.86,6.86,0,0,1,5.31,2.15,7.84,7.84,0,0,1,2,5.52,7.58,7.58,0,0,1-2.05,5.43,7,7,0,0,1-5.32,2.16A6.31,6.31,0,0,1,336,247.3a6.13,6.13,0,0,1-2.1-4.1h3.57q.13,2.58,3.11,2.58a2.81,2.81,0,0,0,2.4-1.29,7.2,7.2,0,0,0,.08-6.87,2.77,2.77,0,0,0-2.4-1.18q-2.83,0-3.19,2.51h1l-2.81,2.81-2.81-2.81Z"/><path class="b" d="M382.8,226.77A14,14,0,0,1,397,240.94a13.41,13.41,0,0,1-4,9.95,14,14,0,0,1-10.15,4.23,14.28,14.28,0,0,1-14.15-14.17,13.89,13.89,0,0,1,4.18-10.07A13.57,13.57,0,0,1,382.8,226.77Zm0,2.56a11,11,0,0,0-8.16,3.39,11.35,11.35,0,0,0-3.47,8.23,11.75,11.75,0,0,0,11.64,11.59,11.32,11.32,0,0,0,8.25-3.47,10.85,10.85,0,0,0,3.34-8.12,11.58,11.58,0,0,0-11.6-11.62Zm.22,3a.57.57,0,0,1,.44.14.61.61,0,0,1,.22.42v.1l.38,6.12.28-3.39a.61.61,0,1,1,1.21,0v.1l.33,4.56.33-3.67a.59.59,0,0,1,.19-.38.56.56,0,0,1,.39-.15.64.64,0,0,1,.4.14.52.52,0,0,1,.2.37l.66,5.52.3-.73a.57.57,0,0,1,.58-.38h3.32v1.21h-2.91l-1,2.53a.55.55,0,0,1-.66.38.56.56,0,0,1-.37-.18.65.65,0,0,1-.16-.38l-.23-1.82-.43,5.29a.59.59,0,0,1-.19.38.56.56,0,0,1-.39.15.6.6,0,0,1-.4-.15.56.56,0,0,1-.2-.38v-.08L385,243.7l-.3,4.13a.72.72,0,0,1-.22.38.56.56,0,0,1-.39.15.6.6,0,0,1-.4-.15.56.56,0,0,1-.2-.38v-.08l-.33-4.94-.33,5.42v.08a.63.63,0,0,1-.18.44.58.58,0,0,1-.86,0,.63.63,0,0,1-.18-.44v-.05l-.33-5-.3,4.83v.08a.72.72,0,0,1-.22.38.56.56,0,0,1-.39.15.6.6,0,0,1-.41-.15.56.56,0,0,1-.2-.38v-.08h0V248l-.35-5.06-.28,3.24a.57.57,0,0,1-.2.38.61.61,0,0,1-.41.15.59.59,0,0,1-.39-.14.65.65,0,0,1-.22-.37l-.63-4.35-.08.15a.56.56,0,0,1-.56.33h-2.94v-1.21h2.56l.78-1.59a.53.53,0,0,1,.62-.34.56.56,0,0,1,.52.49l.18,1.16.48-5.59a.61.61,0,1,1,1.21,0v.1l.28,3.95.38-5.29v-.08a.59.59,0,0,1,.19-.38.56.56,0,0,1,.39-.15.61.61,0,0,1,.4.15.57.57,0,0,1,.2.38V234l.3,4.61.35-5.59v-.1a.5.5,0,0,1,.16-.38A.68.68,0,0,1,383.06,232.37Z"/><path class="d" d="M425.33,226.77a13.51,13.51,0,0,0-10,4.11,13.86,13.86,0,0,0-4.19,10.06,14.29,14.29,0,0,0,14.16,14.17,14,14,0,0,0,10.15-4.22,13.45,13.45,0,0,0,4-10,14,14,0,0,0-14.19-14.17Zm0,2.55A11.62,11.62,0,0,1,437,240.94a10.81,10.81,0,0,1-3.33,8.11,11.38,11.38,0,0,1-8.27,3.47,11.55,11.55,0,0,1-8.16-19.81A11,11,0,0,1,425.36,229.32Z"/><path class="b" d="M431.49,241.07a.66.66,0,0,0-.61.41l-.23.54-.63-5.31a.66.66,0,0,0-1.32,0l-.24,2.94-.3-3.93a.66.66,0,0,0-1.32,0l-.2,2.57-.34-5.39a.66.66,0,0,0-1.33,0l-.29,4.78-.25-3.79a.66.66,0,0,0-1.33,0l-.3,4.58-.24-3.26a.66.66,0,0,0-1.32,0l-.44,5.13-.1-.7a.66.66,0,0,0-1.26-.19l-.75,1.58h-2.51v1.33h2.93a.67.67,0,0,0,.59-.36l.61,4.18a.66.66,0,0,0,1.32,0l.21-2.49.32,4.48a.66.66,0,0,0,1.33,0l.27-4,.27,4.19a.66.66,0,0,0,1.33,0l.28-4.6.26,4.1a.66.66,0,0,0,1.32,0l.26-3.35.28,3.68a.66.66,0,0,0,1.32,0l.39-4.74.15,1.28a.66.66,0,0,0,1.27.18l1-2.48h2.89v-1.33Zm-4.46.3h-1.25v1.25a.43.43,0,1,1-.86,0v-1.25h-1.25a.43.43,0,1,1,0-.85h1.25v-1.25a.43.43,0,0,1,.86,0v1.25H427a.43.43,0,1,1,0,.85Z"/><path class="b" d="M467.84,226.77A14.09,14.09,0,0,1,482,240.94a13.5,13.5,0,0,1-4,10,14,14,0,0,1-10.15,4.2,14.26,14.26,0,0,1-14.15-14.17,13.86,13.86,0,0,1,4.18-10A13.58,13.58,0,0,1,467.84,226.77Zm.05,2.56a11,11,0,0,0-8.17,3.42,11.32,11.32,0,0,0-3.47,8.2,11.08,11.08,0,0,0,3.44,8.15,11.2,11.2,0,0,0,8.2,3.44,11.38,11.38,0,0,0,8.25-3.47,10.85,10.85,0,0,0,3.34-8.12,11.62,11.62,0,0,0-11.59-11.62Zm5.77,7.57a.78.78,0,0,1,.78.78v10.43a.78.78,0,0,1-.78.78h-7.72a.78.78,0,0,1-.78-.78V245h-3.09a.78.78,0,0,1-.78-.78V233.81a.73.73,0,0,1,.2-.52A.87.87,0,0,1,462,233h7.8a.78.78,0,0,1,.78.78v3.09Zm-10.83,6.58h2.33v-5.8a.73.73,0,0,1,.2-.52.86.86,0,0,1,.48-.27H469v-2.3h-6.2Zm10.07-5h-6.2v8.88h6.2Z"/><path class="b" d="M510.39,232.79c-4.68,0-5.86,4.42-5.86,8.16s1.18,8.16,5.86,8.16,5.86-4.41,5.86-8.16S515.07,232.79,510.39,232.79Zm-2.52,8.16c0-1.65.11-5.08,2.52-5.08a2.16,2.16,0,0,1,.53.07.89.89,0,0,1,.18,1.25L508,242.91A15.18,15.18,0,0,1,507.87,240.94Zm2.52,5.08a2.17,2.17,0,0,1-.53-.06l-.09,0-.15,0c-.54-.23-.87-.64-.39-1.37l3.48-6a13.58,13.58,0,0,1,.19,2.44C512.91,242.59,512.79,246,510.39,246Z"/><path class="b" d="M523.53,235.5a13.58,13.58,0,0,0-3-4.58,13.85,13.85,0,0,0-10.13-4.15,13.38,13.38,0,0,0-9.95,4.12,14.38,14.38,0,0,0-3.14,4.66,14.21,14.21,0,0,0,0,10.78,14.34,14.34,0,0,0,3.09,4.61,14.72,14.72,0,0,0,4.61,3.12,14.18,14.18,0,0,0,10.84,0,14.54,14.54,0,0,0,4.7-3.14,12.88,12.88,0,0,0,3-4.48,15,15,0,0,0,0-10.92Zm-8.71,16.13a11.31,11.31,0,0,1-4.4.88,11.52,11.52,0,0,1-4.41-.86,12,12,0,0,1-3.77-2.53,12.1,12.1,0,0,1-2.58-3.77,11.29,11.29,0,0,1,0-8.8,12.33,12.33,0,0,1,2.58-3.82,11,11,0,0,1,8.18-3.39,11.2,11.2,0,0,1,8.22,3.41,11.37,11.37,0,0,1,2.51,3.75,11.64,11.64,0,0,1,.86,4.46,10.88,10.88,0,0,1-3.32,8.12A12.19,12.19,0,0,1,514.81,251.62Z"/><path class="b" d="M552.88,226.77A13.83,13.83,0,0,1,563,230.92a13.63,13.63,0,0,1,3,4.57,14.94,14.94,0,0,1,0,10.91,13,13,0,0,1-3,4.49,14.56,14.56,0,0,1-4.71,3.14,14.11,14.11,0,0,1-5.44,1.09A13.78,13.78,0,0,1,547.5,254a14.59,14.59,0,0,1-7.71-7.71,14.15,14.15,0,0,1,0-10.79,14.22,14.22,0,0,1,3.13-4.64A13.4,13.4,0,0,1,552.88,226.77Zm.05,2.56a11,11,0,0,0-8.17,3.39,12.19,12.19,0,0,0-2.57,3.81,11.24,11.24,0,0,0,0,8.81,12,12,0,0,0,6.34,6.3,11.5,11.5,0,0,0,8.82,0,12.23,12.23,0,0,0,3.86-2.56,10.89,10.89,0,0,0,3.32-8.12,11.64,11.64,0,0,0-.86-4.45,11.34,11.34,0,0,0-2.51-3.75A11.21,11.21,0,0,0,552.93,229.33Zm-.18,9.26-1.9,1a1.94,1.94,0,0,0-.75-.89,1.68,1.68,0,0,0-.82-.25q-1.9,0-1.9,2.51a3.11,3.11,0,0,0,.48,1.82,1.62,1.62,0,0,0,1.42.68,1.77,1.77,0,0,0,1.75-1.22l1.75.89a4.37,4.37,0,0,1-6.78,1.06,5,5,0,0,1,0-6.45,4.42,4.42,0,0,1,6.74.86Zm8.17,0-1.87,1a1.94,1.94,0,0,0-.75-.89,1.72,1.72,0,0,0-.85-.25q-1.9,0-1.9,2.51a3.11,3.11,0,0,0,.48,1.82,1.62,1.62,0,0,0,1.42.68,1.77,1.77,0,0,0,1.75-1.22l1.77.89a4.35,4.35,0,0,1-1.57,1.63,4.45,4.45,0,0,1-5.23-.57,5.05,5.05,0,0,1,0-6.45,4,4,0,0,1,3-1.19A3.92,3.92,0,0,1,560.93,238.59Z"/></g><g class="a"><path class="b" d="M21.39,269.29a13.71,13.71,0,0,1,10.07,4.13,14.3,14.3,0,0,1,.08,20,14,14,0,0,1-10.15,4.2,13.72,13.72,0,0,1-10-4.18,13.64,13.64,0,0,1-4.18-10,13.86,13.86,0,0,1,4.18-10A13.58,13.58,0,0,1,21.39,269.29Zm.05,2.56a11,11,0,0,0-8.17,3.42,11.32,11.32,0,0,0-3.47,8.2,11.08,11.08,0,0,0,3.44,8.15,11.2,11.2,0,0,0,8.2,3.44,11.38,11.38,0,0,0,8.25-3.47A10.85,10.85,0,0,0,33,283.46a11.06,11.06,0,0,0-3.39-8.2A11.08,11.08,0,0,0,21.44,271.85Zm9.24,11.87.28.13v4l-.25.13-3.44,1.47-.15.05-.18-.05-7.42-3.06-.25-.1-3.67,1.52L12,286.22v-3.64l3.39-1.42,0,0v-4l3.85-1.7L27.86,279v3.52Zm-4,4.66v-2.51h0v-.1l-6.5-2.66v2.58l6.5,2.68v0Zm.43-3.29,2.28-.94-2.1-.89L25,284.2Zm3,2.18v-2.46l-2.53,1.06v2.48Z"/><path class="b" d="M63.9,269.29a14.09,14.09,0,0,1,14.2,14.17,13.5,13.5,0,0,1-4,10,14,14,0,0,1-10.15,4.2,14.26,14.26,0,0,1-14.15-14.17,13.86,13.86,0,0,1,4.18-10A13.58,13.58,0,0,1,63.9,269.29Zm.05,2.56a11,11,0,0,0-8.17,3.42,11.32,11.32,0,0,0-3.47,8.2,11.08,11.08,0,0,0,3.44,8.15,11.2,11.2,0,0,0,8.2,3.44,11.38,11.38,0,0,0,8.25-3.47,10.85,10.85,0,0,0,3.34-8.12A11.62,11.62,0,0,0,64,271.85Zm-6.33,9.62a6.33,6.33,0,0,1,2.1-4A6.19,6.19,0,0,1,63.85,276a6.86,6.86,0,0,1,5.31,2.15,7.84,7.84,0,0,1,2,5.52,7.58,7.58,0,0,1-2.05,5.43,7,7,0,0,1-5.32,2.16,6.31,6.31,0,0,1-4.15-1.44,6.13,6.13,0,0,1-2.1-4.1H61.1q.13,2.58,3.11,2.58a2.81,2.81,0,0,0,2.4-1.29,7.2,7.2,0,0,0,.08-6.87,2.77,2.77,0,0,0-2.4-1.18q-2.83,0-3.19,2.51h1l-2.81,2.81-2.81-2.81Z"/><path class="b" d="M106.42,269.29a14,14,0,0,1,14.2,14.17,13.41,13.41,0,0,1-4,9.95,14,14,0,0,1-10.15,4.23,14.28,14.28,0,0,1-14.15-14.17,13.89,13.89,0,0,1,4.18-10.07A13.57,13.57,0,0,1,106.42,269.29Zm0,2.56a11,11,0,0,0-8.16,3.39,11.35,11.35,0,0,0-3.47,8.23,11.75,11.75,0,0,0,11.64,11.59,11.32,11.32,0,0,0,8.25-3.47,10.85,10.85,0,0,0,3.34-8.12,11.58,11.58,0,0,0-11.6-11.62Zm.22,3a.57.57,0,0,1,.44.14.61.61,0,0,1,.22.42v.1l.38,6.12.28-3.39a.61.61,0,1,1,1.21,0v.1l.33,4.56.33-3.67a.59.59,0,0,1,.19-.38.56.56,0,0,1,.39-.15.64.64,0,0,1,.4.14.52.52,0,0,1,.2.37l.66,5.52.3-.73a.57.57,0,0,1,.58-.38h3.32v1.21H113l-1,2.53a.55.55,0,0,1-.66.38.56.56,0,0,1-.37-.18.65.65,0,0,1-.16-.38l-.23-1.82-.43,5.29a.59.59,0,0,1-.19.38.56.56,0,0,1-.39.15.6.6,0,0,1-.4-.15.56.56,0,0,1-.2-.38v-.08l-.35-4.38-.3,4.13a.72.72,0,0,1-.22.38.56.56,0,0,1-.39.15.6.6,0,0,1-.4-.15.56.56,0,0,1-.2-.38v-.08l-.33-4.94-.33,5.42v.08a.63.63,0,0,1-.18.44.58.58,0,0,1-.86,0,.63.63,0,0,1-.18-.44v-.05l-.33-5-.3,4.83v.08a.72.72,0,0,1-.22.38.56.56,0,0,1-.39.15.6.6,0,0,1-.41-.15.56.56,0,0,1-.2-.38v-.08h0v-.08l-.35-5.06-.28,3.24a.57.57,0,0,1-.2.38.61.61,0,0,1-.41.15.59.59,0,0,1-.39-.14.65.65,0,0,1-.22-.37l-.63-4.35-.08.15a.56.56,0,0,1-.56.33H97.26v-1.21h2.56l.78-1.59a.53.53,0,0,1,.62-.34.56.56,0,0,1,.52.49l.18,1.16.48-5.59a.61.61,0,1,1,1.21,0v.1l.28,3.95.38-5.29v-.08a.59.59,0,0,1,.19-.38.56.56,0,0,1,.39-.15.61.61,0,0,1,.4.15.57.57,0,0,1,.2.38v.08l.3,4.61.35-5.59v-.1a.5.5,0,0,1,.16-.38A.68.68,0,0,1,106.68,274.88Z"/><path class="d" d="M149,269.29a13.51,13.51,0,0,0-10,4.11,13.86,13.86,0,0,0-4.19,10.06A14.29,14.29,0,0,0,149,297.64a14,14,0,0,0,10.15-4.22,13.45,13.45,0,0,0,4-10A14,14,0,0,0,149,269.29Zm0,2.55a11.62,11.62,0,0,1,11.6,11.62,10.81,10.81,0,0,1-3.33,8.11,11.38,11.38,0,0,1-8.27,3.47,11.55,11.55,0,0,1-8.16-19.81A11,11,0,0,1,149,271.84Z"/><path class="b" d="M155.11,283.59a.66.66,0,0,0-.61.41l-.23.54-.63-5.31a.66.66,0,0,0-1.32,0l-.24,2.94-.3-3.93a.66.66,0,0,0-1.32,0l-.2,2.57-.34-5.39a.66.66,0,0,0-1.33,0l-.29,4.78-.25-3.79a.66.66,0,0,0-1.33,0l-.3,4.58-.24-3.26a.66.66,0,0,0-1.32,0l-.44,5.13-.1-.7a.66.66,0,0,0-1.26-.19l-.75,1.58H139.8v1.33h2.93a.67.67,0,0,0,.59-.36l.61,4.18a.66.66,0,0,0,1.32,0l.21-2.49.32,4.48a.66.66,0,0,0,1.33,0l.27-4,.27,4.19a.66.66,0,0,0,1.33,0l.28-4.6.26,4.1a.66.66,0,0,0,1.32,0l.26-3.35.28,3.68a.66.66,0,0,0,1.32,0l.39-4.74.15,1.28a.66.66,0,0,0,1.27.18l1-2.48h2.89v-1.33Zm-4.46.3H149.4v1.25a.43.43,0,1,1-.86,0v-1.25h-1.25a.43.43,0,1,1,0-.85h1.25v-1.25a.43.43,0,0,1,.86,0V283h1.25a.43.43,0,1,1,0,.85Z"/><path class="b" d="M191.46,269.29a14.09,14.09,0,0,1,14.2,14.17,13.5,13.5,0,0,1-4,10,14,14,0,0,1-10.15,4.2,14.26,14.26,0,0,1-14.15-14.17,13.86,13.86,0,0,1,4.18-10A13.58,13.58,0,0,1,191.46,269.29Zm.05,2.56a11,11,0,0,0-8.17,3.42,11.32,11.32,0,0,0-3.47,8.2,11.08,11.08,0,0,0,3.44,8.15,11.2,11.2,0,0,0,8.2,3.44,11.38,11.38,0,0,0,8.25-3.47,10.85,10.85,0,0,0,3.34-8.12,11.62,11.62,0,0,0-11.59-11.62Zm5.77,7.57a.78.78,0,0,1,.78.78v10.43a.78.78,0,0,1-.78.78h-7.72a.78.78,0,0,1-.78-.78v-3.09h-3.09a.78.78,0,0,1-.78-.78V276.33a.73.73,0,0,1,.2-.52.87.87,0,0,1,.51-.27h7.8a.78.78,0,0,1,.78.78v3.09ZM186.45,286h2.33v-5.8a.73.73,0,0,1,.2-.52.86.86,0,0,1,.48-.27h3.19v-2.3h-6.2Zm10.07-5h-6.2v8.88h6.2Z"/><path class="b" d="M234,275.31c-4.68,0-5.86,4.42-5.86,8.16s1.18,8.16,5.86,8.16,5.86-4.41,5.86-8.16S238.69,275.31,234,275.31Zm-2.52,8.16c0-1.65.11-5.08,2.52-5.08a2.16,2.16,0,0,1,.53.07.89.89,0,0,1,.18,1.25l-3.12,5.73A15.18,15.18,0,0,1,231.49,283.46Zm2.52,5.08a2.17,2.17,0,0,1-.53-.06l-.09,0-.15,0c-.54-.23-.87-.64-.39-1.37l3.48-6a13.58,13.58,0,0,1,.19,2.44C236.53,285.11,236.41,288.55,234,288.55Z"/><path class="b" d="M247.15,278a13.58,13.58,0,0,0-3-4.58A13.85,13.85,0,0,0,234,269.29a13.38,13.38,0,0,0-9.95,4.12,14.38,14.38,0,0,0-3.14,4.66,14.21,14.21,0,0,0,0,10.78,14.34,14.34,0,0,0,3.09,4.61,14.72,14.72,0,0,0,4.61,3.12,14.18,14.18,0,0,0,10.84,0,14.54,14.54,0,0,0,4.7-3.14,12.88,12.88,0,0,0,3-4.48,15,15,0,0,0,0-10.92Zm-8.71,16.13a11.31,11.31,0,0,1-4.4.88,11.52,11.52,0,0,1-4.41-.86,12,12,0,0,1-3.77-2.53,12.1,12.1,0,0,1-2.58-3.77,11.29,11.29,0,0,1,0-8.8,12.33,12.33,0,0,1,2.58-3.82,11,11,0,0,1,8.18-3.39,11.2,11.2,0,0,1,8.22,3.41,11.37,11.37,0,0,1,2.51,3.75,11.64,11.64,0,0,1,.86,4.46,10.88,10.88,0,0,1-3.32,8.12A12.19,12.19,0,0,1,238.44,294.14Z"/><path class="b" d="M276.5,269.29a13.83,13.83,0,0,1,10.12,4.15,13.63,13.63,0,0,1,3,4.57,14.94,14.94,0,0,1,0,10.91,13,13,0,0,1-3,4.49,14.56,14.56,0,0,1-4.71,3.14,14.11,14.11,0,0,1-5.44,1.09,13.78,13.78,0,0,1-5.38-1.08,14.59,14.59,0,0,1-7.71-7.71,14.15,14.15,0,0,1,0-10.79,14.22,14.22,0,0,1,3.13-4.64A13.4,13.4,0,0,1,276.5,269.29Zm.05,2.56a11,11,0,0,0-8.17,3.39,12.19,12.19,0,0,0-2.57,3.81,11.24,11.24,0,0,0,0,8.81,12,12,0,0,0,6.34,6.3,11.5,11.5,0,0,0,8.82,0,12.23,12.23,0,0,0,3.86-2.56,10.89,10.89,0,0,0,3.32-8.12,11.64,11.64,0,0,0-.86-4.45,11.34,11.34,0,0,0-2.51-3.75A11.21,11.21,0,0,0,276.55,271.85Zm-.18,9.26-1.9,1a1.94,1.94,0,0,0-.75-.89,1.68,1.68,0,0,0-.82-.25q-1.9,0-1.9,2.51a3.11,3.11,0,0,0,.48,1.82,1.62,1.62,0,0,0,1.42.68,1.77,1.77,0,0,0,1.75-1.22l1.75.89a4.37,4.37,0,0,1-6.78,1.06,5,5,0,0,1,0-6.45,4.42,4.42,0,0,1,6.74.86Zm8.17,0-1.87,1a1.94,1.94,0,0,0-.75-.89,1.72,1.72,0,0,0-.85-.25q-1.9,0-1.9,2.51a3.11,3.11,0,0,0,.48,1.82,1.62,1.62,0,0,0,1.42.68,1.77,1.77,0,0,0,1.75-1.22l1.77.89a4.35,4.35,0,0,1-1.57,1.63,4.45,4.45,0,0,1-5.23-.57,5.05,5.05,0,0,1,0-6.45,4,4,0,0,1,3-1.19A3.92,3.92,0,0,1,284.55,281.11Z"/><path class="b" d="M319,269.29a14,14,0,0,1,14.2,14.17,13.36,13.36,0,0,1-4,9.95A14,14,0,0,1,319,297.64a14.26,14.26,0,0,1-14.15-14.17,13.89,13.89,0,0,1,4.18-10.07A13.57,13.57,0,0,1,319,269.29Zm.05,2.56a11,11,0,0,0-8.17,3.39,11.4,11.4,0,0,0-3.47,8.23,11.75,11.75,0,0,0,11.64,11.59,11.38,11.38,0,0,0,8.25-3.47,10.79,10.79,0,0,0,3.34-8.12,11.58,11.58,0,0,0-11.59-11.62Zm3.8,8.1v5.8h-1.62v6.88h-4.4v-6.88h-1.62v-5.8a.91.91,0,0,1,.91-.91H322a.89.89,0,0,1,.63.27A.86.86,0,0,1,322.87,279.95Zm-5.8-3.64a2,2,0,1,1,2,2A1.76,1.76,0,0,1,317.07,276.3Z"/><path class="b" d="M371.63,273.4a13.71,13.71,0,0,0-10.08-4.11,13.51,13.51,0,0,0-10,4.11,13.86,13.86,0,0,0-4.19,10.06,14.29,14.29,0,0,0,14.15,14.17,14,14,0,0,0,10.15-4.22,13.45,13.45,0,0,0,4-10A13.68,13.68,0,0,0,371.63,273.4Zm-18.24,18.21a11.13,11.13,0,0,1-3.44-8.15,11.42,11.42,0,0,1,.52-3.44l7.26,3.23h-1.6v2.21h3.32l.32.67v1.07h-3.64v2.21h3.64v3.2h3.53v-3.2H367v-2l4.63,2.06a11,11,0,0,1-1.74,2.15,11.37,11.37,0,0,1-8.27,3.47A11.2,11.2,0,0,1,353.39,291.61Zm8.2-19.77a11.62,11.62,0,0,1,11.6,11.62,12.15,12.15,0,0,1-.45,3.37L367,284.27v-1h-2.21l3.6-6.63H364.6l-2.48,5.49-1.32-.59-2.26-4.9h-3.76l1.56,2.91-4.68-2.08a13,13,0,0,1,1.77-2.21A11,11,0,0,1,361.59,271.84Z"/><path class="b" d="M414.14,273.4a13.71,13.71,0,0,0-10.08-4.11,13.51,13.51,0,0,0-10,4.11,13.86,13.86,0,0,0-4.19,10.06,14.29,14.29,0,0,0,14.15,14.17,14,14,0,0,0,10.15-4.22,13.45,13.45,0,0,0,4-10A13.67,13.67,0,0,0,414.14,273.4Zm-1.77,18.18A11.37,11.37,0,0,1,404.1,295a11.74,11.74,0,0,1-11.64-11.59,11.32,11.32,0,0,1,.62-3.77l3.76,1.66h-.27V283h1.33c0,.24,0,.48,0,.71v.4h-1.31v1.68h1.54a6.69,6.69,0,0,0,1.33,3.08,7.14,7.14,0,0,0,5.79,2.7,8,8,0,0,0,3.7-.9l-.57-2.63a6.58,6.58,0,0,1-2.7.62,4,4,0,0,1-3.06-1.21,3.73,3.73,0,0,1-.78-1.66H407l7.33,3.24A11,11,0,0,1,412.37,291.58Zm-9.22-7.42,0,0,.05,0Zm4.41-1.12h.21v-1.68h-4l-1.63-.72a3.26,3.26,0,0,1,.5-.82,3.61,3.61,0,0,1,2.92-1.28,7,7,0,0,1,2.63.57l.66-2.71a9,9,0,0,0-3.56-.71,6.93,6.93,0,0,0-6.28,3.57l-4.66-2.06a13,13,0,0,1,1.6-1.95,11,11,0,0,1,8.16-3.4,11.62,11.62,0,0,1,11.6,11.62,12.34,12.34,0,0,1-.36,3Z"/><path class="b" d="M446.58,269.29a14,14,0,0,1,14.2,14.17,13.36,13.36,0,0,1-4,9.95,14,14,0,0,1-10.15,4.23,14.3,14.3,0,0,1-14.15-14.17,13.89,13.89,0,0,1,4.18-10.07A13.57,13.57,0,0,1,446.58,269.29Zm-11,10.35a11.51,11.51,0,0,0,2.81,12,11.55,11.55,0,0,0,16.45-.05,10.4,10.4,0,0,0,1.95-2.48l-5.34-2.38a3.65,3.65,0,0,1-1.35,2.19,4.66,4.66,0,0,1-2.54,1V292h-1.65v-2.18a6.57,6.57,0,0,1-4.3-1.7l1.95-2a4.53,4.53,0,0,0,3.16,1.29,2.29,2.29,0,0,0,1.25-.33,1.19,1.19,0,0,0,.52-1.09,1.08,1.08,0,0,0-.38-.86l-1.37-.58-1.67-.76-2.25-1Zm11-7.82a11,11,0,0,0-8.17,3.42,13.59,13.59,0,0,0-1.57,1.9l5.42,2.43a3.33,3.33,0,0,1,1.34-1.78,4.48,4.48,0,0,1,2.3-.75v-2.18h1.65V277a6.27,6.27,0,0,1,3.54,1.32l-1.85,1.9a4.19,4.19,0,0,0-2.43-.84,2.65,2.65,0,0,0-1.18.25.88.88,0,0,0-.52.86.6.6,0,0,0,.13.35l1.8.81,1.24.56,2.28,1,7.26,3.24a13.12,13.12,0,0,0,.35-3,11.62,11.62,0,0,0-11.59-11.64Z"/><path class="b" d="M489.1,269.29a14.09,14.09,0,0,1,14.2,14.17,13.5,13.5,0,0,1-4,10,14,14,0,0,1-10.15,4.2A14.26,14.26,0,0,1,475,283.46a13.86,13.86,0,0,1,4.18-10A13.58,13.58,0,0,1,489.1,269.29Zm.05,2.56a11,11,0,0,0-8.17,3.42,11.32,11.32,0,0,0-3.47,8.2,11.08,11.08,0,0,0,3.44,8.15,11.2,11.2,0,0,0,8.2,3.44,11.38,11.38,0,0,0,8.25-3.47,10.85,10.85,0,0,0,3.34-8.12,11.62,11.62,0,0,0-11.59-11.62Zm5.34,8.28v2.43h-10.3v-2.43Zm0,4.56v2.43h-10.3v-2.43Z"/><path class="b" d="M531.62,269.29a14,14,0,0,1,14.2,14.17,13.41,13.41,0,0,1-4,9.95,14,14,0,0,1-10.15,4.23,14.28,14.28,0,0,1-14.15-14.17,13.89,13.89,0,0,1,4.18-10.07A13.57,13.57,0,0,1,531.62,269.29Zm0,2.56a11,11,0,0,0-8.16,3.39,11.35,11.35,0,0,0-3.47,8.23,11.75,11.75,0,0,0,11.64,11.59,11.32,11.32,0,0,0,8.25-3.47,10.85,10.85,0,0,0,3.34-8.12,11.58,11.58,0,0,0-11.6-11.62ZM525,287.31v-7.85h3.9q2.88,0,2.89,2.66a2.75,2.75,0,0,1-.14.87,2.67,2.67,0,0,1-.48.84,2.43,2.43,0,0,1-1,.68,4.47,4.47,0,0,1-1.62.27H527v2.53Zm1.95-6.38v2.38h1.67a1.16,1.16,0,0,0,.91-.34,1.23,1.23,0,0,0,.3-.85q0-1.19-1.27-1.19Zm5.37,6.38v-7.85h3a4.22,4.22,0,0,1,2.94,1,4.66,4.66,0,0,1,0,5.92,4.22,4.22,0,0,1-2.94,1Zm1.95-6.2v4.56h1.14a1.76,1.76,0,0,0,1.51-.62,3.17,3.17,0,0,0,0-3.32,1.8,1.8,0,0,0-1.53-.62Z"/></g><g class="a"><path class="d" d="M1.55,311.81a13.51,13.51,0,0,0-10,4.11A13.86,13.86,0,0,0-12.61,326a13.62,13.62,0,0,0,4.19,10,13.62,13.62,0,0,0,10,4.18,14,14,0,0,0,10.15-4.22,13.45,13.45,0,0,0,4-10,13.68,13.68,0,0,0-4.12-10.06A13.71,13.71,0,0,0,1.55,311.81Zm0,2.55a11.11,11.11,0,0,1,8.2,3.4,11.12,11.12,0,0,1,3.4,8.22,10.81,10.81,0,0,1-3.33,8.11,11.38,11.38,0,0,1-8.27,3.47,11.2,11.2,0,0,1-8.19-3.44A11.13,11.13,0,0,1-10.05,326a11.3,11.3,0,0,1,3.48-8.22A11,11,0,0,1,1.59,314.36Z"/><path class="b" d="M7.71,326.11a.66.66,0,0,0-.61.41l-.23.54-.63-5.31a.66.66,0,0,0-1.32,0l-.24,2.94-.3-3.93a.66.66,0,0,0-1.32,0l-.2,2.57L2.51,318a.66.66,0,0,0-1.33,0l-.29,4.78L.65,319a.66.66,0,0,0-.66-.62.66.66,0,0,0-.66.62l-.3,4.58-.24-3.26a.66.66,0,0,0-.66-.62.67.67,0,0,0-.67.61L-3,325.42l-.1-.7a.67.67,0,0,0-.56-.56.66.66,0,0,0-.7.37l-.75,1.58H-7.61v1.33h2.93a.67.67,0,0,0,.59-.36l.61,4.18a.66.66,0,0,0,.68.57.67.67,0,0,0,.64-.61l.21-2.49.32,4.48a.66.66,0,0,0,.67.62.66.66,0,0,0,.66-.62l.27-4,.27,4.19a.66.66,0,0,0,1.33,0l.28-4.6.26,4.1a.66.66,0,0,0,1.32,0l.26-3.35L4,333.21a.66.66,0,0,0,1.32,0l.39-4.74.15,1.28a.66.66,0,0,0,1.27.18l1-2.48H11v-1.33Zm-4.46.3H2v1.25a.43.43,0,1,1-.86,0v-1.25H-.11A.43.43,0,0,1-.54,326a.43.43,0,0,1,.43-.43H1.14V324.3a.43.43,0,0,1,.86,0v1.25H3.25a.43.43,0,1,1,0,.85Z"/><path class="b" d="M44.06,311.81A14.09,14.09,0,0,1,58.26,326a13.5,13.5,0,0,1-4,10,14,14,0,0,1-10.15,4.2A14.26,14.26,0,0,1,29.91,326a13.86,13.86,0,0,1,4.18-10A13.58,13.58,0,0,1,44.06,311.81Zm.05,2.56a11,11,0,0,0-8.17,3.42,11.32,11.32,0,0,0-3.47,8.2,11.08,11.08,0,0,0,3.44,8.15,11.2,11.2,0,0,0,8.2,3.44,11.38,11.38,0,0,0,8.25-3.47A10.85,10.85,0,0,0,55.7,326a11.62,11.62,0,0,0-11.59-11.62Zm5.77,7.57a.78.78,0,0,1,.78.78v10.43a.78.78,0,0,1-.78.78H42.16a.78.78,0,0,1-.78-.78v-3.09H38.29a.78.78,0,0,1-.78-.78V318.85a.73.73,0,0,1,.2-.52.87.87,0,0,1,.51-.27H46a.78.78,0,0,1,.78.78v3.09Zm-10.83,6.58h2.33v-5.8a.73.73,0,0,1,.2-.52.86.86,0,0,1,.48-.27h3.19v-2.3h-6.2Zm10.07-5h-6.2v8.88h6.2Z"/><path class="b" d="M86.61,317.83c-4.68,0-5.86,4.42-5.86,8.16s1.18,8.16,5.86,8.16,5.86-4.41,5.86-8.16S91.29,317.83,86.61,317.83ZM84.09,326c0-1.65.11-5.08,2.52-5.08a2.16,2.16,0,0,1,.53.07.89.89,0,0,1,.18,1.25l-3.12,5.73A15.18,15.18,0,0,1,84.09,326Zm2.52,5.08a2.17,2.17,0,0,1-.53-.06L86,331l-.15,0c-.54-.23-.87-.64-.39-1.37l3.48-6a13.58,13.58,0,0,1,.19,2.44C89.13,327.63,89,331.07,86.61,331.07Z"/><path class="b" d="M99.75,320.54a13.58,13.58,0,0,0-3-4.58,13.85,13.85,0,0,0-10.13-4.15,13.38,13.38,0,0,0-9.95,4.12,14.38,14.38,0,0,0-3.14,4.66,14.21,14.21,0,0,0,0,10.78A14.34,14.34,0,0,0,76.58,336a14.72,14.72,0,0,0,4.61,3.12,14.18,14.18,0,0,0,10.84,0,14.54,14.54,0,0,0,4.7-3.14,12.88,12.88,0,0,0,3-4.48,15,15,0,0,0,0-10.92ZM91,336.66a11.31,11.31,0,0,1-4.4.88,11.52,11.52,0,0,1-4.41-.86,12,12,0,0,1-3.77-2.53,12.1,12.1,0,0,1-2.58-3.77,11.29,11.29,0,0,1,0-8.8,12.33,12.33,0,0,1,2.58-3.82,11,11,0,0,1,8.18-3.39,11.2,11.2,0,0,1,8.22,3.41,11.37,11.37,0,0,1,2.51,3.75,11.64,11.64,0,0,1,.86,4.46,10.88,10.88,0,0,1-3.32,8.12A12.19,12.19,0,0,1,91,336.66Z"/><path class="b" d="M129.1,311.81A13.83,13.83,0,0,1,139.23,316a13.63,13.63,0,0,1,3,4.57,14.94,14.94,0,0,1,0,10.91,13,13,0,0,1-3,4.49,14.56,14.56,0,0,1-4.71,3.14,14.11,14.11,0,0,1-5.44,1.09,13.78,13.78,0,0,1-5.38-1.08,14.59,14.59,0,0,1-7.71-7.71,14.15,14.15,0,0,1,0-10.79,14.22,14.22,0,0,1,3.13-4.64A13.4,13.4,0,0,1,129.1,311.81Zm.05,2.56a11,11,0,0,0-8.17,3.39,12.19,12.19,0,0,0-2.57,3.81,11.24,11.24,0,0,0,0,8.81,12,12,0,0,0,6.34,6.3,11.5,11.5,0,0,0,8.82,0,12.23,12.23,0,0,0,3.86-2.56,10.89,10.89,0,0,0,3.32-8.12,11.64,11.64,0,0,0-.86-4.45,11.34,11.34,0,0,0-2.51-3.75A11.21,11.21,0,0,0,129.15,314.37Zm-.18,9.26-1.9,1a1.94,1.94,0,0,0-.75-.89,1.68,1.68,0,0,0-.82-.25q-1.9,0-1.9,2.51a3.11,3.11,0,0,0,.48,1.82,1.62,1.62,0,0,0,1.42.68,1.77,1.77,0,0,0,1.75-1.22l1.75.89a4.37,4.37,0,0,1-6.78,1.06,5,5,0,0,1,0-6.45,4.42,4.42,0,0,1,6.74.86Zm8.17,0-1.87,1a1.94,1.94,0,0,0-.75-.89,1.72,1.72,0,0,0-.85-.25q-1.9,0-1.9,2.51a3.11,3.11,0,0,0,.48,1.82,1.62,1.62,0,0,0,1.42.68,1.77,1.77,0,0,0,1.75-1.22l1.77.89a4.35,4.35,0,0,1-1.57,1.63,4.45,4.45,0,0,1-5.23-.57,5.05,5.05,0,0,1,0-6.45,4,4,0,0,1,3-1.19A3.92,3.92,0,0,1,137.15,323.63Z"/><path class="b" d="M171.62,311.81A14,14,0,0,1,185.82,326a13.36,13.36,0,0,1-4,9.95,14,14,0,0,1-10.15,4.23A14.26,14.26,0,0,1,157.47,326a13.89,13.89,0,0,1,4.18-10.07A13.57,13.57,0,0,1,171.62,311.81Zm.05,2.56a11,11,0,0,0-8.17,3.39A11.4,11.4,0,0,0,160,326a11.75,11.75,0,0,0,11.64,11.59,11.38,11.38,0,0,0,8.25-3.47,10.79,10.79,0,0,0,3.34-8.12,11.58,11.58,0,0,0-11.59-11.62Zm3.8,8.1v5.8h-1.62v6.88h-4.4v-6.88h-1.62v-5.8a.91.91,0,0,1,.91-.91h5.82a.89.89,0,0,1,.63.27A.86.86,0,0,1,175.47,322.47Zm-5.8-3.64a2,2,0,1,1,2,2A1.76,1.76,0,0,1,169.67,318.82Z"/><path class="b" d="M224.22,315.92a13.71,13.71,0,0,0-10.08-4.11,13.51,13.51,0,0,0-10,4.11A13.86,13.86,0,0,0,200,326a14.29,14.29,0,0,0,14.15,14.17,14,14,0,0,0,10.15-4.22,13.45,13.45,0,0,0,4-10A13.68,13.68,0,0,0,224.22,315.92ZM206,334.13a11.13,11.13,0,0,1-3.44-8.15,11.42,11.42,0,0,1,.52-3.44l7.26,3.23h-1.6V328H212l.32.67v1.07h-3.64v2.21h3.64v3.2h3.53v-3.2h3.67v-2l4.63,2.06a11,11,0,0,1-1.74,2.15,11.37,11.37,0,0,1-8.27,3.47A11.2,11.2,0,0,1,206,334.13Zm8.2-19.77A11.62,11.62,0,0,1,225.78,326a12.15,12.15,0,0,1-.45,3.37l-5.77-2.57v-1h-2.21l3.6-6.63h-3.76l-2.48,5.49L213.4,324l-2.26-4.9h-3.76l1.56,2.91L204.26,320a13,13,0,0,1,1.77-2.21A11,11,0,0,1,214.18,314.36Z"/><path class="b" d="M266.74,315.92a13.71,13.71,0,0,0-10.08-4.11,13.51,13.51,0,0,0-10,4.11A13.86,13.86,0,0,0,242.51,326a14.29,14.29,0,0,0,14.15,14.17,14,14,0,0,0,10.15-4.22,13.45,13.45,0,0,0,4-10A13.67,13.67,0,0,0,266.74,315.92ZM265,334.1a11.37,11.37,0,0,1-8.27,3.47A11.74,11.74,0,0,1,245.07,326a11.32,11.32,0,0,1,.62-3.77l3.76,1.66h-.27v1.68h1.33c0,.24,0,.48,0,.71v.4h-1.31v1.68h1.54a6.69,6.69,0,0,0,1.33,3.08,7.14,7.14,0,0,0,5.79,2.7,8,8,0,0,0,3.7-.9l-.57-2.63a6.58,6.58,0,0,1-2.7.62A4,4,0,0,1,255.2,330a3.73,3.73,0,0,1-.78-1.66h5.16l7.33,3.24A11,11,0,0,1,265,334.1Zm-9.22-7.42,0,0,.05,0Zm4.41-1.12h.21v-1.68h-4l-1.63-.72a3.26,3.26,0,0,1,.5-.82,3.61,3.61,0,0,1,2.92-1.28,7,7,0,0,1,2.63.57l.66-2.71a9,9,0,0,0-3.56-.71,6.93,6.93,0,0,0-6.28,3.57l-4.66-2.06a13,13,0,0,1,1.6-1.95,11,11,0,0,1,8.16-3.4A11.62,11.62,0,0,1,268.3,326a12.34,12.34,0,0,1-.36,3Z"/><path class="b" d="M299.18,311.81A14,14,0,0,1,313.38,326a13.36,13.36,0,0,1-4,9.95,14,14,0,0,1-10.15,4.23A14.3,14.3,0,0,1,285,326a13.89,13.89,0,0,1,4.18-10.07A13.57,13.57,0,0,1,299.18,311.81Zm-11,10.35a11.51,11.51,0,0,0,2.81,12,11.55,11.55,0,0,0,16.45-.05,10.4,10.4,0,0,0,1.95-2.48l-5.34-2.38a3.65,3.65,0,0,1-1.35,2.19,4.66,4.66,0,0,1-2.54,1v2.18h-1.65v-2.18a6.57,6.57,0,0,1-4.3-1.7l1.95-2a4.53,4.53,0,0,0,3.16,1.29,2.29,2.29,0,0,0,1.25-.33,1.19,1.19,0,0,0,.52-1.09,1.08,1.08,0,0,0-.38-.86l-1.37-.58-1.67-.76-2.25-1Zm11-7.82a11,11,0,0,0-8.17,3.42,13.59,13.59,0,0,0-1.57,1.9l5.42,2.43a3.33,3.33,0,0,1,1.34-1.78,4.48,4.48,0,0,1,2.3-.75v-2.18h1.65v2.18a6.27,6.27,0,0,1,3.54,1.32l-1.85,1.9a4.19,4.19,0,0,0-2.43-.84,2.65,2.65,0,0,0-1.18.25.88.88,0,0,0-.52.86.6.6,0,0,0,.13.35l1.8.81,1.24.56,2.28,1,7.26,3.24a13.12,13.12,0,0,0,.35-3,11.62,11.62,0,0,0-11.59-11.64Z"/><path class="b" d="M341.7,311.81A14.09,14.09,0,0,1,355.9,326a13.5,13.5,0,0,1-4,10,14,14,0,0,1-10.15,4.2A14.26,14.26,0,0,1,327.55,326a13.86,13.86,0,0,1,4.18-10A13.58,13.58,0,0,1,341.7,311.81Zm.05,2.56a11,11,0,0,0-8.17,3.42,11.32,11.32,0,0,0-3.47,8.2,11.08,11.08,0,0,0,3.44,8.15,11.2,11.2,0,0,0,8.2,3.44,11.38,11.38,0,0,0,8.25-3.47,10.85,10.85,0,0,0,3.34-8.12,11.62,11.62,0,0,0-11.59-11.62Zm5.34,8.28v2.43h-10.3v-2.43Zm0,4.56v2.43h-10.3V327.2Z"/><path class="b" d="M384.22,311.81A14,14,0,0,1,398.42,326a13.41,13.41,0,0,1-4,9.95,14,14,0,0,1-10.15,4.23A14.28,14.28,0,0,1,370.07,326a13.89,13.89,0,0,1,4.18-10.07A13.57,13.57,0,0,1,384.22,311.81Zm0,2.56a11,11,0,0,0-8.16,3.39,11.35,11.35,0,0,0-3.47,8.23,11.75,11.75,0,0,0,11.64,11.59,11.32,11.32,0,0,0,8.25-3.47,10.85,10.85,0,0,0,3.34-8.12,11.58,11.58,0,0,0-11.6-11.62Zm-6.67,15.46V322h3.9q2.88,0,2.89,2.66a2.75,2.75,0,0,1-.14.87,2.67,2.67,0,0,1-.48.84,2.43,2.43,0,0,1-1,.68,4.47,4.47,0,0,1-1.62.27h-1.54v2.53Zm1.95-6.38v2.38h1.67a1.16,1.16,0,0,0,.91-.34,1.23,1.23,0,0,0,.3-.85q0-1.19-1.27-1.19Zm5.37,6.38V322h3a4.22,4.22,0,0,1,2.94,1,4.66,4.66,0,0,1,0,5.92,4.22,4.22,0,0,1-2.94,1Zm1.95-6.2v4.56H388a1.76,1.76,0,0,0,1.51-.62,3.17,3.17,0,0,0,0-3.32,1.8,1.8,0,0,0-1.53-.62Z"/><path class="b" d="M426.74,311.81A14.09,14.09,0,0,1,440.94,326a13.5,13.5,0,0,1-4,10,14,14,0,0,1-10.15,4.2A14.26,14.26,0,0,1,412.59,326a13.86,13.86,0,0,1,4.18-10A13.58,13.58,0,0,1,426.74,311.81Zm.05,2.56a11,11,0,0,0-8.17,3.42,11.32,11.32,0,0,0-3.47,8.2,11.08,11.08,0,0,0,3.44,8.15,11.2,11.2,0,0,0,8.2,3.44,11.38,11.38,0,0,0,8.25-3.47,10.85,10.85,0,0,0,3.34-8.12,11.62,11.62,0,0,0-11.59-11.62ZM436,326.24l.28.13v4l-.25.13L432.61,332l-.15.05-.18-.05-7.42-3.06-.25-.1-3.67,1.52-3.62-1.57V325.1l3.39-1.42,0,0v-4l3.85-1.7,8.68,3.59v3.52Zm-4,4.66v-2.51h0v-.1l-6.5-2.66v2.58l6.5,2.68v0Zm.43-3.29,2.28-.94-2.1-.89-2.23.94Zm3,2.18v-2.46l-2.53,1.06v2.48Z"/><path class="b" d="M469.26,311.81A14.09,14.09,0,0,1,483.46,326a13.5,13.5,0,0,1-4,10,14,14,0,0,1-10.15,4.2A14.26,14.26,0,0,1,455.11,326a13.86,13.86,0,0,1,4.18-10A13.58,13.58,0,0,1,469.26,311.81Zm.05,2.56a11,11,0,0,0-8.17,3.42,11.32,11.32,0,0,0-3.47,8.2,11.08,11.08,0,0,0,3.44,8.15,11.2,11.2,0,0,0,8.2,3.44,11.38,11.38,0,0,0,8.25-3.47A10.85,10.85,0,0,0,480.9,326a11.62,11.62,0,0,0-11.59-11.62ZM463,324a6.33,6.33,0,0,1,2.1-4,6.19,6.19,0,0,1,4.13-1.43,6.86,6.86,0,0,1,5.31,2.15,7.84,7.84,0,0,1,2,5.52,7.58,7.58,0,0,1-2.05,5.43,7,7,0,0,1-5.32,2.16,6.31,6.31,0,0,1-4.15-1.44,6.13,6.13,0,0,1-2.1-4.1h3.57q.13,2.58,3.11,2.58a2.81,2.81,0,0,0,2.4-1.29,7.2,7.2,0,0,0,.08-6.87,2.77,2.77,0,0,0-2.4-1.18q-2.83,0-3.19,2.51h1l-2.81,2.81L461.87,324Z"/><path class="b" d="M511.78,311.81A14,14,0,0,1,526,326a13.41,13.41,0,0,1-4,9.95,14,14,0,0,1-10.15,4.23A14.28,14.28,0,0,1,497.63,326a13.89,13.89,0,0,1,4.18-10.07A13.57,13.57,0,0,1,511.78,311.81Zm0,2.56a11,11,0,0,0-8.16,3.39,11.35,11.35,0,0,0-3.47,8.23,11.75,11.75,0,0,0,11.64,11.59,11.32,11.32,0,0,0,8.25-3.47,10.85,10.85,0,0,0,3.34-8.12,11.58,11.58,0,0,0-11.6-11.62Zm.22,3a.57.57,0,0,1,.44.14.61.61,0,0,1,.22.42v.1l.38,6.12.28-3.39a.61.61,0,1,1,1.21,0v.1l.33,4.56.33-3.67a.59.59,0,0,1,.19-.38.56.56,0,0,1,.39-.15.64.64,0,0,1,.4.14.52.52,0,0,1,.2.37l.66,5.52.3-.73a.57.57,0,0,1,.58-.38h3.32v1.21h-2.91l-1,2.53a.55.55,0,0,1-.66.38.56.56,0,0,1-.37-.18.65.65,0,0,1-.16-.38l-.23-1.82-.43,5.29a.59.59,0,0,1-.19.38.56.56,0,0,1-.39.15.6.6,0,0,1-.4-.15.56.56,0,0,1-.2-.38v-.08l-.35-4.38-.3,4.13a.72.72,0,0,1-.22.38.56.56,0,0,1-.39.15.6.6,0,0,1-.4-.15.56.56,0,0,1-.2-.38v-.08l-.33-4.94-.33,5.42v.08a.63.63,0,0,1-.18.44.58.58,0,0,1-.86,0,.63.63,0,0,1-.18-.44v-.05l-.33-5-.3,4.83v.08a.72.72,0,0,1-.22.38.56.56,0,0,1-.39.15.6.6,0,0,1-.41-.15.56.56,0,0,1-.2-.38v-.08h0V333l-.35-5.06-.28,3.24a.57.57,0,0,1-.2.38.61.61,0,0,1-.41.15.59.59,0,0,1-.39-.14.65.65,0,0,1-.22-.37l-.63-4.35-.08.15a.56.56,0,0,1-.56.33h-2.94v-1.21h2.56l.78-1.59a.53.53,0,0,1,.62-.34.56.56,0,0,1,.52.49l.18,1.16.48-5.59a.61.61,0,1,1,1.21,0v.1l.28,3.95.38-5.29V319a.59.59,0,0,1,.19-.38.56.56,0,0,1,.39-.15.61.61,0,0,1,.4.15.57.57,0,0,1,.2.38V319l.3,4.61.35-5.59V318a.5.5,0,0,1,.16-.38A.68.68,0,0,1,512,317.4Z"/><path class="d" d="M554.31,311.81a13.51,13.51,0,0,0-10,4.11A13.86,13.86,0,0,0,540.15,326a14.29,14.29,0,0,0,14.16,14.17,14,14,0,0,0,10.15-4.22,13.45,13.45,0,0,0,4-10,14,14,0,0,0-14.19-14.17Zm0,2.55A11.62,11.62,0,0,1,565.94,326a10.81,10.81,0,0,1-3.33,8.11,11.38,11.38,0,0,1-8.27,3.47,11.55,11.55,0,0,1-8.16-19.81A11,11,0,0,1,554.34,314.36Z"/><path class="b" d="M560.46,326.11a.66.66,0,0,0-.61.41l-.23.54-.63-5.31a.66.66,0,0,0-1.32,0l-.24,2.94-.3-3.93a.66.66,0,0,0-1.32,0l-.2,2.57-.34-5.39a.66.66,0,0,0-1.33,0l-.29,4.78L553.4,319a.66.66,0,0,0-1.33,0l-.3,4.58-.24-3.26a.66.66,0,0,0-1.32,0l-.44,5.13-.1-.7a.66.66,0,0,0-1.26-.19l-.75,1.58h-2.51v1.33h2.93a.67.67,0,0,0,.59-.36l.61,4.18a.66.66,0,0,0,1.32,0l.21-2.49.32,4.48a.66.66,0,0,0,1.33,0l.27-4,.27,4.19a.66.66,0,0,0,1.33,0l.28-4.6.26,4.1a.66.66,0,0,0,1.32,0l.26-3.35.28,3.68a.66.66,0,0,0,1.32,0l.39-4.74.15,1.28a.66.66,0,0,0,1.27.18l1-2.48h2.89v-1.33Zm-4.46.3h-1.25v1.25a.43.43,0,1,1-.86,0v-1.25h-1.25a.43.43,0,1,1,0-.85h1.25V324.3a.43.43,0,0,1,.86,0v1.25H556a.43.43,0,1,1,0,.85Z"/></g></svg>