<svg width="100%" height="100%" viewBox="0 0 1226 930" version="1.1" xmlns="http://www.w3.org/2000/svg" xmlns:xlink="http://www.w3.org/1999/xlink" xml:space="preserve" xmlns:serif="http://www.serif.com/" style="fill-rule:evenodd;clip-rule:evenodd;stroke-linejoin:round;stroke-miterlimit:1.41421;">
    <g transform="matrix(1,0,0,1,-155.961,-270.055)">
        <g transform="matrix(1,0,0,1,155.961,270.055)">
            <path d="M0.204,68.003C0.267,63.399 1.235,58.741 3.286,54.217C10.16,39.054 24.914,29.123 39.32,21.978C73.423,5.064 113.072,-0.051 150.947,0.001C192.036,0.172 234.456,6.03 268.95,26.457C283.806,35.255 298,47.573 299.826,65.557C299.94,66.687 299.992,67.809 299.985,68.924L300,69C300,138.082 300.248,207.165 299.999,276.247C299.819,292.743 286.825,306.787 273.929,315.411C249.458,331.777 219.609,338.898 190.144,342.562C147.531,347.863 103.288,345.526 62.715,332.412C45.209,326.754 27.886,319.118 14.558,306.23C6.396,298.337 0.043,287.889 0,276.011L0,69C0.078,68.608 0.143,68.283 0.204,68.003ZM288,231.341C284.115,236.006 279.47,240.093 274.764,243.412C253.154,258.653 226.504,265.895 200.124,270.124C157.597,276.942 113.208,275.497 72.179,264.157C51.003,258.305 29.593,250.021 14.349,234.191C13.507,233.316 12.688,232.411 11.901,231.478C11.916,246.372 11.947,261.266 12.001,276.16C12.12,287.153 20.711,296.524 28.923,302.725C47.526,316.773 70.934,323.603 94.276,327.999C139.668,336.549 187.65,335.134 230.867,321.854C249.746,316.053 269.211,308.316 281.435,292.843C285.222,288.049 287.978,282.21 288,275.989L288,231.341ZM43.014,273.856C48.071,273.856 52.176,277.961 52.176,283.018C52.176,288.074 48.071,292.179 43.014,292.179C37.957,292.179 33.852,288.074 33.852,283.018C33.852,277.961 37.957,273.856 43.014,273.856ZM288,162.702C281.759,170.025 273.282,175.977 264.382,180.84C231.002,199.081 191.458,204.667 152.821,204.988C115.333,205.3 77.085,200.405 43.503,184.811C31.814,179.383 19.95,172.232 11.916,162.862C11.897,180.76 11.885,198.658 11.891,216.557C15.608,225.959 24.104,233.136 32.109,238.417C51.297,251.075 74.201,257.536 97.266,261.575C142.147,269.435 189.15,267.933 232.148,254.551C250.871,248.724 269.828,241.283 282.603,225.584C284.793,222.891 286.68,219.904 288,216.684L288,162.702ZM43.014,206.052C48.071,206.052 52.176,210.157 52.176,215.214C52.176,220.271 48.071,224.376 43.014,224.376C37.957,224.376 33.852,220.271 33.852,215.214C33.852,210.157 37.957,206.052 43.014,206.052ZM288,96.068C281.605,103.2 273.306,109.298 264.772,113.905C242.732,125.802 217.799,131.89 192.747,135.227C147.7,141.229 100.729,138.7 58.468,123.987C41.199,117.975 24.011,109.777 11.988,96.613C11.975,113.618 11.953,130.624 11.933,147.629C16.679,159.657 28.298,167.65 38.934,173.534C68.764,190.036 103.909,195.55 138.159,196.787C178.461,198.243 220,193.822 255.68,176.337C265.715,171.42 275.417,165.415 282.603,156.584C284.793,153.891 286.68,150.904 288,147.684L288,96.068ZM43.014,138.248C48.071,138.248 52.176,142.354 52.176,147.41C52.176,152.467 48.071,156.572 43.014,156.572C37.957,156.572 33.852,152.467 33.852,147.41C33.852,142.354 37.957,138.248 43.014,138.248ZM12,70.079C12.075,71.284 12.245,72.512 12.517,73.763C15.749,88.597 31.062,98.655 45.475,105.676C65.99,115.669 88.619,120.829 111.338,123.654C147.863,128.197 185.333,126.727 220.922,117.644C241.495,112.393 262.519,105.061 277.583,90.131C284.679,83.099 289.838,73.444 287.296,63.447C284.526,52.554 275.206,44.697 266.132,38.823C244.111,24.567 217.637,18.195 191.163,14.668C177.229,12.811 163.257,11.982 149.086,12.001C111.605,12.157 73.206,17.124 40.67,34.795C26.625,42.423 11.87,53.722 11.956,68.778L12,69L12,70.079Z"/>
        </g>
        <g transform="matrix(1,0,0,1,155.961,270.055)">
            <path d="M257.009,140.599L372.916,140.599L372.916,140.6L373.208,140.599C407.825,140.599 435.929,168.703 435.929,203.32C435.929,237.936 407.825,266.04 373.208,266.04L372.916,266.039L372.916,266.04L257.009,266.04C222.393,266.04 194.288,237.936 194.288,203.32C194.288,168.704 222.392,140.6 257.009,140.599Z" style="fill:rgb(97,188,48);"/>
        </g>
        <g transform="matrix(3.73809,0,0,3.73809,360.263,420.107)">
            <path d="M14.1,0C18.1,0 21.4,1.4 24.2,4.2C25.5,5.5 26.5,7.1 27.2,8.8C27.9,10.5 28.2,12.3 28.2,14.3C28.2,16.2 27.9,18.1 27.2,19.8C26.5,21.5 25.5,23 24.2,24.3C22.8,25.7 21.2,26.7 19.5,27.4C17.7,28.1 15.9,28.5 14.1,28.5C12.2,28.5 10.4,28.1 8.7,27.4C7,26.7 5.5,25.6 4.1,24.3C2.7,22.9 1.7,21.4 1,19.7C0.4,17.9 0,16.1 0,14.2C0,12.3 0.4,10.5 1.1,8.8C1.8,7 2.8,5.5 4.2,4.1C6.9,1.4 10.2,0 14.1,0ZM14.2,2.6C11,2.6 8.2,3.7 6,6C4.9,7.1 4,8.4 3.4,9.8C2.8,11.2 2.5,12.7 2.5,14.2C2.5,15.7 2.8,17.2 3.4,18.6C4.1,20 4.9,21.2 6,22.3C7.1,23.4 8.4,24.2 9.8,24.8C11.2,25.4 12.7,25.7 14.2,25.7C15.7,25.7 17.2,25.4 18.6,24.8C20,24.2 21.3,23.4 22.5,22.2C24.7,20 25.8,17.3 25.8,14.1C25.8,12.5 25.5,11 24.9,9.6C24.3,8.2 23.5,7 22.4,5.9C20.1,3.7 17.4,2.6 14.2,2.6ZM14,11.8L12.1,12.8C11.9,12.4 11.6,12.1 11.4,11.9C11.1,11.7 10.8,11.6 10.6,11.6C9.3,11.6 8.7,12.4 8.7,14.1C8.7,14.9 8.9,15.5 9.2,15.9C9.5,16.4 10,16.6 10.6,16.6C11.4,16.6 12,16.2 12.3,15.4L14,16.3C13.6,17 13.1,17.5 12.5,17.9C11.8,18.3 11.1,18.5 10.3,18.5C9,18.5 8,18.1 7.2,17.3C6.4,16.5 6,15.4 6,14.1C6,12.8 6.4,11.7 7.2,10.9C8,10.1 9,9.7 10.2,9.7C12,9.8 13.3,10.5 14,11.8ZM22.2,11.8L20.3,12.8C20.1,12.4 19.8,12.1 19.6,11.9C19.3,11.7 19,11.6 18.8,11.6C17.5,11.6 16.9,12.4 16.9,14.1C16.9,14.9 17.1,15.5 17.4,15.9C17.7,16.4 18.2,16.6 18.8,16.6C19.6,16.6 20.2,16.2 20.5,15.4L22.3,16.3C21.9,17 21.4,17.5 20.7,17.9C20,18.3 19.3,18.5 18.5,18.5C17.2,18.5 16.2,18.1 15.4,17.3C14.6,16.5 14.2,15.4 14.2,14.1C14.2,12.8 14.6,11.7 15.4,10.9C16.2,10.1 17.2,9.7 18.4,9.7C20.2,9.8 21.5,10.5 22.2,11.8Z" style="fill:white;fill-rule:nonzero;"/>
        </g>
        <g transform="matrix(3.73809,0,0,3.73809,476.275,420.481)">
            <path d="M14.1,0C18.1,0 21.4,1.4 24.2,4.1C27,6.8 28.3,10.2 28.3,14.1C28.3,18.1 26.9,21.4 24.3,24.1C21.4,26.9 18.1,28.3 14.2,28.3C10.4,28.3 7,26.9 4.2,24.1C1.4,21.4 0,18.1 0,14.2C0,10.3 1.4,7 4.2,4.2C6.9,1.4 10.3,0 14.1,0ZM14.2,2.6C11,2.6 8.3,3.7 6,6C3.7,8.3 2.5,11.1 2.5,14.2C2.5,17.4 3.6,20.1 5.9,22.3C8.2,24.6 10.9,25.7 14.1,25.7C17.3,25.7 20,24.5 22.4,22.2C24.6,20 25.7,17.3 25.7,14.1C25.7,10.9 24.6,8.1 22.3,5.9C20.2,3.7 17.4,2.6 14.2,2.6ZM7.9,12.2C8.2,10.5 8.9,9.1 10,8.2C11.1,7.2 12.5,6.8 14.1,6.8C16.3,6.8 18.1,7.5 19.4,9C20.7,10.4 21.4,12.3 21.4,14.5C21.4,16.7 20.7,18.5 19.3,19.9C18,21.2 16.2,22 14,22C12.4,22 11,21.5 9.8,20.6C8.6,19.6 7.9,18.3 7.7,16.5L11.3,16.5C11.4,18.2 12.4,19.1 14.4,19.1C15.4,19.1 16.2,18.7 16.8,17.8C17.4,16.9 17.7,15.8 17.7,14.4C17.7,12.9 17.4,11.8 16.9,11C16.3,10.2 15.5,9.8 14.5,9.8C12.6,9.8 11.5,10.6 11.3,12.3L12.3,12.3L9.6,15L6.8,12.2L7.9,12.2Z" style="fill:white;fill-rule:nonzero;"/>
        </g>
    </g>
    <g transform="matrix(1,0,0,1,518.039,21.9453)">
        <g transform="matrix(1,0,0,1,-518.039,-21.9453)">
            <path d="M674.203,359.978C674.27,355.383 675.239,350.733 677.286,346.217C684.16,331.054 698.914,321.124 713.32,313.978C747.333,297.108 787.073,291.948 824.947,292.001C866.061,292.171 908.456,298.03 942.95,318.457C957.806,327.255 972.001,339.572 973.826,357.557C973.94,358.687 973.992,359.81 973.985,360.924L974,361C974,430.082 974.248,499.165 973.999,568.247C973.831,583.804 961.973,597.6 949.672,606.218C925.524,623.135 895.591,630.471 865.882,634.341C824.954,639.673 782.532,637.724 743.293,626.421C722.88,620.541 702.774,612.839 687.201,596.879C679.76,589.254 674.125,579.451 674.001,568.248L674,568.011L674,361L674.203,359.978ZM962,523.785C953.745,533.521 941.542,540.81 929.272,546.373C893.622,562.537 853.437,566.997 814.222,565.858C777.543,564.794 740.074,559.02 708.215,541.062C700.032,536.449 691.934,530.883 685.902,523.91C685.917,538.66 685.948,553.41 686.001,568.16C686.122,579.062 694.61,588.404 702.722,594.572C721.388,608.767 744.926,615.601 768.276,619.999C813.458,628.509 861.427,627.201 904.867,613.854C923.746,608.053 943.213,600.315 955.435,584.843C959.222,580.049 961.978,574.21 962,567.989L962,523.785ZM717.014,565.856C722.071,565.856 726.176,569.961 726.176,575.018C726.176,580.074 722.071,584.179 717.014,584.179C711.957,584.179 707.852,580.074 707.852,575.018C707.852,569.961 711.957,565.856 717.014,565.856ZM962,454.699C955.759,462.02 947.28,467.977 938.382,472.84C904.713,491.241 864.749,496.779 825.882,496.995C785.111,497.221 743.06,491.577 708.508,472.227C700.196,467.571 692.001,461.913 685.917,454.861C685.898,472.76 685.885,490.66 685.892,508.56C689.609,517.96 698.105,525.136 706.109,530.417C725.437,543.168 748.524,549.639 771.792,553.667C816.421,561.391 863.078,559.956 906.148,546.551C924.871,540.724 943.828,533.283 956.603,517.584C958.796,514.888 960.682,511.869 962,508.639L962,454.699ZM717.014,498.052C722.071,498.052 726.176,502.157 726.176,507.214C726.176,512.271 722.071,516.376 717.014,516.376C711.957,516.376 707.852,512.271 707.852,507.214C707.852,502.157 711.957,498.052 717.014,498.052ZM962,388.067C955.538,395.269 947.13,401.421 938.485,406.059C916.484,417.863 891.698,423.903 866.747,427.227C821.447,433.262 774.172,430.687 731.771,415.743C714.766,409.751 697.822,401.56 685.988,388.612C685.975,405.618 685.953,422.624 685.934,439.63C690.679,451.658 702.298,459.651 712.934,465.534C742.765,482.035 777.909,487.55 812.159,488.787C852.461,490.242 894.001,485.823 929.68,468.337C939.651,463.451 949.275,457.501 956.466,448.75C958.718,446.011 960.654,442.939 962,439.648L962,388.067ZM717.014,430.248C722.071,430.248 726.176,434.354 726.176,439.41C726.176,444.467 722.071,448.572 717.014,448.572C711.957,448.572 707.852,444.467 707.852,439.41C707.852,434.354 711.957,430.248 717.014,430.248ZM686,362.078C686.075,363.283 686.244,364.511 686.517,365.763C689.105,377.644 699.874,386.489 710.922,393.073C733.509,406.534 760.017,412.581 786.175,415.757C827.083,420.725 869.367,418.506 908.268,405.775C925.477,400.143 942.98,392.875 954.789,378.64C959.874,372.511 963.248,364.339 961.483,356.237C958.897,344.363 948.127,335.511 937.078,328.927C915.981,316.355 891.449,310.321 866.818,306.893C852.342,304.879 837.724,303.981 823.086,304.001C785.761,304.156 747.207,309.125 714.67,326.795C700.624,334.423 685.869,345.722 685.956,360.779L686,361L686,362.078Z"/>
        </g>
        <g transform="matrix(1,0,0,1,-518.039,-21.9453)">
            <path d="M931.009,558.04C896.393,558.04 868.288,529.936 868.288,495.32C868.288,460.703 896.393,432.599 931.009,432.599L1162.82,432.599L1163.23,432.601C1197.66,432.819 1225.54,460.839 1225.54,495.32C1225.54,529.936 1197.44,558.04 1162.82,558.04L931.009,558.04Z" style="fill:rgb(97,188,48);"/>
        </g>
        <g transform="matrix(3.73809,0,0,3.73809,360.263,420.107)">
            <path d="M14.1,0C18.1,0 21.4,1.4 24.2,4.2C25.5,5.5 26.5,7.1 27.2,8.8C27.9,10.5 28.2,12.3 28.2,14.3C28.2,16.2 27.9,18.1 27.2,19.8C26.5,21.5 25.5,23 24.2,24.3C22.8,25.7 21.2,26.7 19.5,27.4C17.7,28.1 15.9,28.5 14.1,28.5C12.2,28.5 10.4,28.1 8.7,27.4C7,26.7 5.5,25.6 4.1,24.3C2.7,22.9 1.7,21.4 1,19.7C0.4,17.9 0,16.1 0,14.2C0,12.3 0.4,10.5 1.1,8.8C1.8,7 2.8,5.5 4.2,4.1C6.9,1.4 10.2,0 14.1,0ZM14.2,2.6C11,2.6 8.2,3.7 6,6C4.9,7.1 4,8.4 3.4,9.8C2.8,11.2 2.5,12.7 2.5,14.2C2.5,15.7 2.8,17.2 3.4,18.6C4.1,20 4.9,21.2 6,22.3C7.1,23.4 8.4,24.2 9.8,24.8C11.2,25.4 12.7,25.7 14.2,25.7C15.7,25.7 17.2,25.4 18.6,24.8C20,24.2 21.3,23.4 22.5,22.2C24.7,20 25.8,17.3 25.8,14.1C25.8,12.5 25.5,11 24.9,9.6C24.3,8.2 23.5,7 22.4,5.9C20.1,3.7 17.4,2.6 14.2,2.6ZM14,11.8L12.1,12.8C11.9,12.4 11.6,12.1 11.4,11.9C11.1,11.7 10.8,11.6 10.6,11.6C9.3,11.6 8.7,12.4 8.7,14.1C8.7,14.9 8.9,15.5 9.2,15.9C9.5,16.4 10,16.6 10.6,16.6C11.4,16.6 12,16.2 12.3,15.4L14,16.3C13.6,17 13.1,17.5 12.5,17.9C11.8,18.3 11.1,18.5 10.3,18.5C9,18.5 8,18.1 7.2,17.3C6.4,16.5 6,15.4 6,14.1C6,12.8 6.4,11.7 7.2,10.9C8,10.1 9,9.7 10.2,9.7C12,9.8 13.3,10.5 14,11.8ZM22.2,11.8L20.3,12.8C20.1,12.4 19.8,12.1 19.6,11.9C19.3,11.7 19,11.6 18.8,11.6C17.5,11.6 16.9,12.4 16.9,14.1C16.9,14.9 17.1,15.5 17.4,15.9C17.7,16.4 18.2,16.6 18.8,16.6C19.6,16.6 20.2,16.2 20.5,15.4L22.3,16.3C21.9,17 21.4,17.5 20.7,17.9C20,18.3 19.3,18.5 18.5,18.5C17.2,18.5 16.2,18.1 15.4,17.3C14.6,16.5 14.2,15.4 14.2,14.1C14.2,12.8 14.6,11.7 15.4,10.9C16.2,10.1 17.2,9.7 18.4,9.7C20.2,9.8 21.5,10.5 22.2,11.8Z" style="fill:white;fill-rule:nonzero;"/>
        </g>
        <g transform="matrix(3.73809,0,0,3.73809,475.691,420.481)">
            <path d="M14.1,0C18.1,0 21.4,1.4 24.2,4.1C27,6.9 28.3,10.2 28.3,14.2C28.3,18.2 26.9,21.5 24.3,24.1C21.4,26.9 18,28.3 14.2,28.3C10.4,28.3 7,26.9 4.2,24.1C1.4,21.4 0,18.1 0,14.2C0,10.3 1.4,7 4.2,4.1C6.9,1.4 10.2,0 14.1,0ZM14.2,2.6C11,2.6 8.3,3.7 6,5.9C3.7,8.3 2.5,11 2.5,14.1C2.5,17.2 3.6,20 5.9,22.2C8.2,24.5 10.9,25.6 14.1,25.6C17.3,25.6 20,24.4 22.4,22.1C24.6,20 25.7,17.2 25.7,14C25.7,10.8 24.6,8 22.3,5.8C20.1,3.7 17.4,2.6 14.2,2.6ZM18,10.7L18,16.5L16.4,16.5L16.4,23.4L12,23.4L12,16.5L10.4,16.5L10.4,10.7C10.4,10.4 10.5,10.2 10.7,10.1C10.9,9.9 11.1,9.8 11.3,9.8L17.1,9.8C17.3,9.8 17.5,9.9 17.7,10.1C17.9,10.2 18,10.4 18,10.7ZM12.2,7C12.2,5.7 12.9,5 14.2,5C15.5,5 16.2,5.7 16.2,7C16.2,8.3 15.5,9 14.2,9C12.9,9 12.2,8.3 12.2,7Z" style="fill:white;fill-rule:nonzero;"/>
        </g>
        <g transform="matrix(3.73809,0,0,3.73809,591.89,420.481)">
            <path d="M14.1,0C18.1,0 21.4,1.4 24.2,4.1C27,6.8 28.3,10.2 28.3,14.1C28.3,18.1 26.9,21.4 24.3,24.1C21.4,26.9 18.1,28.3 14.2,28.3C10.4,28.3 7,26.9 4.2,24.1C1.4,21.4 0,18.1 0,14.2C0,10.3 1.4,7 4.2,4.2C6.9,1.4 10.3,0 14.1,0ZM14.2,2.6C11,2.6 8.3,3.7 6,6C3.7,8.3 2.5,11.1 2.5,14.2C2.5,17.4 3.6,20.1 5.9,22.3C8.2,24.6 10.9,25.7 14.1,25.7C17.3,25.7 20,24.5 22.4,22.2C24.6,20 25.7,17.3 25.7,14.1C25.7,10.9 24.6,8.1 22.3,5.9C20.2,3.7 17.4,2.6 14.2,2.6ZM7.9,12.2C8.2,10.5 8.9,9.1 10,8.2C11.1,7.2 12.5,6.8 14.1,6.8C16.3,6.8 18.1,7.5 19.4,9C20.7,10.4 21.4,12.3 21.4,14.5C21.4,16.7 20.7,18.5 19.3,19.9C18,21.2 16.2,22 14,22C12.4,22 11,21.5 9.8,20.6C8.6,19.6 7.9,18.3 7.7,16.5L11.3,16.5C11.4,18.2 12.4,19.1 14.4,19.1C15.4,19.1 16.2,18.7 16.8,17.8C17.4,16.9 17.7,15.8 17.7,14.4C17.7,12.9 17.4,11.8 16.9,11C16.3,10.2 15.5,9.8 14.5,9.8C12.6,9.8 11.5,10.6 11.3,12.3L12.3,12.3L9.6,15L6.8,12.2L7.9,12.2Z" style="fill:white;fill-rule:nonzero;"/>
        </g>
    </g>
    <g transform="matrix(1,0,0,1,-155.961,313.945)">
        <g transform="matrix(1,0,0,1,155.961,-313.945)">
            <path d="M0.205,651.972C0.271,647.378 1.24,642.73 3.286,638.218C10.185,622.997 24.984,613.045 39.619,605.83C73.043,589.354 111.627,584.159 149.053,584.001C149.684,584 150.316,584 150.947,584.001C188.44,584.159 227.063,589.406 260.381,605.83C279.03,615.024 297.685,628.464 299.826,649.557C299.94,650.686 299.992,651.809 299.985,652.923L300,653C300,722.082 300.248,791.165 299.999,860.247C299.82,876.585 286.926,890.662 274.181,899.242C249.487,915.866 219.175,923.038 189.271,926.67C146.819,931.826 103.053,929.451 62.715,916.412C45.253,910.768 28.131,903.356 14.558,890.23C6.473,882.411 0.131,872.178 0.001,860.247L0,860.011L0,653L0.205,651.972ZM288,815.319C284.065,820.051 279.386,824.152 274.764,827.412C253.369,842.503 227.051,849.726 200.961,853.989C157.835,861.035 112.759,859.572 71.205,847.886C50.524,842.069 29.994,834.437 14.349,818.191C13.506,817.316 12.688,816.411 11.901,815.478C11.916,830.372 11.947,845.266 12.001,860.16C12.12,871.098 20.611,880.405 28.722,886.572C47.388,900.767 70.926,907.601 94.276,911.999C139.584,920.533 187.649,919.133 230.867,905.854C249.746,900.053 269.213,892.315 281.435,876.843C285.222,872.049 287.978,866.21 288,859.989L288,815.319ZM43.014,857.856C48.071,857.856 52.176,861.961 52.176,867.018C52.176,872.074 48.071,876.179 43.014,876.179C37.957,876.179 33.852,872.074 33.852,867.018C33.852,861.961 37.957,857.856 43.014,857.856ZM288,746.341C284.115,751.007 279.47,755.093 274.764,758.412C250.933,775.22 221.11,782.517 191.623,786.358C150.703,791.688 108.547,789.795 69.111,778.286C49.095,772.444 29.179,764.652 14.267,749.105C13.458,748.262 12.673,747.391 11.917,746.494C11.897,764.516 11.885,782.538 11.891,800.561C15.593,809.965 23.995,817.065 32.109,822.417C51.024,834.893 73.551,841.328 96.217,845.389C141.353,853.476 188.864,851.854 231.454,838.766C249.678,833.165 268.026,825.965 281.183,811.246C283.978,808.12 286.404,804.546 288,800.65L288,746.341ZM43.014,790.052C48.071,790.052 52.176,794.157 52.176,799.214C52.176,804.271 48.071,808.376 43.014,808.376C37.957,808.376 33.852,804.271 33.852,799.214C33.852,794.157 37.957,790.052 43.014,790.052ZM288,680.068C281.605,687.2 273.306,693.298 264.772,697.905C242.703,709.818 217.804,715.889 192.748,719.227C147.46,725.261 100.173,722.687 57.771,707.743C40.803,701.764 23.921,693.687 11.988,680.613C11.975,697.618 11.953,714.623 11.933,731.628C16.678,743.657 28.298,751.651 38.934,757.534C68.78,774.044 103.961,779.552 138.159,780.787C178.461,782.242 220,777.821 255.68,760.337C265.715,755.42 275.416,749.415 282.603,740.584C284.794,737.891 286.68,734.904 288,731.684L288,680.068ZM43.014,722.248C48.071,722.248 52.176,726.354 52.176,731.41C52.176,736.467 48.071,740.572 43.014,740.572C37.957,740.572 33.852,736.467 33.852,731.41C33.852,726.354 37.957,722.248 43.014,722.248ZM288.069,652.652C288.002,650.972 287.752,649.238 287.296,647.447C284.527,636.554 275.206,628.698 266.132,622.823C243.869,608.409 217.112,602.046 190.332,598.558C176.672,596.779 162.933,595.982 149.086,596.001C111.646,596.159 73.206,601.124 40.67,618.795C26.564,626.457 12,637.475 12,653C12,663.593 19.984,672.926 28.722,679.573C43.278,690.643 61.075,697.049 79.078,701.644C114.68,710.73 152.137,712.197 188.662,707.654C214.61,704.427 240.652,698.435 263.079,685.073C274.56,678.232 286.846,668.686 288,655.597L288,653L288.069,652.652Z"/>
        </g>
        <g transform="matrix(1,0,0,1,155.961,-313.945)">
            <path d="M257.009,850.04C222.393,850.04 194.288,821.936 194.288,787.32C194.288,752.704 222.392,724.6 257.009,724.599L488.823,724.599C523.44,724.6 551.543,752.704 551.543,787.32C551.543,821.801 523.658,849.821 489.228,850.039L488.823,850.04L257.009,850.04Z" style="fill:rgb(97,188,48);"/>
        </g>
        <g transform="matrix(3.73809,0,0,3.73809,360.263,420.107)">
            <path d="M14.1,0C18.1,0 21.4,1.4 24.2,4.2C25.5,5.5 26.5,7.1 27.2,8.8C27.9,10.5 28.2,12.3 28.2,14.3C28.2,16.2 27.9,18.1 27.2,19.8C26.5,21.5 25.5,23 24.2,24.3C22.8,25.7 21.2,26.7 19.5,27.4C17.7,28.1 15.9,28.5 14.1,28.5C12.2,28.5 10.4,28.1 8.7,27.4C7,26.7 5.5,25.6 4.1,24.3C2.7,22.9 1.7,21.4 1,19.7C0.4,17.9 0,16.1 0,14.2C0,12.3 0.4,10.5 1.1,8.8C1.8,7 2.8,5.5 4.2,4.1C6.9,1.4 10.2,0 14.1,0ZM14.2,2.6C11,2.6 8.2,3.7 6,6C4.9,7.1 4,8.4 3.4,9.8C2.8,11.2 2.5,12.7 2.5,14.2C2.5,15.7 2.8,17.2 3.4,18.6C4.1,20 4.9,21.2 6,22.3C7.1,23.4 8.4,24.2 9.8,24.8C11.2,25.4 12.7,25.7 14.2,25.7C15.7,25.7 17.2,25.4 18.6,24.8C20,24.2 21.3,23.4 22.5,22.2C24.7,20 25.8,17.3 25.8,14.1C25.8,12.5 25.5,11 24.9,9.6C24.3,8.2 23.5,7 22.4,5.9C20.1,3.7 17.4,2.6 14.2,2.6ZM14,11.8L12.1,12.8C11.9,12.4 11.6,12.1 11.4,11.9C11.1,11.7 10.8,11.6 10.6,11.6C9.3,11.6 8.7,12.4 8.7,14.1C8.7,14.9 8.9,15.5 9.2,15.9C9.5,16.4 10,16.6 10.6,16.6C11.4,16.6 12,16.2 12.3,15.4L14,16.3C13.6,17 13.1,17.5 12.5,17.9C11.8,18.3 11.1,18.5 10.3,18.5C9,18.5 8,18.1 7.2,17.3C6.4,16.5 6,15.4 6,14.1C6,12.8 6.4,11.7 7.2,10.9C8,10.1 9,9.7 10.2,9.7C12,9.8 13.3,10.5 14,11.8ZM22.2,11.8L20.3,12.8C20.1,12.4 19.8,12.1 19.6,11.9C19.3,11.7 19,11.6 18.8,11.6C17.5,11.6 16.9,12.4 16.9,14.1C16.9,14.9 17.1,15.5 17.4,15.9C17.7,16.4 18.2,16.6 18.8,16.6C19.6,16.6 20.2,16.2 20.5,15.4L22.3,16.3C21.9,17 21.4,17.5 20.7,17.9C20,18.3 19.3,18.5 18.5,18.5C17.2,18.5 16.2,18.1 15.4,17.3C14.6,16.5 14.2,15.4 14.2,14.1C14.2,12.8 14.6,11.7 15.4,10.9C16.2,10.1 17.2,9.7 18.4,9.7C20.2,9.8 21.5,10.5 22.2,11.8Z" style="fill:white;fill-rule:nonzero;"/>
        </g>
        <g transform="matrix(3.73809,0,0,3.73809,475.691,420.481)">
            <path d="M14.1,0C18.1,0 21.4,1.4 24.2,4.1C27,6.9 28.3,10.2 28.3,14.2C28.3,18.2 26.9,21.5 24.3,24.1C21.4,26.9 18,28.3 14.2,28.3C10.4,28.3 7,26.9 4.2,24.1C1.4,21.4 0,18.1 0,14.2C0,10.3 1.4,7 4.2,4.1C6.9,1.4 10.2,0 14.1,0ZM14.2,2.6C11,2.6 8.3,3.7 6,5.9C3.7,8.3 2.5,11 2.5,14.1C2.5,17.2 3.6,20 5.9,22.2C8.2,24.5 10.9,25.6 14.1,25.6C17.3,25.6 20,24.4 22.4,22.1C24.6,20 25.7,17.2 25.7,14C25.7,10.8 24.6,8 22.3,5.8C20.1,3.7 17.4,2.6 14.2,2.6ZM18,10.7L18,16.5L16.4,16.5L16.4,23.4L12,23.4L12,16.5L10.4,16.5L10.4,10.7C10.4,10.4 10.5,10.2 10.7,10.1C10.9,9.9 11.1,9.8 11.3,9.8L17.1,9.8C17.3,9.8 17.5,9.9 17.7,10.1C17.9,10.2 18,10.4 18,10.7ZM12.2,7C12.2,5.7 12.9,5 14.2,5C15.5,5 16.2,5.7 16.2,7C16.2,8.3 15.5,9 14.2,9C12.9,9 12.2,8.3 12.2,7Z" style="fill:white;fill-rule:nonzero;"/>
        </g>
        <g transform="matrix(3.73809,0,0,3.73809,591.89,420.481)">
            <path d="M14.1,0C18.1,0 21.4,1.4 24.2,4.1C27,6.8 28.3,10.2 28.3,14.1C28.3,18.1 26.9,21.4 24.3,24.1C21.4,26.9 18.1,28.3 14.2,28.3C10.4,28.3 7,26.9 4.2,24.1C1.4,21.4 0,18.1 0,14.2C0,10.3 1.4,7 4.2,4.2C6.9,1.4 10.3,0 14.1,0ZM14.2,2.6C11,2.6 8.3,3.7 6,6C3.7,8.3 2.5,11.1 2.5,14.2C2.5,17.4 3.6,20.1 5.9,22.3C8.2,24.6 10.9,25.7 14.1,25.7C17.3,25.7 20,24.5 22.4,22.2C24.6,20 25.7,17.3 25.7,14.1C25.7,10.9 24.6,8.1 22.3,5.9C20.2,3.7 17.4,2.6 14.2,2.6ZM7.9,12.2C8.2,10.5 8.9,9.1 10,8.2C11.1,7.2 12.5,6.8 14.1,6.8C16.3,6.8 18.1,7.5 19.4,9C20.7,10.4 21.4,12.3 21.4,14.5C21.4,16.7 20.7,18.5 19.3,19.9C18,21.2 16.2,22 14,22C12.4,22 11,21.5 9.8,20.6C8.6,19.6 7.9,18.3 7.7,16.5L11.3,16.5C11.4,18.2 12.4,19.1 14.4,19.1C15.4,19.1 16.2,18.7 16.8,17.8C17.4,16.9 17.7,15.8 17.7,14.4C17.7,12.9 17.4,11.8 16.9,11C16.3,10.2 15.5,9.8 14.5,9.8C12.6,9.8 11.5,10.6 11.3,12.3L12.3,12.3L9.6,15L6.8,12.2L7.9,12.2Z" style="fill:white;fill-rule:nonzero;"/>
        </g>
    </g>
    <path d="M597.499,548.52L595.406,544.895L609.212,544.067L601.592,555.608L599.499,551.984L350.675,695.642L349.157,695.842L347.943,694.91C347.694,694.176 347.693,694.166 347.743,693.393L348.675,692.178L597.499,548.52Z"/>
    <path d="M597.499,429.754L348.675,286.096L347.743,284.881L347.943,283.363L349.157,282.432C349.157,282.432 349.857,282.354 350.675,282.631L599.499,426.29L601.592,422.665L609.212,434.207L595.406,433.379L597.499,429.754Z"/>
</svg>
